<svg width="24" height="24" viewBox="0 0 24 24" fill="none" xmlns="http://www.w3.org/2000/svg">
<path opacity="0.12" d="M19.3019 4.69811C20.0786 3.92135 20.467 3.53296 20.6838 3.54014C20.8702 3.54631 21.0377 3.65574 21.1182 3.824C21.2119 4.01961 21.0122 4.53128 20.6128 5.55463L14.7466 20.5869C14.5143 21.182 14.3982 21.4795 14.2313 21.5662C14.0866 21.6414 13.9144 21.6413 13.7698 21.566C13.603 21.4791 13.4872 21.1814 13.2557 20.586L10.5 13.5L19.3019 4.69811Z" fill="currentColor"/>
<path d="M10.5 13.5001L21 3.00005M10.6276 13.8281L13.2557 20.5861C13.4872 21.1815 13.603 21.4791 13.7698 21.566C13.9144 21.6414 14.0866 21.6415 14.2313 21.5663C14.3982 21.4796 14.5143 21.1821 14.7466 20.587L21.3369 3.69925C21.5465 3.16207 21.6514 2.89348 21.594 2.72185C21.5442 2.5728 21.4273 2.45583 21.2782 2.40604C21.1066 2.34871 20.838 2.45352 20.3008 2.66315L3.41307 9.25349C2.81799 9.48572 2.52045 9.60183 2.43375 9.76873C2.35858 9.91342 2.35868 10.0857 2.43402 10.2303C2.52092 10.3971 2.8186 10.5128 3.41394 10.7444L10.1719 13.3725C10.2928 13.4195 10.3532 13.443 10.4041 13.4793C10.4492 13.5114 10.4886 13.5509 10.5208 13.596C10.5571 13.6468 10.5806 13.7073 10.6276 13.8281Z" stroke="currentColor" stroke-width="2" stroke-linecap="round" stroke-linejoin="round"/>
</svg>
