<svg width="24" height="24" viewBox="0 0 24 24" fill="none" xmlns="http://www.w3.org/2000/svg">
<path opacity="0.4" d="M18 9C19.6569 9 21 7.65685 21 6C21 4.34315 19.6569 3 18 3C16.3431 3 15 4.34315 15 6C15 7.65685 16.3431 9 18 9Z" stroke="currentColor" stroke-width="2" stroke-linecap="round" stroke-linejoin="round"/>
<path d="M19 21H20.0104C20.9816 21 21.4671 21 21.7348 20.7975C21.968 20.6211 22.1123 20.3515 22.1297 20.0596C22.1497 19.7246 21.8804 19.3205 21.3417 18.5125L18.3313 13.9969C17.8862 13.3292 17.6636 12.9954 17.3831 12.8791C17.1378 12.7774 16.8622 12.7774 16.6169 12.8791C16.3364 12.9954 16.1139 13.3292 15.6687 13.9969L14.9245 15.1132M19 21L11.3155 9.90019C10.8736 9.26183 10.6526 8.94265 10.3766 8.83045C10.1351 8.7323 9.8649 8.7323 9.62344 8.83045C9.34742 8.94265 9.12645 9.26183 8.68451 9.90019L2.73822 18.4893C2.17519 19.3025 1.89368 19.7092 1.90971 20.0474C1.92366 20.3419 2.06688 20.6152 2.30109 20.7943C2.57002 21 3.06459 21 4.05373 21H19Z" stroke="currentColor" stroke-width="2" stroke-linecap="round" stroke-linejoin="round"/>
</svg>
