<svg width="24" height="24" viewBox="0 0 24 24" fill="none" xmlns="http://www.w3.org/2000/svg">
<path opacity="0.4" d="M21.5 19L14.8572 13M9.14282 13L2.5 19M13.744 2.63358L21.272 7.52679C21.538 7.69969 21.671 7.78615 21.7674 7.90146C21.8527 8.00354 21.9167 8.12162 21.9558 8.24877C22 8.39241 22 8.55104 22 8.8683V16.2C22 17.8802 22 18.7202 21.673 19.362C21.3854 19.9265 20.9265 20.3854 20.362 20.673C19.7202 21 18.8802 21 17.2 21H6.8C5.11984 21 4.27976 21 3.63803 20.673C3.07354 20.3854 2.6146 19.9265 2.32698 19.362C2 18.7202 2 17.8802 2 16.2V8.8683C2 8.55104 2 8.39241 2.04417 8.24877C2.08327 8.12162 2.14735 8.00354 2.23265 7.90146C2.32901 7.78615 2.46201 7.69969 2.72802 7.52679L10.256 2.63358C10.8873 2.22327 11.2029 2.01812 11.543 1.93829C11.8436 1.86774 12.1564 1.86774 12.457 1.93829C12.7971 2.01812 13.1127 2.22327 13.744 2.63358Z" stroke="currentColor" stroke-width="2" stroke-linecap="round" stroke-linejoin="round"/>
<path d="M10.2561 13.3663L3.03196 8.67064C2.68804 8.44709 2.51607 8.33531 2.45652 8.19356C2.40447 8.06969 2.40447 7.93008 2.45652 7.8062C2.51607 7.66445 2.68804 7.55268 3.03196 7.32913L10.2561 2.63346C10.8873 2.22315 11.2029 2.01799 11.543 1.93817C11.8436 1.86761 12.1565 1.86761 12.4571 1.93817C12.7971 2.01799 13.1127 2.22315 13.744 2.63346L20.9681 7.32913C21.312 7.55268 21.484 7.66445 21.5435 7.8062C21.5956 7.93008 21.5956 8.06969 21.5435 8.19356C21.484 8.33531 21.312 8.44709 20.9681 8.67064L13.744 13.3663C13.1128 13.7766 12.7971 13.9818 12.4571 14.0616C12.1565 14.1321 11.8436 14.1321 11.543 14.0616C11.2029 13.9818 10.8873 13.7766 10.2561 13.3663Z" stroke="currentColor" stroke-width="2" stroke-linecap="round" stroke-linejoin="round"/>
</svg>
