<svg width="24" height="24" viewBox="0 0 24 24" fill="none" xmlns="http://www.w3.org/2000/svg">
<path opacity="0.4" d="M21.0001 11.5C21.0001 16.1944 17.1945 20 12.5001 20C11.4233 20 10.3933 19.7998 9.44527 19.4345C9.27193 19.3678 9.18527 19.3344 9.11635 19.3185C9.04856 19.3029 8.99949 19.2963 8.92997 19.2937C8.8593 19.291 8.78176 19.299 8.62668 19.315L3.50565 19.8444C3.01741 19.8948 2.77329 19.9201 2.62929 19.8322C2.50386 19.7557 2.41843 19.6279 2.39569 19.4828C2.36958 19.3161 2.48624 19.1002 2.71955 18.6684L4.35521 15.6408C4.48991 15.3915 4.55726 15.2668 4.58777 15.1469C4.61789 15.0286 4.62518 14.9432 4.61554 14.8214C4.60578 14.6981 4.55168 14.5376 4.44348 14.2166C4.15596 13.3636 4.00011 12.45 4.00011 11.5C4.00011 6.80558 7.80569 3 12.5001 3C17.1945 3 21.0001 6.80558 21.0001 11.5Z" stroke="currentColor" stroke-width="2" stroke-linecap="round" stroke-linejoin="round"/>
<path fill-rule="evenodd" clip-rule="evenodd" d="M12.4969 8.94925C11.5972 7.9104 10.0969 7.63095 8.96961 8.58223C7.84234 9.5335 7.68364 11.124 8.56889 12.2491C9.11733 12.9461 10.4939 14.2191 11.462 15.087C11.8176 15.4057 11.9953 15.5651 12.2087 15.6293C12.3918 15.6844 12.6021 15.6844 12.7851 15.6293C12.9985 15.5651 13.1763 15.4057 13.5319 15.087C14.4999 14.2191 15.8765 12.9461 16.4249 12.2491C17.3102 11.124 17.1709 9.5235 16.0242 8.58223C14.8776 7.64096 13.3966 7.9104 12.4969 8.94925Z" stroke="currentColor" stroke-width="2" stroke-linecap="round" stroke-linejoin="round"/>
</svg>
