<svg width="24" height="24" viewBox="0 0 24 24" fill="none" xmlns="http://www.w3.org/2000/svg">
<path opacity="0.4" d="M5.47591 12.8631C4.44498 11.2622 3.67691 9.54121 3.17172 7.76131C3.01152 7.19687 2.93141 6.91464 2.93018 6.5017C2.92882 6.04347 3.09018 5.42298 3.3146 5.02348C3.51685 4.66345 3.78166 4.39863 4.31129 3.86901L4.46892 3.71138C5.00036 3.17993 5.26608 2.91421 5.55147 2.76987C6.11903 2.4828 6.78929 2.4828 7.35685 2.76987C7.64223 2.91421 7.90795 3.17993 8.4394 3.71138L8.63427 3.90625C8.98387 4.25585 9.15868 4.43066 9.27296 4.60643C9.70396 5.26932 9.70396 6.1239 9.27296 6.7868C9.15868 6.96257 8.98387 7.13738 8.63427 7.48698C8.51995 7.60129 8.4628 7.65845 8.41496 7.72526C8.24495 7.96269 8.18624 8.30695 8.26797 8.58731C8.29096 8.6662 8.3209 8.72855 8.38077 8.85324C8.5016 9.10491 8.63005 9.35383 8.76612 9.59967" stroke="currentColor" stroke-width="2" stroke-linecap="round" stroke-linejoin="round"/>
<path d="M11.1821 12.8179L11.227 12.8631C12.4286 14.0646 13.7872 15.0134 15.2369 15.7094C15.3616 15.7693 15.4239 15.7992 15.5028 15.8222C15.7831 15.904 16.1274 15.8453 16.3648 15.6752C16.4316 15.6274 16.4888 15.5702 16.6031 15.4559C16.9527 15.1063 17.1275 14.9315 17.3033 14.8172C17.9662 14.3862 18.8208 14.3862 19.4837 14.8172C19.6594 14.9315 19.8342 15.1063 20.1839 15.4559L20.3787 15.6508C20.9102 16.1822 21.1759 16.448 21.3202 16.7333C21.6073 17.3009 21.6073 17.9712 21.3202 18.5387C21.1759 18.8241 20.9102 19.0898 20.3787 19.6213L20.2211 19.7789C19.6915 20.3085 19.4267 20.5733 19.0666 20.7756C18.6671 21 18.0466 21.1614 17.5884 21.16C17.1755 21.1588 16.8932 21.0787 16.3288 20.9185C13.2954 20.0575 10.433 18.433 8.04505 16.045L8.00015 16M21 3L3 21" stroke="currentColor" stroke-width="2" stroke-linecap="round" stroke-linejoin="round"/>
</svg>
