<svg width="24" height="24" viewBox="0 0 24 24" fill="none" xmlns="http://www.w3.org/2000/svg">
<g opacity="0.12">
<path d="M2 6C2 5.07003 2 4.60504 2.10222 4.22354C2.37962 3.18827 3.18827 2.37962 4.22354 2.10222C4.60504 2 5.07003 2 6 2H10.4C10.9601 2 11.2401 2 11.454 2.10899C11.6422 2.20487 11.7951 2.35785 11.891 2.54601C12 2.75992 12 3.03995 12 3.6V6H2Z" fill="currentColor"/>
<path d="M22 8C22 7.07003 22 6.60504 21.8978 6.22354C21.6204 5.18827 20.8117 4.37962 19.7765 4.10222C19.395 4 18.93 4 18 4H13.6C13.0399 4 12.7599 4 12.546 4.10899C12.3578 4.20487 12.2049 4.35785 12.109 4.54601C12 4.75992 12 5.03995 12 5.6V8H22Z" fill="currentColor"/>
<path d="M2 16C2 16.93 2 17.395 2.10222 17.7765C2.37962 18.8117 3.18827 19.6204 4.22354 19.8978C4.60504 20 5.07003 20 6 20H10.4C10.9601 20 11.2401 20 11.454 19.891C11.6422 19.7951 11.7951 19.6422 11.891 19.454C12 19.2401 12 18.9601 12 18.4V16H2Z" fill="currentColor"/>
<path d="M22 18C22 18.93 22 19.395 21.8978 19.7765C21.6204 20.8117 20.8117 21.6204 19.7765 21.8978C19.395 22 18.93 22 18 22H13.6C13.0399 22 12.7599 22 12.546 21.891C12.3578 21.7951 12.2049 21.6422 12.109 21.454C12 21.2401 12 20.9601 12 20.4V18H22Z" fill="currentColor"/>
</g>
<path d="M7 2V6M7 16V20M17 4V8M17 18V22M2 6H12M2 16H12M12 8H22M12 18H22M12 20V3.6C12 3.03995 12 2.75992 11.891 2.54601C11.7951 2.35785 11.6422 2.20487 11.454 2.10899C11.2401 2 10.9601 2 10.4 2H6.8C5.11984 2 4.27976 2 3.63803 2.32698C3.07354 2.6146 2.6146 3.07354 2.32698 3.63803C2 4.27976 2 5.11984 2 6.8V15.2C2 16.8802 2 17.7202 2.32698 18.362C2.6146 18.9265 3.07354 19.3854 3.63803 19.673C4.27976 20 5.11984 20 6.8 20H12ZM12 4H17.2C18.8802 4 19.7202 4 20.362 4.32698C20.9265 4.6146 21.3854 5.07354 21.673 5.63803C22 6.27976 22 7.11984 22 8.8V17.2C22 18.8802 22 19.7202 21.673 20.362C21.3854 20.9265 20.9265 21.3854 20.362 21.673C19.7202 22 18.8802 22 17.2 22H13.6C13.0399 22 12.7599 22 12.546 21.891C12.3578 21.7951 12.2049 21.6422 12.109 21.454C12 21.2401 12 20.9601 12 20.4V4Z" stroke="currentColor" stroke-width="2" stroke-linecap="round" stroke-linejoin="round"/>
</svg>
