<svg width="24" height="24" viewBox="0 0 24 24" fill="none" xmlns="http://www.w3.org/2000/svg">
<path opacity="0.12" d="M15.0336 4H8.96673C7.88986 4 7.35142 4 6.87606 4.16396C6.45569 4.30896 6.0728 4.5456 5.75512 4.85675C5.39587 5.2086 5.15507 5.69019 4.67348 6.65337L2.50692 10.9865L2.50691 10.9865C2.31793 11.3645 2.22343 11.5535 2.15679 11.7515C2.12927 11.8333 2.10531 11.9162 2.08496 12H21.9154C21.895 11.9162 21.8711 11.8333 21.8435 11.7515C21.7769 11.5535 21.6824 11.3645 21.4934 10.9865L19.3269 6.65337L19.3268 6.65331C18.8453 5.69018 18.6045 5.20859 18.2452 4.85675C17.9275 4.5456 17.5447 4.30896 17.1243 4.16396C16.6489 4 16.1105 4 15.0336 4Z" fill="currentColor"/>
<path d="M2.5 12H21.5M6 16H10M8.96656 4H15.0334C16.1103 4 16.6487 4 17.1241 4.16396C17.5445 4.30896 17.9274 4.5456 18.2451 4.85675C18.6043 5.2086 18.8451 5.6902 19.3267 6.65337L21.4932 10.9865C21.6822 11.3645 21.7767 11.5535 21.8434 11.7515C21.9026 11.9275 21.9453 12.1085 21.971 12.2923C22 12.4992 22 12.7105 22 13.1331V15.2C22 16.8802 22 17.7202 21.673 18.362C21.3854 18.9265 20.9265 19.3854 20.362 19.673C19.7202 20 18.8802 20 17.2 20H6.8C5.11984 20 4.27976 20 3.63803 19.673C3.07354 19.3854 2.6146 18.9265 2.32698 18.362C2 17.7202 2 16.8802 2 15.2V13.1331C2 12.7105 2 12.4992 2.02897 12.2923C2.05471 12.1085 2.09744 11.9275 2.15662 11.7515C2.22326 11.5535 2.31776 11.3645 2.50675 10.9865L4.67331 6.65337C5.1549 5.69019 5.3957 5.2086 5.75495 4.85675C6.07263 4.5456 6.45551 4.30896 6.87589 4.16396C7.35125 4 7.88969 4 8.96656 4Z" stroke="currentColor" stroke-width="2" stroke-linecap="round" stroke-linejoin="round"/>
</svg>
