<svg width="24" height="24" viewBox="0 0 24 24" fill="none" xmlns="http://www.w3.org/2000/svg">
<path opacity="0.12" d="M19 16.6709C19 17.7366 19 18.2695 18.7816 18.5432C18.5916 18.7812 18.3035 18.9196 17.999 18.9193C17.6488 18.9189 17.2327 18.5861 16.4005 17.9203L10.5618 13.2493C10.0279 12.8223 9.76102 12.6087 9.66438 12.3507C9.57965 12.1245 9.57965 11.8753 9.66438 11.6491C9.76102 11.3912 10.0279 11.1776 10.5618 10.7506L16.4005 6.07955C17.2327 5.41381 17.6488 5.08095 17.999 5.08057C18.3035 5.08024 18.5916 5.2187 18.7816 5.45671C19 5.73039 19 6.26324 19 7.32894V16.6709Z" fill="currentColor"/>
<path d="M5 19V5M16.4005 6.07961L10.5617 10.7506C10.0279 11.1777 9.76097 11.3912 9.66433 11.6492C9.5796 11.8754 9.5796 12.1246 9.66433 12.3508C9.76097 12.6088 10.0279 12.8223 10.5617 13.2494L16.4005 17.9204C17.2327 18.5861 17.6487 18.919 17.9989 18.9194C18.3035 18.9197 18.5916 18.7812 18.7815 18.5432C19 18.2695 19 17.7367 19 16.671V7.329C19 6.2633 19 5.73045 18.7815 5.45677C18.5916 5.21876 18.3035 5.0803 17.9989 5.08063C17.6487 5.081 17.2327 5.41387 16.4005 6.07961Z" stroke="currentColor" stroke-width="2" stroke-linecap="round" stroke-linejoin="round"/>
</svg>
