<svg width="24" height="24" viewBox="0 0 24 24" fill="none" xmlns="http://www.w3.org/2000/svg">
<path fill-rule="evenodd" clip-rule="evenodd" d="M10 6C10 4.89543 10.8954 4 12 4C13.1046 4 14 4.89543 14 6C14 7.10457 13.1046 8 12 8C10.8954 8 10 7.10457 10 6Z" fill="currentColor"/>
<path fill-rule="evenodd" clip-rule="evenodd" d="M10 18C10 16.8954 10.8954 16 12 16C13.1046 16 14 16.8954 14 18C14 19.1046 13.1046 20 12 20C10.8954 20 10 19.1046 10 18Z" fill="currentColor"/>
<path fill-rule="evenodd" clip-rule="evenodd" d="M3 12C3 11.4477 3.44772 11 4 11H20C20.5523 11 21 11.4477 21 12C21 12.5523 20.5523 13 20 13H4C3.44772 13 3 12.5523 3 12Z" fill="currentColor"/>
</svg>
