<svg width="24" height="24" viewBox="0 0 24 24" fill="none" xmlns="http://www.w3.org/2000/svg">
<path fill-rule="evenodd" clip-rule="evenodd" d="M8.52275 1.00001L8.47171 0.999916C8.2818 0.999409 8.04266 0.99877 7.80733 1.05527C7.60326 1.10426 7.40817 1.18507 7.22922 1.29473C7.02287 1.42118 6.85423 1.59073 6.7203 1.72537L6.68427 1.76153C5.04336 3.40245 3.40245 5.04335 1.76153 6.68427L1.72538 6.7203C1.59073 6.85423 1.42118 7.02287 1.29473 7.22922C1.18507 7.40817 1.10426 7.60326 1.05527 7.80733C0.99877 8.04266 0.999409 8.2818 0.999916 8.47171L1.00001 8.52275V15.4773L0.999916 15.5283C0.999409 15.7182 0.99877 15.9574 1.05527 16.1927C1.10426 16.3968 1.18507 16.5918 1.29473 16.7708C1.42118 16.9771 1.59073 17.1458 1.72538 17.2797L1.76153 17.3157L6.68427 22.2385L6.72031 22.2747C6.85423 22.4093 7.02287 22.5788 7.22922 22.7053C7.40817 22.8149 7.60326 22.8958 7.80733 22.9447C8.04266 23.0012 8.2818 23.0006 8.47172 23.0001L8.52275 23H15.4773L15.5283 23.0001C15.7182 23.0006 15.9574 23.0012 16.1927 22.9447C16.3968 22.8958 16.5918 22.8149 16.7708 22.7053C16.9771 22.5788 17.1458 22.4093 17.2797 22.2746L17.3157 22.2385L22.2385 17.3157L22.2746 17.2797C22.4093 17.1458 22.5788 16.9771 22.7053 16.7708C22.8149 16.5918 22.8958 16.3968 22.9447 16.1927C23.0012 15.9574 23.0006 15.7182 23.0001 15.5283L23 15.4773V8.52275L23.0001 8.47172C23.0006 8.2818 23.0012 8.04266 22.9447 7.80733C22.8958 7.60326 22.8149 7.40817 22.7053 7.22922C22.5788 7.02288 22.4093 6.85424 22.2747 6.72031L22.2385 6.68427L17.3157 1.76153L17.2797 1.72538C17.1458 1.59073 16.9771 1.42118 16.7708 1.29473C16.5918 1.18507 16.3968 1.10426 16.1927 1.05527C15.9574 0.99877 15.7182 0.999409 15.5283 0.999916L15.4773 1.00001H8.52275ZM19.07 17.6558L20.8243 15.9015C20.9169 15.8089 20.963 15.7625 20.995 15.7274L20.9974 15.7247L20.9976 15.7211C20.9998 15.6736 21 15.6083 21 15.4773V8.52275C21 8.39175 20.9998 8.32637 20.9976 8.27888L20.9974 8.27529L20.995 8.27263C20.963 8.23752 20.9169 8.19112 20.8243 8.09849L15.9015 3.17574C15.8089 3.08311 15.7625 3.03705 15.7274 3.005L15.7247 3.00259L15.7211 3.00242C15.6736 3.00025 15.6083 3.00001 15.4773 3.00001H8.52275C8.39175 3.00001 8.32637 3.00025 8.27888 3.00242L8.27529 3.00259L8.27263 3.005C7.60356 3.61556 6.34422 4.93001 6.34422 4.93001L19.07 17.6558ZM4.93001 6.34422L17.6558 19.07L15.9015 20.8243C15.8089 20.9169 15.7625 20.963 15.7274 20.995L15.7247 20.9974L15.7211 20.9976C15.6736 20.9998 15.6083 21 15.4773 21H8.52275C8.39175 21 8.32637 20.9998 8.27888 20.9976L8.27529 20.9974L8.27263 20.995C8.23752 20.963 8.19112 20.9169 8.09849 20.8243L3.17574 15.9015C3.08311 15.8089 3.03705 15.7625 3.005 15.7274L3.00259 15.7247L3.00242 15.7211C3.00025 15.6736 3.00001 15.6083 3.00001 15.4773V8.52275C3.00001 8.39175 3.00025 8.32637 3.00242 8.27888L3.00259 8.27529L3.005 8.27263C3.03705 8.23752 3.08311 8.19112 3.17574 8.09849L4.93001 6.34422Z" fill="currentColor"/>
</svg>
