<svg width="24" height="24" viewBox="0 0 24 24" fill="none" xmlns="http://www.w3.org/2000/svg">
<path opacity="0.12" d="M2 11.5C2 9.15643 3.79151 7.23129 6.07974 7.01937C6.54781 4.17213 9.02024 2 12 2C14.9798 2 17.4522 4.17213 17.9203 7.01937C20.2085 7.23129 22 9.15643 22 11.5C22 13.4593 20.7478 15.1262 19 15.7439H5C3.25221 15.1262 2 13.4593 2 11.5Z" fill="currentColor"/>
<path d="M19 15.7439C20.7478 15.1262 22 13.4593 22 11.5C22 9.15643 20.2085 7.23129 17.9203 7.01937C17.4522 4.17213 14.9798 2 12 2C9.02024 2 6.54781 4.17213 6.07974 7.01937C3.79151 7.23129 2 9.15643 2 11.5C2 13.4593 3.25221 15.1262 5 15.7439M13 10L9 16H15L11 22" stroke="currentColor" stroke-width="2" stroke-linecap="round" stroke-linejoin="round"/>
</svg>
