<svg width="24" height="24" viewBox="0 0 24 24" fill="none" xmlns="http://www.w3.org/2000/svg">
<path opacity="0.4" d="M15.4999 3.29077C16.9658 3.88416 17.9999 5.32132 17.9999 7.00001M11.9998 21.5L14.0248 21.095C14.2014 21.0597 14.2897 21.042 14.372 21.0098C14.4451 20.9811 14.5145 20.9439 14.5789 20.899C14.6514 20.8484 14.7151 20.7848 14.8424 20.6575L21.4999 14.0001C22.0522 13.4478 22.0522 12.5523 21.4999 12C20.9476 11.4477 20.0522 11.4477 19.4999 12L12.8424 18.6575C12.7151 18.7848 12.6514 18.8485 12.6009 18.921C12.556 18.9854 12.5188 19.0548 12.4901 19.1279C12.4578 19.2102 12.4402 19.2984 12.4049 19.475L11.9998 21.5Z" stroke="currentColor" stroke-width="2" stroke-linecap="round" stroke-linejoin="round"/>
<path d="M11 15H8C6.13623 15 5.20435 15 4.46927 15.3045C3.48915 15.7105 2.71046 16.4892 2.30448 17.4693C2 18.2044 2 19.1362 2 21M13.5 7C13.5 9.20914 11.7091 11 9.5 11C7.29086 11 5.5 9.20914 5.5 7C5.5 4.79086 7.29086 3 9.5 3C11.7091 3 13.5 4.79086 13.5 7Z" stroke="currentColor" stroke-width="2" stroke-linecap="round" stroke-linejoin="round"/>
</svg>
