<svg width="24" height="24" viewBox="0 0 24 24" fill="none" xmlns="http://www.w3.org/2000/svg">
<path opacity="0.4" d="M11.8861 17.8986C11.9285 17.7501 11.9497 17.6758 11.9815 17.6066C12.0098 17.5451 12.0442 17.4866 12.0842 17.4321C12.1293 17.3706 12.1839 17.316 12.2932 17.2068L18.75 10.75C19.4404 10.0596 20.5597 10.0596 21.25 10.7499C21.9404 11.4403 21.9404 12.5596 21.25 13.25L14.7932 19.7068C14.6839 19.816 14.6293 19.8706 14.5679 19.9157C14.5134 19.9558 14.4549 19.9902 14.3934 20.0184C14.3241 20.0502 14.2499 20.0714 14.1014 20.1139L11 21L11.8861 17.8986Z" stroke="currentColor" stroke-width="2" stroke-linecap="round" stroke-linejoin="round"/>
<path d="M9 15.5H7.5C6.10444 15.5 5.40665 15.5 4.83886 15.6722C3.56045 16.06 2.56004 17.0605 2.17224 18.3389C2 18.9067 2 19.6044 2 21M14.5 7.5C14.5 9.98528 12.4853 12 10 12C7.51472 12 5.5 9.98528 5.5 7.5C5.5 5.01472 7.51472 3 10 3C12.4853 3 14.5 5.01472 14.5 7.5Z" stroke="currentColor" stroke-width="2" stroke-linecap="round" stroke-linejoin="round"/>
</svg>
