<svg width="24" height="24" viewBox="0 0 24 24" fill="none" xmlns="http://www.w3.org/2000/svg">
<path opacity="0.4" d="M18.6837 19.4384C18.0754 18.0052 16.6551 17 15 17H8.99999C7.34491 17 5.92461 18.0052 5.31628 19.4384" stroke="currentColor" stroke-width="2" stroke-linecap="round" stroke-linejoin="round"/>
<path d="M12 13.5C14.2091 13.5 16 11.7091 16 9.5C16 7.29086 14.2091 5.5 12 5.5C9.79086 5.5 8 7.29086 8 9.5C8 11.7091 9.79086 13.5 12 13.5Z" stroke="currentColor" stroke-width="2" stroke-linecap="round" stroke-linejoin="round"/>
<path d="M12 22C17.5228 22 22 17.5228 22 12C22 6.47715 17.5228 2 12 2C6.47715 2 2 6.47715 2 12C2 17.5228 6.47715 22 12 22Z" stroke="currentColor" stroke-width="2" stroke-linecap="round" stroke-linejoin="round"/>
</svg>
