<svg width="24" height="24" viewBox="0 0 24 24" fill="none" xmlns="http://www.w3.org/2000/svg">
<path opacity="0.4" d="M16 3.46777C17.4817 4.20412 18.5 5.73315 18.5 7.50001C18.5 9.26687 17.4817 10.7959 16 11.5323M18 16.7664C19.5115 17.4504 20.8725 18.565 22 20" stroke="currentColor" stroke-width="2" stroke-linecap="round" stroke-linejoin="round"/>
<path d="M2 20C3.94649 17.5226 6.58918 16 9.5 16C12.4108 16 15.0535 17.5226 17 20M14 7.5C14 9.98528 11.9853 12 9.5 12C7.01472 12 5 9.98528 5 7.5C5 5.01472 7.01472 3 9.5 3C11.9853 3 14 5.01472 14 7.5Z" stroke="currentColor" stroke-width="2" stroke-linecap="round" stroke-linejoin="round"/>
</svg>
