<svg width="24" height="24" viewBox="0 0 24 24" fill="none" xmlns="http://www.w3.org/2000/svg">
<path opacity="0.12" d="M18 11.2C18 9.82087 17.3678 8.49823 16.2426 7.52304C15.1174 6.54786 13.5913 6 12 6C10.4087 6 8.88254 6.54786 7.75732 7.52304C6.63211 8.49823 5.99996 9.82087 5.99996 11.2C5.99996 13.4818 5.4341 15.1506 4.72803 16.3447C3.9233 17.7056 3.52094 18.3861 3.53683 18.5486C3.55501 18.7346 3.58848 18.7933 3.7393 18.9036C3.87114 19 4.53347 19 5.85815 19H18.1418C19.4665 19 20.1288 19 20.2606 18.9036C20.4114 18.7933 20.4449 18.7346 20.4631 18.5486C20.479 18.3861 20.0766 17.7056 19.2719 16.3447C18.5658 15.1506 18 13.4818 18 11.2Z" fill="currentColor"/>
<path d="M15 19C15 20.6569 13.6569 22 12 22C10.3432 22 9 20.6569 9 19M13.7965 6.23856C14.232 5.78864 14.5 5.17562 14.5 4.5C14.5 3.11929 13.3807 2 12 2C10.6193 2 9.5 3.11929 9.5 4.5C9.5 5.17562 9.76801 5.78864 10.2035 6.23856M2.54682 8.32296C2.53248 6.87161 3.31496 5.51631 4.57904 4.80306M21.4532 8.32296C21.4675 6.87161 20.6851 5.51631 19.421 4.80306M18 11.2C18 9.82087 17.3679 8.49823 16.2426 7.52304C15.1174 6.54786 13.5913 6 12 6C10.4087 6 8.88258 6.54786 7.75736 7.52304C6.63215 8.49823 6.00001 9.82087 6.00001 11.2C6.00001 13.4818 5.43414 15.1506 4.72807 16.3447C3.92334 17.7056 3.52098 18.3861 3.53687 18.5486C3.55505 18.7346 3.58852 18.7933 3.73934 18.9036C3.87118 19 4.53351 19 5.85819 19H18.1418C19.4665 19 20.1288 19 20.2607 18.9036C20.4115 18.7933 20.445 18.7346 20.4631 18.5486C20.479 18.3861 20.0767 17.7056 19.2719 16.3447C18.5659 15.1506 18 13.4818 18 11.2Z" stroke="currentColor" stroke-width="2" stroke-linecap="round" stroke-linejoin="round"/>
</svg>
