<svg width="24" height="24" viewBox="0 0 24 24" fill="none" xmlns="http://www.w3.org/2000/svg">
<path opacity="0.12" d="M12 22C13.6569 22 15 20.6569 15 19H9C9 20.6569 10.3431 22 12 22Z" fill="currentColor"/>
<path d="M15 19C15 20.6569 13.6568 22 12 22C10.3431 22 8.99997 20.6569 8.99997 19M13.7965 6.23856C14.232 5.78864 14.5 5.17562 14.5 4.5C14.5 3.11929 13.3807 2 12 2C10.6193 2 9.49996 3.11929 9.49996 4.5C9.49996 5.17562 9.76797 5.78864 10.2035 6.23856M18 11.2C18 9.82087 17.3678 8.49823 16.2426 7.52304C15.1174 6.54786 13.5913 6 12 6C10.4087 6 8.88254 6.54786 7.75732 7.52304C6.63211 8.49823 5.99996 9.82087 5.99996 11.2C5.99996 13.4818 5.4341 15.1506 4.72803 16.3447C3.9233 17.7056 3.52094 18.3861 3.53683 18.5486C3.55501 18.7346 3.58848 18.7933 3.7393 18.9036C3.87114 19 4.53347 19 5.85815 19H18.1418C19.4665 19 20.1288 19 20.2606 18.9036C20.4115 18.7933 20.4449 18.7346 20.4631 18.5486C20.479 18.3861 20.0766 17.7056 19.2719 16.3447C18.5658 15.1506 18 13.4818 18 11.2Z" stroke="currentColor" stroke-width="2" stroke-linecap="round" stroke-linejoin="round"/>
</svg>
