<svg width="24" height="24" viewBox="0 0 24 24" fill="none" xmlns="http://www.w3.org/2000/svg">
<path opacity="0.12" d="M18 8C18 6.4087 17.3679 4.88258 16.2427 3.75736C15.1174 2.63214 13.5913 2 12 2C10.4087 2 8.8826 2.63214 7.75738 3.75736C6.63216 4.88258 6.00002 6.4087 6.00002 8C6.00002 11.0902 5.22049 13.206 4.34968 14.6054C3.61515 15.7859 3.24788 16.3761 3.26134 16.5408C3.27626 16.7231 3.31488 16.7926 3.46179 16.9016C3.59448 17 4.19261 17 5.38887 17H18.6112C19.8074 17 20.4056 17 20.5382 16.9016C20.6852 16.7926 20.7238 16.7231 20.7387 16.5408C20.7522 16.3761 20.3849 15.7859 19.6504 14.6054C18.7795 13.206 18 11.0902 18 8Z" fill="currentColor"/>
<path d="M9.35418 21C10.0593 21.6224 10.9856 22 12 22C13.0145 22 13.9407 21.6224 14.6458 21M2.2939 5.81989C2.27955 4.36854 3.06203 3.01325 4.32611 2.3M21.7021 5.8199C21.7165 4.36855 20.934 3.01325 19.6699 2.3M18 8C18 6.4087 17.3679 4.88258 16.2426 3.75736C15.1174 2.63214 13.5913 2 12 2C10.4087 2 8.88258 2.63214 7.75736 3.75736C6.63215 4.88258 6.00001 6.4087 6.00001 8C6.00001 11.0902 5.22047 13.206 4.34967 14.6054C3.61513 15.7859 3.24786 16.3761 3.26133 16.5408C3.27624 16.7231 3.31487 16.7926 3.46178 16.9016C3.59446 17 4.1926 17 5.38886 17H18.6111C19.8074 17 20.4055 17 20.5382 16.9016C20.6851 16.7926 20.7238 16.7231 20.7387 16.5408C20.7521 16.3761 20.3849 15.7859 19.6503 14.6054C18.7795 13.206 18 11.0902 18 8Z" stroke="currentColor" stroke-width="2" stroke-linecap="round" stroke-linejoin="round"/>
</svg>
