<svg width="24" height="24" viewBox="0 0 24 24" fill="none" xmlns="http://www.w3.org/2000/svg">
<path opacity="0.4" d="M21 3H3M21 21H3" stroke="currentColor" stroke-width="2" stroke-linecap="round" stroke-linejoin="round"/>
<path d="M16 15C16.9319 15 17.3978 15 17.7654 14.8478C18.2554 14.6448 18.6448 14.2554 18.8478 13.7654C19 13.3978 19 12.9319 19 12C19 11.0681 19 10.6022 18.8478 10.2346C18.6448 9.74458 18.2554 9.35523 17.7654 9.15224C17.3978 9 16.9319 9 16 9L8 9C7.06812 9 6.60218 9 6.23463 9.15224C5.74458 9.35523 5.35523 9.74458 5.15224 10.2346C5 10.6022 5 11.0681 5 12C5 12.9319 5 13.3978 5.15224 13.7654C5.35523 14.2554 5.74458 14.6448 6.23463 14.8478C6.60218 15 7.06812 15 8 15L16 15Z" stroke="currentColor" stroke-width="2" stroke-linecap="round" stroke-linejoin="round"/>
</svg>
