<svg width="24" height="24" viewBox="0 0 24 24" fill="none" xmlns="http://www.w3.org/2000/svg">
<path opacity="0.4" d="M14.905 18.9752C14.9403 18.7986 14.958 18.7103 14.9903 18.628C15.0189 18.5549 15.0561 18.4855 15.101 18.4211C15.1516 18.3486 15.2152 18.2849 15.3426 18.1576L19.5 14.0002C20.0523 13.4479 20.9477 13.4479 21.5 14.0002C22.0523 14.5524 22.0523 15.4479 21.5 16.0002L17.3426 20.1576C17.2152 20.2849 17.1516 20.3486 17.079 20.3992C17.0147 20.4441 16.9452 20.4812 16.8721 20.5099C16.7898 20.5422 16.7015 20.5598 16.525 20.5952L14.5 21.0002L14.905 18.9752Z" stroke="currentColor" stroke-width="2" stroke-linecap="round" stroke-linejoin="round"/>
<path d="M2 10H22V8.2C22 7.0799 22 6.51984 21.782 6.09202C21.5903 5.7157 21.2843 5.40974 20.908 5.21799C20.4802 5 19.9201 5 18.8 5H5.2C4.0799 5 3.51984 5 3.09202 5.21799C2.7157 5.40973 2.40973 5.71569 2.21799 6.09202C2 6.51984 2 7.0799 2 8.2V15.8C2 16.9201 2 17.4802 2.21799 17.908C2.40973 18.2843 2.71569 18.5903 3.09202 18.782C3.51984 19 4.0799 19 5.2 19H11" stroke="currentColor" stroke-width="2" stroke-linecap="round" stroke-linejoin="round"/>
</svg>
