<svg width="24" height="24" viewBox="0 0 24 24" fill="none" xmlns="http://www.w3.org/2000/svg">
<path opacity="0.12" d="M6.56567 11.4342L11.4343 6.56561C11.6323 6.3676 11.7313 6.2686 11.8455 6.2315C11.9459 6.19887 12.0541 6.19887 12.1545 6.2315C12.2687 6.2686 12.3677 6.3676 12.5657 6.56561L17.4343 11.4342C17.6323 11.6322 17.7313 11.7313 17.7684 11.8454C17.801 11.9458 17.801 12.054 17.7684 12.1544C17.7313 12.2686 17.6323 12.3676 17.4343 12.5656L12.5657 17.4342C12.3677 17.6322 12.2687 17.7313 12.1545 17.7683C12.0541 17.801 11.9459 17.801 11.8455 17.7683C11.7313 17.7313 11.6323 17.6322 11.4343 17.4342L6.56567 12.5656C6.36766 12.3676 6.26866 12.2686 6.23156 12.1544C6.19894 12.054 6.19894 11.9458 6.23156 11.8454C6.26866 11.7313 6.36766 11.6322 6.56567 11.4342Z" fill="currentColor"/>
<path d="M17.8779 20.0899C16.1694 21.3312 14.1118 21.9998 12 21.9998C9.88821 21.9998 7.83063 21.3312 6.12215 20.0899M16.3837 3.01182C18.2818 3.93756 19.8381 5.44044 20.8295 7.30504C21.8209 9.16964 22.1966 11.3002 21.9027 13.3915M2.09742 13.3914C1.80352 11.3002 2.1792 9.16955 3.17063 7.30494C4.16205 5.44034 5.71832 3.93747 7.61639 3.01172M11.4343 6.56544L6.56569 11.4341C6.36768 11.6321 6.26868 11.7311 6.23158 11.8452C6.19895 11.9457 6.19895 12.0538 6.23158 12.1543C6.26868 12.2684 6.36768 12.3674 6.56569 12.5654L11.4343 17.4341C11.6323 17.6321 11.7313 17.7311 11.8455 17.7682C11.9459 17.8008 12.0541 17.8008 12.1545 17.7682C12.2687 17.7311 12.3677 17.6321 12.5657 17.4341L17.4343 12.5654C17.6323 12.3674 17.7313 12.2684 17.7684 12.1543C17.8011 12.0538 17.8011 11.9457 17.7684 11.8452C17.7313 11.7311 17.6323 11.6321 17.4343 11.4341L12.5657 6.56544C12.3677 6.36743 12.2687 6.26843 12.1545 6.23134C12.0541 6.19871 11.9459 6.19871 11.8455 6.23134C11.7313 6.26843 11.6323 6.36743 11.4343 6.56544Z" stroke="currentColor" stroke-width="2" stroke-linecap="round" stroke-linejoin="round"/>
</svg>
