<svg width="24" height="24" viewBox="0 0 24 24" fill="none" xmlns="http://www.w3.org/2000/svg">
<path opacity="0.12" d="M7.56567 11.4342L11.4343 7.56561C11.6323 7.3676 11.7313 7.2686 11.8455 7.2315C11.9459 7.19887 12.0541 7.19887 12.1545 7.2315C12.2687 7.2686 12.3677 7.3676 12.5657 7.56561L16.4343 11.4342C16.6323 11.6322 16.7313 11.7313 16.7684 11.8454C16.801 11.9458 16.801 12.054 16.7684 12.1544C16.7313 12.2686 16.6323 12.3676 16.4343 12.5656L12.5657 16.4342C12.3677 16.6322 12.2687 16.7313 12.1545 16.7683C12.0541 16.801 11.9459 16.801 11.8455 16.7683C11.7313 16.7313 11.6323 16.6322 11.4343 16.4342L7.56567 12.5656C7.36766 12.3676 7.26866 12.2686 7.23156 12.1544C7.19894 12.054 7.19894 11.9458 7.23156 11.8454C7.26866 11.7313 7.36766 11.6322 7.56567 11.4342Z" fill="currentColor"/>
<path d="M2 2L4 4M22 2L20 4M22 22L20 20M2 22L4 20M2 16H3.5M8 2V3.5M22 8H20.5M16 22V20.5M18 16H21.5M16 2V6M2 8H6M8 22V18M11.4343 7.56569L7.56569 11.4343C7.36768 11.6323 7.26867 11.7313 7.23158 11.8455C7.19895 11.9459 7.19895 12.0541 7.23158 12.1545C7.26867 12.2687 7.36768 12.3677 7.56569 12.5657L11.4343 16.4343C11.6323 16.6323 11.7313 16.7313 11.8455 16.7684C11.9459 16.8011 12.0541 16.8011 12.1545 16.7684C12.2687 16.7313 12.3677 16.6323 12.5657 16.4343L16.4343 12.5657C16.6323 12.3677 16.7313 12.2687 16.7684 12.1545C16.8011 12.0541 16.8011 11.9459 16.7684 11.8455C16.7313 11.7313 16.6323 11.6323 16.4343 11.4343L12.5657 7.56569C12.3677 7.36768 12.2687 7.26867 12.1545 7.23158C12.0541 7.19895 11.9459 7.19895 11.8455 7.23158C11.7313 7.26867 11.6323 7.36768 11.4343 7.56569Z" stroke="currentColor" stroke-width="2" stroke-linecap="round" stroke-linejoin="round"/>
</svg>
