<svg width="24" height="24" viewBox="0 0 24 24" fill="none" xmlns="http://www.w3.org/2000/svg">
<g opacity="0.12">
<path d="M5.49999 17C7.11809 17 8.47973 15.8706 8.88042 14.3364C8.91316 14.211 8.92953 14.1483 8.93111 13.8979C8.93208 13.7443 8.87502 13.3904 8.82587 13.2449C8.79454 13.1522 8.76221 13.0753 8.72408 13H2.2759C2.23777 13.0753 2.20543 13.1522 2.1741 13.2449C2.12495 13.3904 2.06789 13.7443 2.06886 13.8979C2.07044 14.1483 2.08681 14.211 2.11955 14.3364C2.52024 15.8706 3.88188 17 5.49999 17Z" fill="currentColor"/>
<path d="M18.5011 17C20.1192 17 21.4809 15.8706 21.8816 14.3364C21.9143 14.211 21.9307 14.1483 21.9323 13.8979C21.9332 13.7443 21.8762 13.3904 21.827 13.2449C21.7957 13.1522 21.7634 13.0753 21.7252 13H15.277C15.2389 13.0753 15.2066 13.1522 15.1753 13.2449C15.1261 13.3904 15.069 13.7443 15.07 13.8979C15.0716 14.1483 15.088 14.211 15.1207 14.3364C15.5214 15.8706 16.883 17 18.5011 17Z" fill="currentColor"/>
</g>
<path d="M2.49999 13H8.49999M15.5 13H21.5M12 7V21M12 7C13.3807 7 14.5 5.88071 14.5 4.5M12 7C10.6193 7 9.49999 5.88071 9.49999 4.5M3.99999 21L20 21M3.99999 4.50001L9.49999 4.5M9.49999 4.5C9.49999 3.11929 10.6193 2 12 2C13.3807 2 14.5 3.11929 14.5 4.5M14.5 4.5L20 4.5M8.88042 14.3364C8.47973 15.8706 7.11809 17 5.49999 17C3.88188 17 2.52024 15.8706 2.11955 14.3364C2.08681 14.211 2.07044 14.1483 2.06886 13.8979C2.06789 13.7443 2.12495 13.3904 2.1741 13.2449C2.25429 13.0076 2.34109 12.8737 2.5147 12.6059L5.49999 8L8.48528 12.6059C8.65888 12.8737 8.74568 13.0076 8.82587 13.2449C8.87502 13.3904 8.93208 13.7443 8.93111 13.8979C8.92953 14.1483 8.91316 14.211 8.88042 14.3364ZM21.8804 14.3364C21.4797 15.8706 20.1181 17 18.5 17C16.8819 17 15.5202 15.8706 15.1195 14.3364C15.0868 14.211 15.0704 14.1483 15.0689 13.8979C15.0679 13.7443 15.1249 13.3904 15.1741 13.2449C15.2543 13.0076 15.3411 12.8737 15.5147 12.6059L18.5 8L21.4853 12.6059C21.6589 12.8737 21.7457 13.0076 21.8259 13.2449C21.875 13.3904 21.9321 13.7443 21.9311 13.8979C21.9295 14.1483 21.9132 14.211 21.8804 14.3364Z" stroke="currentColor" stroke-width="2" stroke-linecap="round" stroke-linejoin="round"/>
</svg>
