<svg width="24" height="24" viewBox="0 0 24 24" fill="none" xmlns="http://www.w3.org/2000/svg">
<path opacity="0.4" d="M13 19H17.2943C19.1595 19 20.092 19 20.6216 18.6092C21.0832 18.2685 21.3763 17.7459 21.4263 17.1743C21.4837 16.5187 20.9974 15.7229 20.0248 14.1313L19.0278 12.5M6.13018 10.6052L3.97532 14.1314C3.00271 15.7229 2.51641 16.5187 2.57376 17.1743C2.62376 17.7459 2.91685 18.2685 3.3785 18.6092C3.90803 19 4.84062 19 6.70582 19H8.50004M16.8889 8.99999L14.7305 5.46808C13.8277 3.99079 13.3764 3.25214 12.7952 3.00033C12.2879 2.78049 11.7122 2.78049 11.2048 3.00033C10.6237 3.25214 10.1723 3.99079 9.26954 5.46809L8.24971 7.13689" stroke="currentColor" stroke-width="2" stroke-linecap="round" stroke-linejoin="round"/>
<path d="M18 5.00006L16.9019 9.09814L12.8038 8.00006M2 11.5981L6.09808 10.5L7.19615 14.5981M15.5 22L12.5 19L15.5 16" stroke="currentColor" stroke-width="2" stroke-linecap="round" stroke-linejoin="round"/>
</svg>
