<svg width="24" height="24" viewBox="0 0 24 24" fill="none" xmlns="http://www.w3.org/2000/svg">
<path fill-rule="evenodd" clip-rule="evenodd" d="M12 1C5.92487 1 1 5.92487 1 12C1 18.0751 5.92487 23 12 23C18.0751 23 23 18.0751 23 12C23 5.92487 18.0751 1 12 1ZM16.7071 8.70711C17.0976 8.31658 17.0976 7.68342 16.7071 7.29289C16.3166 6.90237 15.6834 6.90237 15.2929 7.29289L7.29289 15.2929C6.90237 15.6834 6.90237 16.3166 7.29289 16.7071C7.68342 17.0976 8.31658 17.0976 8.70711 16.7071L16.7071 8.70711ZM7.5 9C7.5 8.17157 8.17157 7.5 9 7.5C9.82843 7.5 10.5 8.17157 10.5 9C10.5 9.82843 9.82843 10.5 9 10.5C8.17157 10.5 7.5 9.82843 7.5 9ZM13.5 15C13.5 14.1716 14.1716 13.5 15 13.5C15.8284 13.5 16.5 14.1716 16.5 15C16.5 15.8284 15.8284 16.5 15 16.5C14.1716 16.5 13.5 15.8284 13.5 15Z" fill="currentColor"/>
</svg>
