<svg width="24" height="24" viewBox="0 0 24 24" fill="none" xmlns="http://www.w3.org/2000/svg">
<path opacity="0.4" d="M7.13515 11.189L3.3304 4.38052C2.89291 3.59765 2.67417 3.20621 2.71103 2.88573C2.7432 2.60611 2.8917 2.353 3.1201 2.18852C3.38188 2 3.83029 2 4.72711 2H6.96193C7.29523 2 7.46187 2 7.61135 2.04813C7.74362 2.09073 7.86556 2.16042 7.96939 2.25276C8.08674 2.35712 8.17132 2.5007 8.3405 2.78788L12.0001 9L15.6597 2.78788C15.8289 2.5007 15.9135 2.35712 16.0308 2.25276C16.1347 2.16042 16.2566 2.09073 16.3889 2.04813C16.5383 2 16.705 2 17.0383 2H19.2731C20.1699 2 20.6183 2 20.8801 2.18852C21.1085 2.353 21.257 2.60611 21.2892 2.88573C21.326 3.20621 21.1073 3.59765 20.6698 4.38052L16.8651 11.189" stroke="currentColor" stroke-width="2" stroke-linecap="round" stroke-linejoin="round"/>
<path d="M10.5 14L12 13V18M10.75 18H13.25M16.5962 10.9038C19.1346 13.4422 19.1346 17.5578 16.5962 20.0962C14.0578 22.6346 9.94222 22.6346 7.4038 20.0962C4.8654 17.5578 4.8654 13.4422 7.4038 10.9038C9.9422 8.3654 14.0578 8.3654 16.5962 10.9038Z" stroke="currentColor" stroke-width="2" stroke-linecap="round" stroke-linejoin="round"/>
</svg>
