<svg width="24" height="24" viewBox="0 0 24 24" fill="none" xmlns="http://www.w3.org/2000/svg">
<path opacity="0.4" d="M16 7C16 6.07003 16 5.60504 15.8978 5.22354C15.6204 4.18827 14.8117 3.37962 13.7765 3.10222C13.395 3 12.93 3 12 3C11.07 3 10.605 3 10.2235 3.10222C9.18827 3.37962 8.37962 4.18827 8.10222 5.22354C8 5.60504 8 6.07003 8 7" stroke="currentColor" stroke-width="2" stroke-linecap="round" stroke-linejoin="round"/>
<path d="M2 10.2C2 9.07989 2 8.51984 2.21799 8.09202C2.40973 7.71569 2.71569 7.40973 3.09202 7.21799C3.51984 7 4.07989 7 5.2 7H18.8C19.9201 7 20.4802 7 20.908 7.21799C21.2843 7.40973 21.5903 7.71569 21.782 8.09202C22 8.51984 22 9.0799 22 10.2V17.8C22 18.9201 22 19.4802 21.782 19.908C21.5903 20.2843 21.2843 20.5903 20.908 20.782C20.4802 21 19.9201 21 18.8 21H5.2C4.0799 21 3.51984 21 3.09202 20.782C2.71569 20.5903 2.40973 20.2843 2.21799 19.908C2 19.4802 2 18.9201 2 17.8V10.2Z" stroke="currentColor" stroke-width="2" stroke-linecap="round" stroke-linejoin="round"/>
</svg>
