<svg width="24" height="24" viewBox="0 0 24 24" fill="none" xmlns="http://www.w3.org/2000/svg">
<path opacity="0.4" d="M13.1214 14.8449L18 22.0001M10.8786 14.8449L6 22.0001M14 13.2002C14 14.3048 13.1046 15.2002 12 15.2002C10.8954 15.2002 10 14.3048 10 13.2002C10 12.0956 10.8954 11.2002 12 11.2002C13.1046 11.2002 14 12.0956 14 13.2002Z" stroke="currentColor" stroke-width="2" stroke-linecap="round" stroke-linejoin="round"/>
<path d="M4.79845 8.66964C4.72597 8.39915 4.68973 8.26391 4.71469 8.14649C4.73664 8.04321 4.79073 7.94953 4.8692 7.87888C4.9584 7.79855 5.09365 7.76232 5.36413 7.68984L17.1484 4.53225L18.4425 9.36188L6.65823 12.5195C6.38774 12.5919 6.2525 12.6282 6.13508 12.6032C6.0318 12.5813 5.93812 12.5272 5.86747 12.4487C5.78714 12.3595 5.75091 12.2243 5.67843 11.9538L4.79845 8.66964Z" stroke="currentColor" stroke-width="2" stroke-linecap="round" stroke-linejoin="round"/>
<path d="M17.7178 6.65728C17.4279 5.57535 17.283 5.03438 17.3828 4.56471C17.4706 4.15158 17.687 3.77686 18.0008 3.49425C18.3577 3.17296 18.8986 3.02801 19.9806 2.7381C20.2511 2.66562 20.3863 2.62939 20.5037 2.65434C20.607 2.6763 20.7007 2.73038 20.7713 2.80885C20.8517 2.89806 20.8879 3.0333 20.9604 3.30379L22.358 8.51979C22.4305 8.79027 22.4667 8.92551 22.4417 9.04293C22.4198 9.14621 22.3657 9.23989 22.2872 9.31055C22.198 9.39087 22.0628 9.42711 21.7923 9.49958C20.7104 9.78949 20.1694 9.93444 19.6997 9.83461C19.2866 9.74679 18.9119 9.53045 18.6293 9.21657C18.308 8.85975 18.163 8.31878 17.8731 7.23684L17.7178 6.65728Z" stroke="currentColor" stroke-width="2" stroke-linecap="round" stroke-linejoin="round"/>
<path d="M2.15949 10.412C2.08701 10.1415 2.05077 10.0063 2.07573 9.88888C2.09768 9.78559 2.15177 9.69191 2.23024 9.62126C2.31945 9.54094 2.45469 9.5047 2.72517 9.43222L4.07747 9.06988C4.34795 8.9974 4.4832 8.96116 4.60061 8.98612C4.70389 9.00807 4.79758 9.06216 4.86823 9.14063C4.94855 9.22983 4.98479 9.36508 5.05727 9.63556L5.41961 10.9879C5.49209 11.2583 5.52833 11.3936 5.50337 11.511C5.48142 11.6143 5.42733 11.708 5.34886 11.7786C5.25965 11.8589 5.12441 11.8952 4.85393 11.9677L3.50163 12.33C3.23115 12.4025 3.0959 12.4387 2.97849 12.4138C2.8752 12.3918 2.78152 12.3377 2.71087 12.2592C2.63055 12.17 2.59431 12.0348 2.52183 11.7643L2.15949 10.412Z" stroke="currentColor" stroke-width="2" stroke-linecap="round" stroke-linejoin="round"/>
</svg>
