<svg width="24" height="24" viewBox="0 0 24 24" fill="none" xmlns="http://www.w3.org/2000/svg">
<path fill-rule="evenodd" clip-rule="evenodd" d="M3 10C3.55228 10 4 10.4477 4 11L4 21C4 21.5523 3.55229 22 3 22C2.44772 22 2 21.5523 2 21L2 11C2 10.4477 2.44772 10 3 10Z" fill="currentColor"/>
<path fill-rule="evenodd" clip-rule="evenodd" d="M15 10C15.5523 10 16 10.4477 16 11L16 21C16 21.5523 15.5523 22 15 22C14.4477 22 14 21.5523 14 21L14 11C14 10.4477 14.4477 10 15 10Z" fill="currentColor"/>
<path fill-rule="evenodd" clip-rule="evenodd" d="M9 2C9.55228 2 10 2.44772 10 3L10 21C10 21.5523 9.55229 22 9 22C8.44772 22 8 21.5523 8 21L8 3C8 2.44772 8.44772 2 9 2Z" fill="currentColor"/>
<path fill-rule="evenodd" clip-rule="evenodd" d="M21 2C21.5523 2 22 2.44772 22 3V21C22 21.5523 21.5523 22 21 22C20.4477 22 20 21.5523 20 21V3C20 2.44772 20.4477 2 21 2Z" fill="currentColor"/>
</svg>
