<svg width="24" height="24" viewBox="0 0 24 24" fill="none" xmlns="http://www.w3.org/2000/svg">
<path opacity="0.4" d="M2.53207 10.315C2.51763 10.1708 2.58098 10.0011 2.68637 9.90161C2.81613 9.77913 3.02622 9.76418 3.44641 9.7343C3.68692 9.71719 3.92974 9.7085 4.1746 9.7085C9.76214 9.7085 14.2917 14.2381 14.2917 19.8256C14.2917 20.0705 14.283 20.3133 14.2659 20.5538C14.236 20.974 14.2211 21.1841 14.0986 21.3139C13.9991 21.4193 13.8294 21.4826 13.6852 21.4682" stroke="currentColor" stroke-width="2" stroke-linecap="round" stroke-linejoin="round"/>
<path d="M22.0001 12.1171C22.0001 6.5296 17.4705 2 11.883 2C7.34797 2 3.50987 4.98385 2.22482 9.0954C2.14251 9.35878 2.10135 9.49047 2.10523 9.65514C2.10839 9.78904 2.14909 9.95446 2.20842 10.0745C2.28139 10.2222 2.39405 10.3349 2.61937 10.5602L13.4404 21.3807C13.6657 21.606 13.7784 21.7187 13.926 21.7916C14.0461 21.8509 14.2115 21.8916 14.3454 21.8948C14.5101 21.8987 14.6418 21.8575 14.9052 21.7752C19.0165 20.49 22.0001 16.652 22.0001 12.1171Z" stroke="currentColor" stroke-width="2" stroke-linecap="round" stroke-linejoin="round"/>
</svg>
