<svg width="24" height="24" viewBox="0 0 24 24" fill="none" xmlns="http://www.w3.org/2000/svg">
<path opacity="0.4" d="M7 11V8C7 5.23858 9.23858 3 12 3C14.419 3 16.4367 4.71776 16.9 7" stroke="currentColor" stroke-width="2" stroke-linecap="round" stroke-linejoin="round"/>
<path d="M3 15.8C3 14.1198 3 13.2798 3.32698 12.638C3.6146 12.0735 4.07354 11.6146 4.63803 11.327C5.27976 11 6.11984 11 7.8 11H16.2C17.8802 11 18.7202 11 19.362 11.327C19.9265 11.6146 20.3854 12.0735 20.673 12.638C21 13.2798 21 14.1198 21 15.8V16.2C21 17.8802 21 18.7202 20.673 19.362C20.3854 19.9265 19.9265 20.3854 19.362 20.673C18.7202 21 17.8802 21 16.2 21H7.8C6.11984 21 5.27976 21 4.63803 20.673C4.07354 20.3854 3.6146 19.9265 3.32698 19.362C3 18.7202 3 17.8802 3 16.2V15.8Z" stroke="currentColor" stroke-width="2" stroke-linecap="round" stroke-linejoin="round"/>
</svg>
