<svg width="24" height="24" viewBox="0 0 24 24" fill="none" xmlns="http://www.w3.org/2000/svg">
<path opacity="0.4" d="M8.80859 3.19661L11.4381 2.21054C11.646 2.13258 11.75 2.0936 11.8569 2.07815C11.9517 2.06444 12.0481 2.06444 12.1429 2.07815C12.2499 2.0936 12.3538 2.13258 12.5617 2.21054L17.9235 4.22122C18.6721 4.50195 19.0464 4.64231 19.3223 4.8854C19.5659 5.10015 19.7536 5.37101 19.8692 5.67457C19.9999 6.0182 19.9999 6.41796 19.9999 7.21747V11.9999C19.9999 12.7202 19.8846 13.4117 19.6817 14.0708" stroke="currentColor" stroke-width="2" stroke-linecap="round" stroke-linejoin="round"/>
<path d="M17.6219 17.6257C15.9362 19.586 13.7879 20.9789 12.6996 21.6139C12.4772 21.7437 12.366 21.8086 12.2098 21.8421C12.0885 21.8681 11.9116 21.8681 11.7904 21.8421C11.6341 21.8086 11.5234 21.744 11.302 21.6149C9.35396 20.4784 4 16.9084 4 12V5.77631C4 5.30936 4.28966 4.89138 4.72688 4.72742M3 3L21 21" stroke="currentColor" stroke-width="2" stroke-linecap="round" stroke-linejoin="round"/>
</svg>
