<svg width="24" height="24" viewBox="0 0 24 24" fill="none" xmlns="http://www.w3.org/2000/svg">
<path opacity="0.4" d="M11.302 21.615C11.5234 21.7442 11.6341 21.8087 11.7903 21.8422C11.9116 21.8682 12.0884 21.8682 12.2097 21.8422C12.3659 21.8087 12.4766 21.7442 12.698 21.615C14.646 20.4785 20 16.9086 20 12.0001V7.21772C20 6.4182 20 6.01845 19.8692 5.67482C19.7537 5.37126 19.566 5.10039 19.3223 4.88564C19.0465 4.64255 18.6722 4.50219 17.9236 4.22146L12.5618 2.21079C12.3539 2.13283 12.25 2.09385 12.143 2.07839C12.0482 2.06469 11.9518 2.06469 11.857 2.07839C11.75 2.09385 11.6461 2.13283 11.4382 2.21079L6.0764 4.22146C5.3278 4.50219 4.9535 4.64255 4.67766 4.88564C4.43398 5.10039 4.24627 5.37126 4.13076 5.67482C4 6.01845 4 6.4182 4 7.21772V12.0001C4 16.9086 9.35396 20.4785 11.302 21.615Z" stroke="currentColor" stroke-width="2" stroke-linecap="round" stroke-linejoin="round"/>
<path d="M9.21296 14.5C9.52517 15.0945 10.1486 15.5 10.8667 15.5H13C14.1046 15.5 15 14.6046 15 13.5C15 12.3954 14.1046 11.5 13 11.5H11C9.89543 11.5 9 10.6046 9 9.5C9 8.39543 9.89543 7.5 11 7.5H13.1333C13.8514 7.5 14.4748 7.90549 14.787 8.5M12 6V7.5M12 15.5V17" stroke="currentColor" stroke-width="2" stroke-linecap="round" stroke-linejoin="round"/>
</svg>
