<svg width="24" height="24" viewBox="0 0 24 24" fill="none" xmlns="http://www.w3.org/2000/svg">
<path opacity="0.12" d="M3.44641 9.73381C3.68692 9.71671 3.92974 9.70801 4.1746 9.70801C9.76214 9.70801 14.2917 14.2376 14.2917 19.8251C14.2917 20.07 14.283 20.3128 14.2659 20.5533C14.236 20.9735 14.2211 21.1836 14.0986 21.3134C13.9991 21.4188 13.8294 21.4821 13.6852 21.4677C13.5076 21.4499 13.3462 21.2884 13.0232 20.9655L3.03425 10.9765C2.71132 10.6536 2.54986 10.4921 2.53207 10.3146C2.51763 10.1704 2.58098 10.0006 2.68637 9.90112C2.81613 9.77864 3.02622 9.7637 3.44641 9.73381Z" fill="currentColor"/>
<path d="M22.0001 12.1171C22.0001 6.5296 17.4705 2 11.883 2C7.34797 2 3.50987 4.98385 2.22482 9.0954C2.14251 9.35878 2.10135 9.49047 2.10523 9.65514C2.10839 9.78904 2.14909 9.95446 2.20842 10.0745C2.28139 10.2222 2.39405 10.3349 2.61937 10.5602L13.4404 21.3807C13.6657 21.606 13.7784 21.7187 13.926 21.7916C14.0461 21.8509 14.2115 21.8916 14.3454 21.8948C14.5101 21.8987 14.6418 21.8575 14.9052 21.7752C19.0165 20.49 22.0001 16.652 22.0001 12.1171Z" stroke="currentColor" stroke-width="2" stroke-linecap="round" stroke-linejoin="round"/>
<path d="M3.44631 9.7341C3.68681 9.71699 3.92964 9.70829 4.1745 9.70829C9.76204 9.70829 14.2916 14.2379 14.2916 19.8254C14.2916 20.0703 14.2829 20.3131 14.2658 20.5536C14.2359 20.9738 14.221 21.1839 14.0985 21.3137C13.999 21.4191 13.8293 21.4824 13.6851 21.468C13.5075 21.4502 13.3461 21.2887 13.0231 20.9658L3.03415 10.9768C2.71122 10.6539 2.54975 10.4924 2.53197 10.3148C2.51752 10.1706 2.58088 10.0009 2.68627 9.9014C2.81602 9.77892 3.02612 9.76398 3.44631 9.7341Z" stroke="currentColor" stroke-width="2" stroke-linecap="round" stroke-linejoin="round"/>
</svg>
