<svg width="24" height="24" viewBox="0 0 24 24" fill="none" xmlns="http://www.w3.org/2000/svg">
<path opacity="0.4" d="M9 2V5M15 2V5M9 19V22M15 19V22M19 9H22M19 14H22M2 9H5M2 14H5" stroke="currentColor" stroke-width="2" stroke-linecap="round" stroke-linejoin="round"/>
<path d="M5 9.8C5 8.11984 5 7.27976 5.32698 6.63803C5.6146 6.07354 6.07354 5.6146 6.63803 5.32698C7.27976 5 8.11984 5 9.8 5H14.2C15.8802 5 16.7202 5 17.362 5.32698C17.9265 5.6146 18.3854 6.07354 18.673 6.63803C19 7.27976 19 8.11984 19 9.8V14.2C19 15.8802 19 16.7202 18.673 17.362C18.3854 17.9265 17.9265 18.3854 17.362 18.673C16.7202 19 15.8802 19 14.2 19H9.8C8.11984 19 7.27976 19 6.63803 18.673C6.07354 18.3854 5.6146 17.9265 5.32698 17.362C5 16.7202 5 15.8802 5 14.2V9.8Z" stroke="currentColor" stroke-width="2" stroke-linecap="round" stroke-linejoin="round"/>
</svg>
