<svg width="24" height="24" viewBox="0 0 24 24" fill="none" xmlns="http://www.w3.org/2000/svg">
<path opacity="0.4" d="M10 20H3M21 20H14M12 14V18" stroke="currentColor" stroke-width="2" stroke-linecap="round" stroke-linejoin="round"/>
<path d="M21 5C21 6.65685 16.9706 8 12 8C7.02944 8 3 6.65685 3 5M21 5C21 3.34315 16.9706 2 12 2C7.02944 2 3 3.34315 3 5M21 5V11C21 12.66 17 14 12 14C7 14 3 12.66 3 11V5M14 20C14 21.1046 13.1046 22 12 22C10.8954 22 10 21.1046 10 20C10 18.8954 10.8954 18 12 18C13.1046 18 14 18.8954 14 20Z" stroke="currentColor" stroke-width="2" stroke-linecap="round" stroke-linejoin="round"/>
</svg>
