<svg width="24" height="24" viewBox="0 0 24 24" fill="none" xmlns="http://www.w3.org/2000/svg">
<path opacity="0.4" d="M22 17.5L21.3083 7.46975C21.1997 5.89504 21.1454 5.10768 20.8041 4.51082C20.5036 3.98533 20.0512 3.56304 19.5062 3.29942C18.8873 3 18.0981 3 16.5196 3H7.48037C5.90191 3 5.11268 3 4.49376 3.29942C3.94884 3.56304 3.49642 3.98533 3.19594 4.51082C2.85464 5.10768 2.80034 5.89503 2.69174 7.46975L2 17.5" stroke="currentColor" stroke-width="2" stroke-linecap="round" stroke-linejoin="round"/>
<path d="M6 17.5H6.01M12 17.5H18M5.5 21H18.5C20.433 21 22 19.433 22 17.5C22 15.567 20.433 14 18.5 14H5.5C3.567 14 2 15.567 2 17.5C2 19.433 3.567 21 5.5 21Z" stroke="currentColor" stroke-width="2" stroke-linecap="round" stroke-linejoin="round"/>
</svg>
