<svg width="24" height="24" viewBox="0 0 24 24" fill="none" xmlns="http://www.w3.org/2000/svg">
<path opacity="0.4" d="M15.6459 18.015C16.0747 19.6154 15.125 21.2604 13.5246 21.6892C11.9242 22.118 10.2792 21.1683 9.85036 19.5679M2.05683 11.6135C1.66734 10.2153 2.07238 8.70366 3.10878 7.68755M20.319 6.72017C19.9572 5.31457 18.8506 4.20797 17.445 3.84619" stroke="currentColor" stroke-width="2" stroke-linecap="round" stroke-linejoin="round"/>
<path d="M12.1463 5.74085C12.4506 5.19355 12.5508 4.53205 12.3759 3.87945C12.0185 2.54579 10.6477 1.75433 9.31403 2.11168C7.98037 2.46904 7.18891 3.83988 7.54627 5.17355C7.72113 5.82614 8.13866 6.34891 8.67576 6.67079M17.4907 9.44528C17.1337 8.11315 16.1808 6.99919 14.8415 6.34845C13.5022 5.69772 11.8863 5.56352 10.3492 5.97538C8.81217 6.38724 7.47985 7.31142 6.64537 8.54461C5.81089 9.77779 5.54261 11.219 5.89955 12.5511C6.49013 14.7552 6.37545 16.5135 6.0025 17.8497C5.57743 19.3725 5.3649 20.134 5.42232 20.2869C5.48801 20.4618 5.53553 20.5098 5.70976 20.5773C5.86205 20.6363 6.50182 20.4649 7.78136 20.122L19.6464 16.9428C20.926 16.5999 21.5657 16.4285 21.6681 16.3013C21.7853 16.1557 21.8024 16.0904 21.7718 15.906C21.7451 15.7449 21.1803 15.1918 20.0508 14.0855C19.0597 13.1148 18.0812 11.6493 17.4907 9.44528Z" stroke="currentColor" stroke-width="2" stroke-linecap="round" stroke-linejoin="round"/>
</svg>
