<svg width="24" height="24" viewBox="0 0 24 24" fill="none" xmlns="http://www.w3.org/2000/svg">
<path d="M15.0313 3H19C19.5523 3 20 3.44772 20 4C20 4.55228 19.5523 5 19 5H15.6929L10.4429 19H14C14.5523 19 15 19.4477 15 20C15 20.5523 14.5523 21 14 21H9.01017C9.00332 21.0001 8.99645 21.0001 8.98958 21H5C4.44772 21 4 20.5523 4 20C4 19.4477 4.44772 19 5 19H8.30694L13.5569 5H10C9.44772 5 9 4.55228 9 4C9 3.44772 9.44772 3 10 3H14.969C14.9897 2.99935 15.0105 2.99935 15.0313 3Z" fill="currentColor"/>
</svg>
