<svg width="24" height="24" viewBox="0 0 24 24" fill="none" xmlns="http://www.w3.org/2000/svg">
<path opacity="0.4" d="M9.99976 20.2631C6.91185 19.5183 4.48126 17.0876 3.73657 13.9997M20.2635 13.9998C19.5188 17.0876 17.0882 19.5182 14.0004 20.263M14.0002 3.73633C17.0881 4.48105 19.5188 6.91169 20.2635 9.99964M3.73677 9.99976C4.48148 6.91175 6.91215 4.48106 10.0002 3.73633" stroke="currentColor" stroke-width="2" stroke-linecap="round" stroke-linejoin="round"/>
<path d="M2 11.6C2 11.0399 2 10.7599 2.10899 10.546C2.20487 10.3578 2.35785 10.2049 2.54601 10.109C2.75992 10 3.03995 10 3.6 10H4.4C4.96005 10 5.24008 10 5.45399 10.109C5.64215 10.2049 5.79513 10.3578 5.89101 10.546C6 10.7599 6 11.0399 6 11.6V12.4C6 12.9601 6 13.2401 5.89101 13.454C5.79513 13.6422 5.64215 13.7951 5.45399 13.891C5.24008 14 4.96005 14 4.4 14H3.6C3.03995 14 2.75992 14 2.54601 13.891C2.35785 13.7951 2.20487 13.6422 2.10899 13.454C2 13.2401 2 12.9601 2 12.4V11.6Z" stroke="currentColor" stroke-width="2" stroke-linecap="round" stroke-linejoin="round"/>
<path d="M18 11.6C18 11.0399 18 10.7599 18.109 10.546C18.2049 10.3578 18.3578 10.2049 18.546 10.109C18.7599 10 19.0399 10 19.6 10H20.4C20.9601 10 21.2401 10 21.454 10.109C21.6422 10.2049 21.7951 10.3578 21.891 10.546C22 10.7599 22 11.0399 22 11.6V12.4C22 12.9601 22 13.2401 21.891 13.454C21.7951 13.6422 21.6422 13.7951 21.454 13.891C21.2401 14 20.9601 14 20.4 14H19.6C19.0399 14 18.7599 14 18.546 13.891C18.3578 13.7951 18.2049 13.6422 18.109 13.454C18 13.2401 18 12.9601 18 12.4V11.6Z" stroke="currentColor" stroke-width="2" stroke-linecap="round" stroke-linejoin="round"/>
<path d="M10 3.6C10 3.03995 10 2.75992 10.109 2.54601C10.2049 2.35785 10.3578 2.20487 10.546 2.10899C10.7599 2 11.0399 2 11.6 2H12.4C12.9601 2 13.2401 2 13.454 2.10899C13.6422 2.20487 13.7951 2.35785 13.891 2.54601C14 2.75992 14 3.03995 14 3.6V4.4C14 4.96005 14 5.24008 13.891 5.45399C13.7951 5.64215 13.6422 5.79513 13.454 5.89101C13.2401 6 12.9601 6 12.4 6H11.6C11.0399 6 10.7599 6 10.546 5.89101C10.3578 5.79513 10.2049 5.64215 10.109 5.45399C10 5.24008 10 4.96005 10 4.4V3.6Z" stroke="currentColor" stroke-width="2" stroke-linecap="round" stroke-linejoin="round"/>
<path d="M10 19.6C10 19.0399 10 18.7599 10.109 18.546C10.2049 18.3578 10.3578 18.2049 10.546 18.109C10.7599 18 11.0399 18 11.6 18H12.4C12.9601 18 13.2401 18 13.454 18.109C13.6422 18.2049 13.7951 18.3578 13.891 18.546C14 18.7599 14 19.0399 14 19.6V20.4C14 20.9601 14 21.2401 13.891 21.454C13.7951 21.6422 13.6422 21.7951 13.454 21.891C13.2401 22 12.9601 22 12.4 22H11.6C11.0399 22 10.7599 22 10.546 21.891C10.3578 21.7951 10.2049 21.6422 10.109 21.454C10 21.2401 10 20.9601 10 20.4V19.6Z" stroke="currentColor" stroke-width="2" stroke-linecap="round" stroke-linejoin="round"/>
</svg>
