<svg width="24" height="24" viewBox="0 0 24 24" fill="none" xmlns="http://www.w3.org/2000/svg">
<path opacity="0.4" d="M21 9.25H12M21 4H3M21 14.75H12M21 20H3" stroke="currentColor" stroke-width="2" stroke-linecap="round" stroke-linejoin="round"/>
<path d="M3 15.0001C3 15.515 3 15.7725 3.10632 15.9083C3.19885 16.0265 3.33956 16.0968 3.48961 16.0999C3.66203 16.1035 3.86802 15.949 4.28 15.6401L8.14667 12.7401C8.43616 12.5229 8.5809 12.4144 8.63266 12.2813C8.678 12.1647 8.678 12.0354 8.63266 11.9188C8.5809 11.7857 8.43616 11.6772 8.14667 11.4601L4.28 8.56005C3.86802 8.25107 3.66203 8.09657 3.48961 8.10016C3.33956 8.10328 3.19885 8.17363 3.10632 8.2918C3 8.42759 3 8.68508 3 9.20005V15.0001Z" stroke="currentColor" stroke-width="2" stroke-linecap="round" stroke-linejoin="round"/>
</svg>
