<svg width="24" height="24" viewBox="0 0 24 24" fill="none" xmlns="http://www.w3.org/2000/svg">
<path opacity="0.4" d="M20.1315 10.8685C19.7354 11.2645 19.5374 11.4625 19.3091 11.5367C19.1083 11.6019 18.8919 11.6019 18.6911 11.5367C18.4627 11.4625 18.2647 11.2645 17.8687 10.8685L13.1315 6.13122C12.7354 5.7352 12.5374 5.53719 12.4633 5.30887C12.398 5.10802 12.398 4.89168 12.4633 4.69083C12.5374 4.4625 12.7354 4.2645 13.1315 3.86848L13.8687 3.13122C14.2647 2.7352 14.4627 2.53719 14.6911 2.46301C14.8919 2.39775 15.1083 2.39775 15.3091 2.46301C15.5374 2.53719 15.7354 2.7352 16.1315 3.13122L20.8687 7.86848C21.2647 8.2645 21.4627 8.4625 21.5369 8.69083C21.6022 8.89168 21.6022 9.10802 21.5369 9.30887C21.4627 9.53719 21.2647 9.7352 20.8687 10.1312L20.1315 10.8685Z" stroke="currentColor" stroke-width="2" stroke-linecap="round" stroke-linejoin="round"/>
<path d="M2 22L5.26028 8.49314C5.34714 8.13329 5.39057 7.95336 5.4846 7.80916C5.56772 7.68167 5.67886 7.57484 5.80952 7.4968C5.95733 7.40853 6.13883 7.37224 6.50182 7.29964L13 6L18 11L16.7004 17.4982C16.6278 17.8612 16.5915 18.0427 16.5032 18.1905C16.4252 18.3211 16.3183 18.4323 16.1908 18.5154C16.0466 18.6094 15.8667 18.6529 15.5069 18.7397L2 22ZM2 22L9.586 14.414M11 11C12.1046 11 13 11.8954 13 13C13 14.1046 12.1046 15 11 15C9.89543 15 9 14.1046 9 13C9 11.8954 9.89543 11 11 11Z" stroke="currentColor" stroke-width="2" stroke-linecap="round" stroke-linejoin="round"/>
</svg>
