<svg width="24" height="24" viewBox="0 0 24 24" fill="none" xmlns="http://www.w3.org/2000/svg">
<path opacity="0.4" d="M12 3V6M12 10.5V13.5M12 18V21" stroke="currentColor" stroke-width="2" stroke-linecap="round" stroke-linejoin="round"/>
<path d="M2 15.3755C2 15.8973 2 16.1582 2.10745 16.2944C2.20094 16.4129 2.34295 16.4829 2.49387 16.4847C2.66735 16.4868 2.87415 16.3278 3.28777 16.0096L7.67567 12.6343C7.95617 12.4185 8.09641 12.3106 8.14681 12.1791C8.19098 12.0639 8.19098 11.9364 8.14681 11.8212C8.09641 11.6897 7.95617 11.5818 7.67567 11.3661L3.28777 7.99077C2.87415 7.6726 2.66735 7.51352 2.49387 7.51565C2.34295 7.5175 2.20094 7.58742 2.10745 7.70592C2 7.84212 2 8.10304 2 8.62487V15.3755Z" stroke="currentColor" stroke-width="2" stroke-linecap="round" stroke-linejoin="round"/>
<path d="M22 15.3755C22 15.8973 22 16.1582 21.8925 16.2944C21.7991 16.4129 21.6571 16.4829 21.5061 16.4847C21.3327 16.4868 21.1258 16.3278 20.7122 16.0096L16.3243 12.6343C16.0438 12.4185 15.9036 12.3106 15.8532 12.1791C15.809 12.0639 15.809 11.9364 15.8532 11.8212C15.9036 11.6897 16.0438 11.5818 16.3243 11.3661L20.7122 7.99077C21.1258 7.6726 21.3327 7.51352 21.5061 7.51565C21.6571 7.5175 21.7991 7.58742 21.8925 7.70592C22 7.84212 22 8.10304 22 8.62487V15.3755Z" stroke="currentColor" stroke-width="2" stroke-linecap="round" stroke-linejoin="round"/>
</svg>
