<svg width="24" height="24" viewBox="0 0 24 24" fill="none" xmlns="http://www.w3.org/2000/svg">
<path opacity="0.4" d="M21 4H3M21 20H3M12 9.25H3M12 14.75H3" stroke="currentColor" stroke-width="2" stroke-linecap="round" stroke-linejoin="round"/>
<path d="M20.9999 14.9C20.9999 15.4149 20.9999 15.6724 20.8936 15.8082C20.8011 15.9264 20.6604 15.9967 20.5103 15.9998C20.3379 16.0034 20.1319 15.8489 19.7199 15.54L15.8533 12.64C15.5638 12.4228 15.419 12.3143 15.3673 12.1812C15.3219 12.0646 15.3219 11.9353 15.3673 11.8187C15.419 11.6856 15.5638 11.5771 15.8533 11.36L19.7199 8.45995C20.1319 8.15097 20.3379 7.99648 20.5103 8.00006C20.6604 8.00318 20.8011 8.07354 20.8936 8.1917C20.9999 8.32749 20.9999 8.58498 20.9999 9.09995V14.9Z" stroke="currentColor" stroke-width="2" stroke-linecap="round" stroke-linejoin="round"/>
</svg>
