<svg width="24" height="24" viewBox="0 0 24 24" fill="none" xmlns="http://www.w3.org/2000/svg">
<path opacity="0.4" d="M12 9.25H3M12 4L3 4M21 14.75H3M21 20H3" stroke="currentColor" stroke-width="2" stroke-linecap="round" stroke-linejoin="round"/>
<path d="M20.9999 9.39995C20.9999 9.91493 20.9999 10.1724 20.8936 10.3082C20.8011 10.4264 20.6604 10.4967 20.5103 10.4998C20.3379 10.5034 20.1319 10.3489 19.7199 10.04L15.8533 7.13995C15.5638 6.92283 15.419 6.81427 15.3673 6.68119C15.3219 6.56462 15.3219 6.43529 15.3673 6.31872C15.419 6.18563 15.5638 6.07707 15.8533 5.85995L19.7199 2.95995C20.1319 2.65097 20.3379 2.49648 20.5103 2.50006C20.6604 2.50318 20.8011 2.57354 20.8936 2.6917C20.9999 2.82749 20.9999 3.08498 20.9999 3.59995V9.39995Z" stroke="currentColor" stroke-width="2" stroke-linecap="round" stroke-linejoin="round"/>
</svg>
