<svg width="24" height="24" viewBox="0 0 24 24" fill="none" xmlns="http://www.w3.org/2000/svg">
<path opacity="0.4" d="M12 22C17.5228 22 22 17.5228 22 12C22 6.47715 17.5228 2 12 2C6.47715 2 2 6.47715 2 12C2 17.5228 6.47715 22 12 22Z" stroke="currentColor" stroke-width="2" stroke-linecap="round" stroke-linejoin="round"/>
<path d="M16.0001 8.50008C16.0001 12.6422 12.6422 16.0001 8.50008 16.0001C7.88541 16.0001 7.28802 15.9261 6.71631 15.7867C7.89593 17.4298 9.82301 18.5001 12.0001 18.5001C15.5899 18.5001 18.5001 15.5899 18.5001 12.0001C18.5001 9.82301 17.4298 7.89593 15.7867 6.71631C15.9261 7.28802 16.0001 7.88541 16.0001 8.50008Z" stroke="currentColor" stroke-width="2" stroke-linecap="round" stroke-linejoin="round"/>
</svg>
