<svg width="24" height="24" viewBox="0 0 24 24" fill="none" xmlns="http://www.w3.org/2000/svg">
<path opacity="0.4" d="M21 4H3M21 20H3M9 9.25H3M9 14.75H3" stroke="currentColor" stroke-width="2" stroke-linecap="round" stroke-linejoin="round"/>
<path d="M13 9.6C13 9.03995 13 8.75992 13.109 8.54601C13.2049 8.35785 13.3578 8.20487 13.546 8.10899C13.7599 8 14.0399 8 14.6 8H19.4C19.9601 8 20.2401 8 20.454 8.10899C20.6422 8.20487 20.7951 8.35785 20.891 8.54601C21 8.75992 21 9.03995 21 9.6V14.4C21 14.9601 21 15.2401 20.891 15.454C20.7951 15.6422 20.6422 15.7951 20.454 15.891C20.2401 16 19.9601 16 19.4 16H14.6C14.0399 16 13.7599 16 13.546 15.891C13.3578 15.7951 13.2049 15.6422 13.109 15.454C13 15.2401 13 14.9601 13 14.4V9.6Z" stroke="currentColor" stroke-width="2" stroke-linecap="round" stroke-linejoin="round"/>
</svg>
