<svg width="24" height="24" viewBox="0 0 24 24" fill="none" xmlns="http://www.w3.org/2000/svg">
<path opacity="0.4" d="M15.0104 3.5V2M18.9497 5.06066L20.0104 4M18.9497 13L20.0104 14.0607M11.0104 5.06066L9.94971 4M20.5104 9H22.0104" stroke="currentColor" stroke-width="2" stroke-linecap="round" stroke-linejoin="round"/>
<path d="M13.0001 13.9998L10.0001 10.9998M6.13146 20.8685L15.3687 11.6312C15.7647 11.2352 15.9627 11.0372 16.0369 10.8089C16.1022 10.608 16.1022 10.3917 16.0369 10.1908C15.9627 9.9625 15.7647 9.76449 15.3687 9.36848L14.6315 8.63122C14.2354 8.2352 14.0374 8.03719 13.8091 7.96301C13.6083 7.89775 13.3919 7.89775 13.1911 7.96301C12.9627 8.03719 12.7647 8.2352 12.3687 8.63122L3.13146 17.8685C2.73545 18.2645 2.53744 18.4625 2.46325 18.6908C2.39799 18.8917 2.39799 19.108 2.46325 19.3089C2.53744 19.5372 2.73545 19.7352 3.13146 20.1312L3.86872 20.8685C4.26474 21.2645 4.46275 21.4625 4.69108 21.5367C4.89192 21.6019 5.10827 21.6019 5.30911 21.5367C5.53744 21.4625 5.73545 21.2645 6.13146 20.8685Z" stroke="currentColor" stroke-width="2" stroke-linecap="round" stroke-linejoin="round"/>
</svg>
