<svg width="24" height="24" viewBox="0 0 24 24" fill="none" xmlns="http://www.w3.org/2000/svg">
<path opacity="0.4" d="M16 11L2 11M22 16C22 17.1046 21.1046 18 20 18C18.8954 18 18 17.1046 18 16C18 14.8954 20 13 20 13C20 13 22 14.8954 22 16Z" stroke="currentColor" stroke-width="2" stroke-linecap="round" stroke-linejoin="round"/>
<path d="M9.99994 4L7.99994 2M13.9999 22L1.99994 22M8.99994 3L15.8686 9.86863C16.2646 10.2646 16.4626 10.4627 16.5368 10.691C16.602 10.8918 16.602 11.1082 16.5368 11.309C16.4626 11.5373 16.2646 11.7354 15.8686 12.1314L11.2627 16.7373C10.4706 17.5293 10.0746 17.9253 9.61798 18.0737C9.21629 18.2042 8.78359 18.2042 8.38191 18.0737C7.92525 17.9253 7.52923 17.5293 6.7372 16.7373L3.26268 13.2627C2.47065 12.4707 2.07463 12.0747 1.92626 11.618C1.79574 11.2163 1.79574 10.7837 1.92626 10.382C2.07463 9.92531 2.47065 9.52929 3.26268 8.73726L8.99994 3Z" stroke="currentColor" stroke-width="2" stroke-linecap="round" stroke-linejoin="round"/>
</svg>
