<svg width="24" height="24" viewBox="0 0 24 24" fill="none" xmlns="http://www.w3.org/2000/svg">
<path opacity="0.4" d="M13.1315 20.1312C12.7354 19.7352 12.5374 19.5372 12.4633 19.3089C12.398 19.108 12.398 18.8917 12.4633 18.6908C12.5374 18.4625 12.7354 18.2645 13.1315 17.8685L17.8687 13.1312C18.2647 12.7352 18.4627 12.5372 18.6911 12.463C18.8919 12.3977 19.1083 12.3977 19.3091 12.463C19.5374 12.5372 19.7354 12.7352 20.1315 13.1312L20.8687 13.8685C21.2647 14.2645 21.4627 14.4625 21.5369 14.6908C21.6022 14.8917 21.6022 15.108 21.5369 15.3089C21.4627 15.5372 21.2647 15.7352 20.8687 16.1312L16.1315 20.8685C15.7354 21.2645 15.5374 21.4625 15.3091 21.5367C15.1083 21.6019 14.8919 21.6019 14.6911 21.5367C14.4627 21.4625 14.2647 21.2645 13.8687 20.8685L13.1315 20.1312Z" stroke="currentColor" stroke-width="2" stroke-linecap="round" stroke-linejoin="round"/>
<path d="M2 2L15.5069 5.26028C15.8667 5.34714 16.0466 5.39057 16.1908 5.4846C16.3183 5.56773 16.4252 5.67886 16.5032 5.80953C16.5915 5.95733 16.6278 6.13883 16.7004 6.50182L18 13L13 18L6.50182 16.7004C6.13883 16.6278 5.95733 16.5915 5.80953 16.5032C5.67886 16.4252 5.56773 16.3183 5.4846 16.1908C5.39057 16.0466 5.34714 15.8667 5.26028 15.5069L2 2ZM2 2L9.586 9.586M13 11C13 12.1046 12.1046 13 11 13C9.89543 13 9 12.1046 9 11C9 9.89543 9.89543 9 11 9C12.1046 9 13 9.89543 13 11Z" stroke="currentColor" stroke-width="2" stroke-linecap="round" stroke-linejoin="round"/>
</svg>
