<svg width="24" height="24" viewBox="0 0 24 24" fill="none" xmlns="http://www.w3.org/2000/svg">
<path opacity="0.4" d="M4.55809 16.1488C4.70537 15.7659 4.77901 15.5745 4.90531 15.4868C5.01569 15.4101 5.15228 15.3811 5.28427 15.4063C5.43531 15.4352 5.58036 15.5802 5.87046 15.8703L8.12955 18.1294C8.41965 18.4195 8.56469 18.5646 8.59354 18.7156C8.61874 18.8476 8.58976 18.9842 8.51312 19.0946C8.42542 19.2209 8.23396 19.2945 7.85104 19.4418L2.5 21.4999L4.55809 16.1488Z" stroke="currentColor" stroke-width="2" stroke-linecap="round" stroke-linejoin="round"/>
<path d="M4.63433 15.9506C4.77085 15.5956 4.83911 15.4181 4.92823 15.2521C5.0074 15.1046 5.09877 14.964 5.20139 14.8318C5.31692 14.6829 5.45138 14.5484 5.72028 14.2795L17 2.99981C18.1046 1.89524 19.8955 1.89525 21 2.99981C22.1046 4.10438 22.1046 5.89525 21 6.99982L9.72028 18.2795C9.45137 18.5484 9.31692 18.6829 9.16804 18.7984C9.0358 18.901 8.8952 18.9924 8.74772 19.0716C8.58168 19.1607 8.40421 19.229 8.04927 19.3655L2.5 21.4998L4.63433 15.9506Z" stroke="currentColor" stroke-width="2" stroke-linecap="round" stroke-linejoin="round"/>
</svg>
