<svg width="24" height="24" viewBox="0 0 24 24" fill="none" xmlns="http://www.w3.org/2000/svg">
<path opacity="0.4" d="M18 2L22 6" stroke="currentColor" stroke-width="2" stroke-linecap="round" stroke-linejoin="round"/>
<path d="M6.68014 20.7235C6.98548 20.6402 7.13815 20.5986 7.28052 20.5347C7.40692 20.4779 7.52709 20.4082 7.63908 20.3266C7.76521 20.2347 7.87711 20.1228 8.1009 19.899L18.4343 9.56561C18.6323 9.3676 18.7313 9.2686 18.7684 9.15443C18.8011 9.05401 18.8011 8.94584 18.7684 8.84542C18.7313 8.73125 18.6323 8.63225 18.4343 8.43424L15.5657 5.56561C15.3677 5.3676 15.2687 5.2686 15.1545 5.2315C15.0541 5.19887 14.9459 5.19887 14.8455 5.2315C14.7313 5.2686 14.6323 5.3676 14.4343 5.56561L4.1009 15.899C3.87711 16.1228 3.76521 16.2347 3.67332 16.3608C3.59172 16.4728 3.52199 16.593 3.46523 16.7194C3.40131 16.8618 3.35968 17.0144 3.2764 17.3198L2 21.9999L6.68014 20.7235Z" stroke="currentColor" stroke-width="2" stroke-linecap="round" stroke-linejoin="round"/>
</svg>
