<svg width="24" height="24" viewBox="0 0 24 24" fill="none" xmlns="http://www.w3.org/2000/svg">
<path opacity="0.4" d="M12 15V14.2C12 13.0799 12 12.5198 12.218 12.092C12.4097 11.7157 12.7157 11.4097 13.092 11.218C13.5198 11 14.0799 11 15.2 11H18.8C19.9201 11 20.4802 11 20.908 10.782C21.2843 10.5903 21.5903 10.2843 21.782 9.90798C22 9.48016 22 8.9201 22 7.8V7.5C22 6.56812 22 6.10218 21.8478 5.73463C21.6448 5.24458 21.2554 4.85523 20.7654 4.65224C20.3978 4.5 19.9319 4.5 19 4.5" stroke="currentColor" stroke-width="2" stroke-linecap="round" stroke-linejoin="round"/>
<path d="M3 4.5C3 4.03534 3 3.80302 3.03843 3.60982C3.19624 2.81644 3.81644 2.19624 4.60982 2.03843C4.80302 2 5.03534 2 5.5 2H16.5C16.9647 2 17.197 2 17.3902 2.03843C18.1836 2.19624 18.8038 2.81644 18.9616 3.60982C19 3.80302 19 4.03534 19 4.5C19 4.96466 19 5.19698 18.9616 5.39018C18.8038 6.18356 18.1836 6.80376 17.3902 6.96157C17.197 7 16.9647 7 16.5 7H5.5C5.03534 7 4.80302 7 4.60982 6.96157C3.81644 6.80376 3.19624 6.18356 3.03843 5.39018C3 5.19698 3 4.96466 3 4.5Z" stroke="currentColor" stroke-width="2" stroke-linecap="round" stroke-linejoin="round"/>
<path d="M10 16.6C10 16.0399 10 15.7599 10.109 15.546C10.2049 15.3578 10.3578 15.2049 10.546 15.109C10.7599 15 11.0399 15 11.6 15H12.4C12.9601 15 13.2401 15 13.454 15.109C13.6422 15.2049 13.7951 15.3578 13.891 15.546C14 15.7599 14 16.0399 14 16.6V20.4C14 20.9601 14 21.2401 13.891 21.454C13.7951 21.6422 13.6422 21.7951 13.454 21.891C13.2401 22 12.9601 22 12.4 22H11.6C11.0399 22 10.7599 22 10.546 21.891C10.3578 21.7951 10.2049 21.6422 10.109 21.454C10 21.2401 10 20.9601 10 20.4V16.6Z" stroke="currentColor" stroke-width="2" stroke-linecap="round" stroke-linejoin="round"/>
</svg>
