<svg width="24" height="24" viewBox="0 0 24 24" fill="none" xmlns="http://www.w3.org/2000/svg">
<path opacity="0.4" d="M19.7142 6.9999L18.2856 16.9999M6.14289 7L4.35718 17M18 5L8.00003 5M16 19L6.00003 19" stroke="currentColor" stroke-width="2" stroke-linecap="round" stroke-linejoin="round"/>
<path d="M4 4.6C4 4.03995 4 3.75992 4.10899 3.54601C4.20487 3.35785 4.35785 3.20487 4.54601 3.10899C4.75992 3 5.03995 3 5.6 3H6.4C6.96005 3 7.24008 3 7.45399 3.10899C7.64215 3.20487 7.79513 3.35785 7.89101 3.54601C8 3.75992 8 4.03995 8 4.6V5.4C8 5.96005 8 6.24008 7.89101 6.45399C7.79513 6.64215 7.64215 6.79513 7.45399 6.89101C7.24008 7 6.96005 7 6.4 7H5.6C5.03995 7 4.75992 7 4.54601 6.89101C4.35785 6.79513 4.20487 6.64215 4.10899 6.45399C4 6.24008 4 5.96005 4 5.4V4.6Z" stroke="currentColor" stroke-width="2" stroke-linecap="round" stroke-linejoin="round"/>
<path d="M2 18.6C2 18.0399 2 17.7599 2.10899 17.546C2.20487 17.3578 2.35785 17.2049 2.54601 17.109C2.75992 17 3.03995 17 3.6 17H4.4C4.96005 17 5.24008 17 5.45399 17.109C5.64215 17.2049 5.79513 17.3578 5.89101 17.546C6 17.7599 6 18.0399 6 18.6V19.4C6 19.9601 6 20.2401 5.89101 20.454C5.79513 20.6422 5.64215 20.7951 5.45399 20.891C5.24008 21 4.96005 21 4.4 21H3.6C3.03995 21 2.75992 21 2.54601 20.891C2.35785 20.7951 2.20487 20.6422 2.10899 20.454C2 20.2401 2 19.9601 2 19.4V18.6Z" stroke="currentColor" stroke-width="2" stroke-linecap="round" stroke-linejoin="round"/>
<path d="M18 4.6C18 4.03995 18 3.75992 18.109 3.54601C18.2049 3.35785 18.3578 3.20487 18.546 3.10899C18.7599 3 19.0399 3 19.6 3H20.4C20.9601 3 21.2401 3 21.454 3.10899C21.6422 3.20487 21.7951 3.35785 21.891 3.54601C22 3.75992 22 4.03995 22 4.6V5.4C22 5.96005 22 6.24008 21.891 6.45399C21.7951 6.64215 21.6422 6.79513 21.454 6.89101C21.2401 7 20.9601 7 20.4 7H19.6C19.0399 7 18.7599 7 18.546 6.89101C18.3578 6.79513 18.2049 6.64215 18.109 6.45399C18 6.24008 18 5.96005 18 5.4V4.6Z" stroke="currentColor" stroke-width="2" stroke-linecap="round" stroke-linejoin="round"/>
<path d="M16 18.6C16 18.0399 16 17.7599 16.109 17.546C16.2049 17.3578 16.3578 17.2049 16.546 17.109C16.7599 17 17.0399 17 17.6 17H18.4C18.9601 17 19.2401 17 19.454 17.109C19.6422 17.2049 19.7951 17.3578 19.891 17.546C20 17.7599 20 18.0399 20 18.6V19.4C20 19.9601 20 20.2401 19.891 20.454C19.7951 20.6422 19.6422 20.7951 19.454 20.891C19.2401 21 18.9601 21 18.4 21H17.6C17.0399 21 16.7599 21 16.546 20.891C16.3578 20.7951 16.2049 20.6422 16.109 20.454C16 20.2401 16 19.9601 16 19.4V18.6Z" stroke="currentColor" stroke-width="2" stroke-linecap="round" stroke-linejoin="round"/>
</svg>
