<svg width="16" height="16" viewBox="0 0 16 16" fill="none" xmlns="http://www.w3.org/2000/svg">
<rect opacity="0.12" x="2" y="8" width="12" height="6" fill="currentColor"/>
<path d="M12.6667 7.33333H3.33333M12.6667 7.33333C13.4031 7.33333 14 7.93027 14 8.66667V12.6667C14 13.4031 13.4031 14 12.6667 14H3.33333C2.59695 14 2 13.4031 2 12.6667V8.66667C2 7.93027 2.59695 7.33333 3.33333 7.33333M12.6667 7.33333V6C12.6667 5.26362 12.0697 4.66667 11.3333 4.66667M3.33333 7.33333V6C3.33333 5.26362 3.93029 4.66667 4.66667 4.66667M11.3333 4.66667V3.33333C11.3333 2.59695 10.7364 2 10 2H6C5.26362 2 4.66667 2.59695 4.66667 3.33333V4.66667M11.3333 4.66667H4.66667" stroke="currentColor" stroke-width="1.5" stroke-linecap="round" stroke-linejoin="round"/>
</svg>
