<svg width="64" height="54" viewBox="0 0 64 54" fill="none" xmlns="http://www.w3.org/2000/svg">
<path opacity="0.2" d="M38 46.108C50.7025 46.108 61 35.8106 61 23.108C61 10.4055 50.7025 0.108002 38 0.108002C25.2975 0.108002 15 10.4055 15 23.108C15 35.8106 25.2975 46.108 38 46.108Z" fill="black" fill-opacity="0.8"/>
<path d="M24.6974 11.3504C25.2878 11.3504 25.7665 10.8718 25.7665 10.2813C25.7665 9.69086 25.2878 9.2122 24.6974 9.2122C24.1069 9.2122 23.6283 9.69086 23.6283 10.2813C23.6283 10.8718 24.1069 11.3504 24.6974 11.3504Z" fill="#4C241D"/>
<path d="M55.4661 17.892L52.2841 21.074" stroke="#4C241D" stroke-width="2" stroke-linecap="round" stroke-linejoin="round"/>
<path d="M52.2841 17.892L55.4661 21.074" stroke="#4C241D" stroke-width="2" stroke-linecap="round" stroke-linejoin="round"/>
<path d="M43.5 18C44.6046 18 45.5 17.1046 45.5 16C45.5 14.8954 44.6046 14 43.5 14C42.3954 14 41.5 14.8954 41.5 16C41.5 17.1046 42.3954 18 43.5 18Z" stroke="#4C241D" stroke-width="2" stroke-linecap="round" stroke-linejoin="round"/>
<path d="M19.498 34.0866C20.3584 32.3279 20.6218 30.3365 20.248 28.4145C19.8742 26.4926 18.8836 24.7451 17.4267 23.4371C15.9697 22.1291 14.1259 21.332 12.1749 21.1669C10.2239 21.0017 8.27233 21.4775 6.61624 22.522C4.96015 23.5664 3.68995 25.1226 2.99839 26.9543C2.30683 28.7861 2.23165 30.7934 2.78426 32.6718C3.33687 34.5501 4.4871 36.1969 6.06043 37.3623C7.63375 38.5278 9.5443 39.1482 11.5022 39.1294C10.6417 40.8881 10.3783 42.8795 10.7521 44.8015C11.1259 46.7234 12.1165 48.471 13.5734 49.7789C15.0304 51.0869 16.8742 51.884 18.8252 52.0491C20.7762 52.2143 22.7278 51.7385 24.3839 50.6941C26.04 49.6496 27.3102 48.0934 28.0017 46.2617C28.6933 44.4299 28.7685 42.4226 28.2158 40.5443C27.6632 38.6659 26.513 37.0191 24.9397 35.8537C23.3664 34.6883 21.4558 34.0679 19.498 34.0866Z" fill="#BF7E68" stroke="#4C241D" stroke-width="2" stroke-linecap="round" stroke-linejoin="round"/>
<path d="M8.207 21.7314C7.2612 22.095 6.38388 22.6164 5.6123 23.2732C5.6623 23.4277 5.7032 23.5832 5.7623 23.7367C6.27307 25.0813 7.09929 26.2835 8.17147 27.2422C9.24364 28.2009 10.5304 28.8881 11.9235 29.2459C13.3166 29.6037 14.7752 29.6218 16.1767 29.2984C17.5782 28.9751 18.8815 28.3199 19.977 27.3879C19.927 27.2333 19.8861 27.0779 19.827 26.9243C18.9747 24.6948 17.2716 22.8952 15.0924 21.9214C12.9133 20.9475 10.4365 20.8792 8.207 21.7314Z" fill="white" stroke="#4C241D" stroke-width="2" stroke-linecap="round" stroke-linejoin="round"/>
<path d="M13.64 36.3127C12.2596 37.5255 11.2833 39.1317 10.8423 40.9155C10.4013 42.6993 10.5166 44.5753 11.1728 46.2917" stroke="#4C241D" stroke-width="2" stroke-linecap="round" stroke-linejoin="round"/>
<path d="M39.0344 35.0727C37.8244 35.8095 36.8085 36.8254 36.0718 38.0353C35.6762 37.848 35.3227 37.5825 35.0325 37.255C34.7422 36.9274 34.5213 36.5446 34.3829 36.1294C34.2445 35.7142 34.1915 35.2753 34.2272 34.8391C34.2628 34.4029 34.3864 33.9785 34.5904 33.5913C34.8506 33.066 35.0768 32.5245 35.2674 31.9701C41.2541 31.1458 41.2564 26.9253 41.2564 26.9253L35.4244 25.1753C35.2185 24.7258 34.9363 24.3154 34.5904 23.9623L31.6278 21L28.6651 32.11C25.2279 32.853 22.1156 34.6685 19.7771 37.2947C15.2124 42.9058 13.4908 52.108 24.9618 52.108H33.1091V49.886L30.5001 48C32.6589 47.5245 34.5901 45.892 34.5901 43.59C34.5888 43.2157 34.5438 42.8429 34.4561 42.479H37.5531L41.2564 36.5537H43.4784C43.4784 36.5537 41.2564 33.5913 39.0344 35.0727Z" fill="#BF7E68" stroke="#4C241D" stroke-width="2" stroke-linecap="round" stroke-linejoin="round"/>
<path d="M34.5 29C35.0523 29 35.5 28.5523 35.5 28C35.5 27.4477 35.0523 27 34.5 27C33.9477 27 33.5 27.4477 33.5 28C33.5 28.5523 33.9477 29 34.5 29Z" fill="#4C241D"/>
<path d="M1 52.108H58" stroke="#4C241D" stroke-width="2" stroke-linecap="round" stroke-linejoin="round"/>
<path d="M26.5 42C27.2956 42 28.0587 42.3161 28.6213 42.8787C29.1839 43.4413 29.5 44.2044 29.5 45C29.5 45.7956 29.1839 46.5587 28.6213 47.1213C28.0587 47.6839 27.2956 48 26.5 48H30.5" stroke="#4C241D" stroke-width="2" stroke-linecap="round" stroke-linejoin="round"/>
<rect x="43.75" y="30.2501" width="19.5" height="19.5" rx="9.75" fill="#FAA330"/>
<g clip-path="url(#clip0_4642_10573)">
<path d="M54.0833 34.1668L48.8879 40.4014C48.6844 40.6455 48.5826 40.7676 48.5811 40.8707C48.5797 40.9603 48.6197 41.0456 48.6894 41.102C48.7696 41.1668 48.9285 41.1668 49.2464 41.1668H53.5L52.9167 45.8334L58.1121 39.5988C58.3156 39.3547 58.4173 39.2326 58.4189 39.1295C58.4203 39.0399 58.3804 38.9546 58.3106 38.8982C58.2304 38.8334 58.0715 38.8334 57.7537 38.8334H53.5L54.0833 34.1668Z" fill="white" stroke="#FAFAFA" stroke-width="1.05" stroke-linecap="round" stroke-linejoin="round"/>
</g>
<rect x="43.75" y="30.2501" width="19.5" height="19.5" rx="9.75" stroke="#4C241D" stroke-width="1.5"/>
<defs>
<clipPath id="clip0_4642_10573">
<rect width="14" height="14" fill="white" transform="translate(46.5 33.0001)"/>
</clipPath>
</defs>
</svg>
