<svg width="10" height="10" viewBox="0 0 10 10" fill="none" xmlns="http://www.w3.org/2000/svg">
<g clip-path="url(#clip0_4771_51153)">
<path d="M5 7.5L5 2.5M3.125 8.75L3.125 1.25M1.25 5.83333L1.25 4.16667" stroke="currentColor" stroke-width="0.9375" stroke-linecap="round" stroke-linejoin="round"/>
<path d="M8.29036 3.25411C8.27139 3.17823 8.20322 3.125 8.125 3.125C8.04678 3.125 7.9786 3.17823 7.95964 3.25411L7.73779 4.1415C7.69159 4.32627 7.67604 4.37978 7.64956 4.42115C7.62298 4.4627 7.5877 4.49798 7.54615 4.52456C7.50478 4.55104 7.45127 4.56659 7.2665 4.61279L6.37911 4.83464C6.30323 4.8536 6.25 4.92178 6.25 5C6.25 5.07822 6.30323 5.1464 6.37911 5.16536L7.2665 5.3872C7.45127 5.4334 7.50478 5.44896 7.54615 5.47543C7.5877 5.50202 7.62298 5.53731 7.64956 5.57885C7.67604 5.62021 7.69159 5.67372 7.73779 5.85849L7.95964 6.74588C7.97861 6.82177 8.04678 6.875 8.125 6.875C8.20322 6.875 8.2714 6.82177 8.29036 6.74588L8.5122 5.85849C8.5584 5.67372 8.57396 5.62021 8.60043 5.57885C8.62702 5.53731 8.66231 5.50202 8.70385 5.47543C8.74521 5.44896 8.79872 5.4334 8.98349 5.3872L9.87088 5.16536C9.94677 5.1464 10 5.07822 10 5C10 4.92178 9.94677 4.8536 9.87088 4.83464L8.98349 4.61279C8.79872 4.56659 8.74521 4.55104 8.70385 4.52456C8.66231 4.49798 8.62702 4.4627 8.60043 4.42115C8.57396 4.37978 8.5584 4.32627 8.5122 4.1415L8.29036 3.25411Z" fill="currentColor"/>
</g>
<defs>
<clipPath id="clip0_4771_51153">
<rect width="10" height="10" fill="white" transform="translate(10 10) rotate(-180)"/>
</clipPath>
</defs>
</svg>
