<svg width="16" height="16" viewBox="0 0 16 16" fill="none" xmlns="http://www.w3.org/2000/svg">
<path fill-rule="evenodd" clip-rule="evenodd" d="M13.8629 11.3168C14.0552 11.0324 14.4339 10.9586 14.7253 11.149C15.0118 11.3515 15.0841 11.7323 14.8949 12.0196L13.5055 14.0706C13.3867 14.2403 13.1873 14.3444 12.9842 14.3444C12.7846 14.3444 12.5874 14.2403 12.4701 14.0731L11.0806 12.0215C10.8902 11.7318 10.9627 11.351 11.2443 11.1524C11.5366 10.961 11.9174 11.0329 12.1158 11.3144L12.3667 11.688V5.4533C12.3667 4.23665 11.3742 3.24655 10.1539 3.24655H7.41047C7.06075 3.24655 6.78696 2.97275 6.78696 2.62327C6.78696 2.27958 7.06677 2 7.41047 2H10.1539C12.0615 2 13.6135 3.54926 13.6135 5.4533V11.6829L13.8629 11.3168ZM5.85166 13.0979H8.5893C8.93878 13.0979 9.21257 13.3717 9.21257 13.7212C9.21257 14.0649 8.93299 14.3444 8.5893 14.3444H5.85166C3.94087 14.3444 2.38606 12.7952 2.38606 10.8911V4.66718L2.1436 5.0272C2.01755 5.20314 1.82835 5.30147 1.62156 5.30147C1.50876 5.30147 1.38704 5.26484 1.27835 5.19784C0.987922 4.99298 0.915618 4.61216 1.10482 4.32487L2.50007 2.27333C2.60588 2.11282 2.79628 2.01497 3.00789 2.01304C3.22674 2.00243 3.41858 2.10848 3.5309 2.27333L4.91916 4.32294C5.10957 4.61264 5.03702 4.99345 4.75551 5.19205C4.46051 5.38631 4.08139 5.31256 3.88809 5.02768L3.63309 4.64916V10.8911C3.63309 12.1078 4.62825 13.0979 5.85166 13.0979Z" fill="currentColor"/>
</svg>
