<svg width="16" height="16" viewBox="0 0 16 16" fill="none" xmlns="http://www.w3.org/2000/svg">
<g clip-path="url(#clip0_1075_5596)">
<path d="M3.5001 7.49999C2.69291 7.04348 1.58265 7.26425 1.2717 7.88768C0.516484 9.47729 1.17572 13.6456 3.00012 13.5C3.27315 13.4591 3.82353 13.2523 4.0001 13" stroke="currentColor" stroke-width="1.5" stroke-linecap="round" stroke-linejoin="round"/>
<path d="M5.40918 6.39079C6.30716 5.44341 6.64106 4.24425 6.15519 2.24027C5.7786 0.687003 8.47155 0.960188 8.32014 3.26293C8.18711 5.286 8.32631 5.5892 8.32631 5.5892" stroke="currentColor" stroke-width="1.5" stroke-linecap="round" stroke-linejoin="round"/>
<path d="M8 6.5L10.047 5.31344C10.351 5.25771 10.6649 5.3114 10.9331 5.46499C11.8063 5.96583 13.8707 7.08875 12.8611 8.58544M11.2973 7.57656C11.2973 7.57656 14.2384 9.16019 12.4609 10.4137M12.1472 12.3117C13.9247 11.0582 10.9836 9.47459 10.9836 9.47459" stroke="currentColor" stroke-width="1.5" stroke-linecap="round" stroke-linejoin="round"/>
<path d="M10.6478 11.372C10.6478 11.372 11.1751 11.9332 13.1328 12.7361C13.1328 12.7361 14.8159 13.1851 14.3609 14.2125C14.0823 14.8416 13.4661 14.9672 11.7621 14.2332C10.0582 13.4991 9.11636 13.0157 8.52874 13.0972C7.94112 13.1788 4.98674 14.2067 3.86364 12.5777C2.74054 10.9486 2.90947 8.08991 4.64884 6.99528C4.92643 6.82632 5.18172 6.6232 5.40873 6.39069" stroke="currentColor" stroke-width="1.5" stroke-linecap="round" stroke-linejoin="round"/>
</g>
<defs>
<clipPath id="clip0_1075_5596">
<rect width="16" height="16" fill="currentColor"/>
</clipPath>
</defs>
</svg>
