<svg width="14" height="15" viewBox="0 0 14 15" fill="none" xmlns="http://www.w3.org/2000/svg">
<rect x="3.5" y="4" width="7" height="7" rx="3.5" fill="#2E3133"/>
<path fill-rule="evenodd" clip-rule="evenodd" d="M1.18496 7.50004C1.18479 7.42199 1.16946 7.344 1.13896 7.2705L0.718124 6.25156C0.629213 6.03697 0.583287 5.80662 0.583252 5.57434C0.583215 5.34193 0.628974 5.11179 0.717909 4.89707C0.806844 4.68235 0.937219 4.48726 1.10158 4.32295C1.2659 4.15867 1.46096 4.02838 1.67564 3.93951L2.69294 3.51811C2.84026 3.4572 2.95777 3.34022 3.01911 3.19305L3.44059 2.17546C3.62013 1.74199 3.96451 1.39759 4.39798 1.21804C4.83144 1.03849 5.31848 1.03849 5.75194 1.21804L6.76874 1.63923C6.91633 1.70015 7.08217 1.70007 7.22963 1.63889L7.2308 1.63841L8.24849 1.21866C8.68178 1.03935 9.16893 1.03929 9.60223 1.21876C10.0356 1.39828 10.3799 1.74258 10.5595 2.17593L10.9708 3.16909C10.9745 3.17693 10.978 3.18489 10.9813 3.19295C11.0423 3.34043 11.1593 3.45768 11.3067 3.51897L12.3245 3.9406C12.758 4.12016 13.1024 4.46455 13.282 4.89802C13.4614 5.33148 13.4614 5.81852 13.282 6.25199L12.8606 7.26933C12.8299 7.34318 12.8146 7.42193 12.8146 7.50022C12.8146 7.5785 12.8299 7.6569 12.8606 7.73075L13.282 8.74808C13.4614 9.18156 13.4614 9.66858 13.282 10.1021C13.1024 10.5355 12.758 10.8799 12.3245 11.0595L11.3067 11.4811C11.1593 11.5424 11.0423 11.6597 10.9813 11.8071C10.978 11.8152 10.9745 11.8231 10.9708 11.831L10.5595 12.8241C10.3799 13.2575 10.0356 13.6018 9.60223 13.7813C9.16893 13.9608 8.68178 13.9608 8.24849 13.7814L7.2308 13.3617L7.22963 13.3612C7.08217 13.3 6.91633 13.2999 6.76874 13.3608L5.75194 13.782C5.31848 13.9616 4.83144 13.9616 4.39798 13.782C3.96451 13.6025 3.62013 13.2581 3.44059 12.8246L3.01911 11.807C2.95777 11.6599 2.84026 11.5429 2.69294 11.482L1.67564 11.0606C1.46096 10.9717 1.2659 10.8414 1.10158 10.6772C0.937219 10.5128 0.806844 10.3177 0.717909 10.103C0.628974 9.88827 0.583215 9.65814 0.583252 9.42574C0.583287 9.19346 0.629213 8.9631 0.718124 8.74849L1.13896 7.72958C1.16946 7.65608 1.18479 7.57809 1.18496 7.50004ZM9.45406 6.45418C9.68185 6.22638 9.68185 5.85704 9.45406 5.62923C9.22627 5.40142 8.8569 5.40142 8.62911 5.62923L6.41658 7.84176L5.6624 7.08757C5.43459 6.85977 5.06525 6.85977 4.83744 7.08757C4.60963 7.31536 4.60963 7.68472 4.83744 7.91252L6.00411 9.07918C6.2319 9.30697 6.60127 9.30697 6.82906 9.07918L9.45406 6.45418Z" fill="url(#paint0_linear_1675_29533)"/>
<defs>
<linearGradient id="paint0_linear_1675_29533" x1="13.4166" y1="1.08337" x2="5.30859" y2="16.4156" gradientUnits="userSpaceOnUse">
<stop stop-color="#A6E3F6"/>
<stop offset="1" stop-color="#49D6CD"/>
</linearGradient>
</defs>
</svg>
