<svg width="24" height="24" viewBox="0 0 24 24" fill="none" xmlns="http://www.w3.org/2000/svg">
<path opacity="0.12" d="M10.6276 13.8279L13.2557 20.5859C13.4872 21.1812 13.603 21.4789 13.7698 21.5658C13.9144 21.6411 14.0866 21.6412 14.2313 21.5661C14.3982 21.4794 14.5143 21.1818 14.7466 20.5868L14.7466 20.5867L16.3861 16.3853L7.61797 7.6123L3.41307 9.25324C2.81799 9.48547 2.52045 9.60158 2.43375 9.76848C2.35858 9.91317 2.35868 10.0854 2.43402 10.23C2.52092 10.3968 2.8186 10.5126 3.41394 10.7441L10.1719 13.3722L10.1719 13.3722C10.2928 13.4192 10.3532 13.4427 10.4041 13.479C10.4492 13.5112 10.4886 13.5506 10.5208 13.5957C10.5571 13.6466 10.5806 13.707 10.6276 13.8279Z" fill="currentColor"/>
<path d="M11.3375 6.16115L20.3008 2.66327C20.838 2.45364 21.1066 2.34883 21.2782 2.40616C21.4273 2.45596 21.5442 2.57292 21.594 2.72197C21.6514 2.8936 21.5465 3.16219 21.3369 3.69937L17.8278 12.6913M16.3861 16.3857L14.7466 20.5871C14.5143 21.1822 14.3982 21.4797 14.2313 21.5664C14.0866 21.6416 13.9144 21.6415 13.7698 21.5662C13.603 21.4793 13.4872 21.1816 13.2557 20.5862L10.6276 13.8282C10.5806 13.7074 10.5571 13.647 10.5208 13.5961C10.4886 13.551 10.4492 13.5115 10.4041 13.4794C10.3532 13.4431 10.2928 13.4196 10.1719 13.3726L3.41394 10.7445C2.8186 10.513 2.52092 10.3972 2.43402 10.2304C2.35868 10.0858 2.35858 9.91354 2.43375 9.76885C2.52045 9.60195 2.81799 9.48584 3.41307 9.25361L7.61797 7.61268M21 21.0002L3.00001 3.00017" stroke="currentColor" stroke-width="2" stroke-linecap="round" stroke-linejoin="round"/>
</svg>
