<svg width="24" height="24" viewBox="0 0 24 24" fill="none" xmlns="http://www.w3.org/2000/svg">
<g opacity="0.12">
<path d="M9.24755 7.90372C9.20591 7.88302 9.16282 7.86522 9.11859 7.85047L6.38022 6.93768C6.04914 6.82732 5.68447 6.89755 5.41805 7.12298L2.56089 9.54058C1.97597 10.0355 2.14215 10.9774 2.86113 11.2423L5.2868 12.136C5.3836 12.1716 5.48479 12.1919 5.58676 12.1966C5.7926 11.7305 6.0789 11.2909 6.446 10.8985L9.24755 7.90372Z" fill="currentColor"/>
<path d="M11.7128 18.3386C11.7206 18.4257 11.7399 18.5117 11.7704 18.5945L12.6786 21.0596C12.9435 21.7786 13.8854 21.9448 14.3803 21.3599L16.7979 18.5027C17.0234 18.2363 17.0936 17.8716 16.9832 17.5406L16.1601 15.071C16.1171 14.9422 16.0489 14.8249 15.9609 14.7252L13.0221 17.4744C12.6265 17.8445 12.183 18.1324 11.7128 18.3386Z" fill="currentColor"/>
<path d="M17.5009 6.3934C16.861 5.7535 16.0604 5.05452 15.2622 4.42277C14.7339 4.00462 14.4697 3.79555 14.4323 3.61921C14.3985 3.46027 14.437 3.31094 14.5433 3.1881C14.6613 3.05181 14.9832 2.99817 15.6268 2.89089L19.3484 2.27063C20.702 2.04503 21.8756 3.21858 21.65 4.57222L21.0306 8.28867C20.9229 8.93469 20.8691 9.2577 20.7328 9.37568C20.6099 9.48214 20.461 9.52059 20.3019 9.48692C20.1257 9.4496 19.9154 9.18446 19.495 8.65418C18.8563 7.84871 18.1484 7.04084 17.5009 6.3934Z" fill="currentColor"/>
</g>
<path d="M12.9999 10.9999L3.49989 20.4999M14.0183 3.53838C15.2363 4.34658 16.407 5.29941 17.501 6.3934C18.6045 7.49683 19.5643 8.67831 20.3769 9.90766M9.25485 7.89605L6.37998 6.93776C6.04889 6.8274 5.68422 6.89763 5.41781 7.12306L2.56065 9.54065C1.97572 10.0356 2.1419 10.9775 2.86089 11.2424L5.56808 12.2398M11.6809 18.3524L12.6783 21.0596C12.9432 21.7786 13.8851 21.9448 14.38 21.3599L16.7976 18.5027C17.0231 18.2363 17.0933 17.8716 16.9829 17.5405L16.0247 14.6657M19.3485 2.27063L14.442 3.08838C13.9122 3.17668 13.4262 3.43709 13.0593 3.82932L6.44625 10.8985C4.73209 12.7308 4.77977 15.5924 6.55402 17.3667C8.32827 19.1409 11.1898 19.1886 13.0222 17.4744L20.0914 10.8614C20.4836 10.4944 20.744 10.0085 20.8323 9.47869L21.6501 4.57222C21.8757 3.21858 20.7021 2.04503 19.3485 2.27063Z" stroke="currentColor" stroke-width="2" stroke-linecap="round" stroke-linejoin="round"/>
</svg>
