<svg width="24" height="24" viewBox="0 0 24 24" fill="none" xmlns="http://www.w3.org/2000/svg">
<path opacity="0.12" d="M2 19C2 18.0681 2 17.6022 2.15224 17.2346C2.35523 16.7446 2.74458 16.3552 3.23463 16.1522C3.60218 16 4.06812 16 5 16H19C19.9319 16 20.3978 16 20.7654 16.1522C21.2554 16.3552 21.6448 16.7446 21.8478 17.2346C22 17.6022 22 18.0681 22 19C22 19.9319 22 20.3978 21.8478 20.7654C21.6448 21.2554 21.2554 21.6448 20.7654 21.8478C20.3978 22 19.9319 22 19 22H5C4.06812 22 3.60218 22 3.23463 21.8478C2.74458 21.6448 2.35523 21.2554 2.15224 20.7654C2 20.3978 2 19.9319 2 19Z" fill="currentColor"/>
<path d="M16.2427 4.75732C18.5858 7.10047 18.5858 10.8995 16.2427 13.2426M7.75734 13.2426C5.41419 10.8995 5.41419 7.10047 7.75734 4.75732M4.85829 16C1.02359 12.0894 1.04705 5.81059 4.92869 1.92896M19.0713 1.92896C22.9529 5.81059 22.9764 12.0894 19.1417 16M12 16V9M4.99998 22H19C19.9319 22 20.3978 22 20.7653 21.8478C21.2554 21.6448 21.6447 21.2554 21.8477 20.7654C22 20.3978 22 19.9319 22 19C22 18.0681 22 17.6022 21.8477 17.2346C21.6447 16.7446 21.2554 16.3552 20.7653 16.1522C20.3978 16 19.9319 16 19 16H4.99998C4.06809 16 3.60215 16 3.23461 16.1522C2.74455 16.3552 2.35521 16.7446 2.15222 17.2346C1.99998 17.6022 1.99998 18.0681 1.99998 19C1.99998 19.9319 1.99998 20.3978 2.15222 20.7654C2.35521 21.2554 2.74455 21.6448 3.23461 21.8478C3.60215 22 4.06809 22 4.99998 22Z" stroke="currentColor" stroke-width="2" stroke-linecap="round" stroke-linejoin="round"/>
</svg>
