<svg width="24" height="24" viewBox="0 0 24 24" fill="none" xmlns="http://www.w3.org/2000/svg">
<path opacity="0.12" d="M9.5 8.96548C9.5 8.4882 9.5 8.24956 9.59974 8.11633C9.68666 8.00022 9.81971 7.92759 9.96438 7.91725C10.1304 7.9054 10.3311 8.03444 10.7326 8.29254L15.4532 11.3272C15.8016 11.5512 15.9758 11.6632 16.0359 11.8055C16.0885 11.93 16.0885 12.0703 16.0359 12.1948C15.9758 12.3371 15.8016 12.4491 15.4532 12.6731L10.7326 15.7078C10.3311 15.9659 10.1304 16.0949 9.96438 16.083C9.81971 16.0727 9.68666 16.0001 9.59974 15.884C9.5 15.7507 9.5 15.5121 9.5 15.0348V8.96548Z" fill="currentColor"/>
<path d="M9.5 8.96533C9.5 8.48805 9.5 8.24941 9.59974 8.11618C9.68666 8.00007 9.81971 7.92744 9.96438 7.9171C10.1304 7.90525 10.3311 8.03429 10.7326 8.29239L15.4532 11.3271C15.8016 11.551 15.9758 11.663 16.0359 11.8054C16.0885 11.9298 16.0885 12.0702 16.0359 12.1946C15.9758 12.337 15.8016 12.449 15.4532 12.6729L10.7326 15.7076C10.3311 15.9657 10.1304 16.0948 9.96438 16.0829C9.81971 16.0726 9.68666 15.9999 9.59974 15.8838C9.5 15.7506 9.5 15.512 9.5 15.0347V8.96533Z" stroke="currentColor" stroke-width="2" stroke-linecap="round" stroke-linejoin="round"/>
<path d="M3 7.8C3 6.11984 3 5.27976 3.32698 4.63803C3.6146 4.07354 4.07354 3.6146 4.63803 3.32698C5.27976 3 6.11984 3 7.8 3H16.2C17.8802 3 18.7202 3 19.362 3.32698C19.9265 3.6146 20.3854 4.07354 20.673 4.63803C21 5.27976 21 6.11984 21 7.8V16.2C21 17.8802 21 18.7202 20.673 19.362C20.3854 19.9265 19.9265 20.3854 19.362 20.673C18.7202 21 17.8802 21 16.2 21H7.8C6.11984 21 5.27976 21 4.63803 20.673C4.07354 20.3854 3.6146 19.9265 3.32698 19.362C3 18.7202 3 17.8802 3 16.2V7.8Z" stroke="currentColor" stroke-width="2" stroke-linecap="round" stroke-linejoin="round"/>
</svg>
