<svg width="24" height="24" viewBox="0 0 24 24" fill="none" xmlns="http://www.w3.org/2000/svg">
<path opacity="0.4" d="M3.07599 7.48295L7.36403 10.5458C7.58716 10.7052 7.69872 10.7848 7.81548 10.8032C7.91822 10.8194 8.02344 10.8031 8.11649 10.7566C8.22224 10.7038 8.3045 10.5941 8.46902 10.3748L9.37512 9.16664C9.42164 9.10461 9.4449 9.0736 9.47225 9.04684C9.49652 9.02308 9.52316 9.00186 9.55174 8.9835C9.58392 8.96283 9.61935 8.94708 9.69021 8.91559L13.5588 7.19622C13.7192 7.12494 13.7993 7.08931 13.8598 7.03365C13.9133 6.98442 13.9554 6.92413 13.9832 6.85697C14.0146 6.78103 14.0204 6.69348 14.0321 6.51838L14.3154 2.26953M13.5 13.5001L16.116 14.6213C16.4195 14.7514 16.5713 14.8164 16.6517 14.9244C16.7222 15.0192 16.7569 15.1359 16.7496 15.2538C16.7413 15.3882 16.6497 15.5256 16.4665 15.8004L15.2375 17.6439C15.1507 17.7741 15.1073 17.8393 15.0499 17.8864C14.9991 17.9282 14.9406 17.9595 14.8777 17.9786C14.8067 18.0001 14.7284 18.0001 14.5719 18.0001H12.5766C12.3693 18.0001 12.2656 18.0001 12.1774 17.9655C12.0995 17.9348 12.0305 17.8851 11.9768 17.8209C11.916 17.7482 11.8832 17.6498 11.8177 17.4531L11.1048 15.3145C11.0661 15.1985 11.0468 15.1405 11.0417 15.0815C11.0372 15.0292 11.0409 14.9766 11.0528 14.9255C11.0662 14.8678 11.0935 14.8131 11.1482 14.7037L11.6897 13.6207C11.7997 13.4007 11.8547 13.2906 11.9395 13.2223C12.0142 13.1621 12.1046 13.1247 12.1999 13.1145C12.3081 13.1028 12.4248 13.1417 12.6582 13.2195L13.5 13.5001Z" stroke="currentColor" stroke-width="2" stroke-linecap="round" stroke-linejoin="round"/>
<path d="M12 22C17.5228 22 22 17.5228 22 12C22 6.47715 17.5228 2 12 2C6.47715 2 2 6.47715 2 12C2 17.5228 6.47715 22 12 22Z" stroke="currentColor" stroke-width="2" stroke-linecap="round" stroke-linejoin="round"/>
</svg>
