<svg width="24" height="24" viewBox="0 0 24 24" fill="none" xmlns="http://www.w3.org/2000/svg">
<path d="M5.03654 21.3253C4.45186 21.5826 4.15951 21.7112 3.98012 21.6547C3.8246 21.6057 3.70273 21.484 3.65357 21.3285C3.59686 21.1492 3.72515 20.8567 3.98172 20.2717L11.2631 3.6702C11.4947 3.14212 11.6105 2.87808 11.7724 2.79727C11.913 2.72708 12.0784 2.72708 12.219 2.79727C12.3809 2.87808 12.4967 3.14212 12.7283 3.6702L20.0097 20.2717C20.2663 20.8567 20.3946 21.1492 20.3379 21.3285C20.2887 21.484 20.1668 21.6057 20.0113 21.6547C19.8319 21.7112 19.5396 21.5826 18.9549 21.3253L12.3179 18.405C12.1992 18.3528 12.1399 18.3267 12.0782 18.3164C12.0236 18.3072 11.9678 18.3072 11.9132 18.3164C11.8516 18.3267 11.7922 18.3528 11.6735 18.405L5.03654 21.3253Z" stroke="currentColor" stroke-width="2" stroke-linecap="round" stroke-linejoin="round"/>
</svg>
