<svg width="24" height="24" viewBox="0 0 24 24" fill="none" xmlns="http://www.w3.org/2000/svg">
<path opacity="0.4" d="M11.5 5H11.9344C14.9816 5 16.5053 5 17.0836 5.54729C17.5836 6.02037 17.8051 6.71728 17.6702 7.39221C17.514 8.17302 16.2701 9.05285 13.7823 10.8125L9.71771 13.6875C7.2299 15.4471 5.98598 16.327 5.82983 17.1078C5.69485 17.7827 5.91641 18.4796 6.41635 18.9527C6.99473 19.5 8.51835 19.5 11.5656 19.5H12.5" stroke="currentColor" stroke-width="2" stroke-linecap="round" stroke-linejoin="round"/>
<path d="M5 8C6.65685 8 8 6.65685 8 5C8 3.34315 6.65685 2 5 2C3.34315 2 2 3.34315 2 5C2 6.65685 3.34315 8 5 8Z" stroke="currentColor" stroke-width="2" stroke-linecap="round" stroke-linejoin="round"/>
<path d="M19 22C20.6569 22 22 20.6569 22 19C22 17.3431 20.6569 16 19 16C17.3431 16 16 17.3431 16 19C16 20.6569 17.3431 22 19 22Z" stroke="currentColor" stroke-width="2" stroke-linecap="round" stroke-linejoin="round"/>
</svg>
