<svg width="24" height="24" viewBox="0 0 24 24" fill="none" xmlns="http://www.w3.org/2000/svg">
<path opacity="0.4" d="M19.368 12.4048C20.935 11.5606 22 9.9047 22 8C22 5.23858 19.7614 3 17 3C14.2386 3 12 5.23858 12 8" stroke="currentColor" stroke-width="2" stroke-linecap="round" stroke-linejoin="round"/>
<path d="M7 21C4.23858 21 2 18.7614 2 16C2 13.2386 4.23858 11 7 11C7.03315 11 7.06622 11.0003 7.09922 11.001C8.0094 9.2196 9.86227 8 12 8C14.5192 8 16.6429 9.69375 17.2943 12.0046C17.3625 12.0016 17.4311 12 17.5 12C19.9853 12 22 14.0147 22 16.5C22 18.9853 19.9853 21 17.5 21C13.7434 21 11.2352 21 7 21Z" stroke="currentColor" stroke-width="2" stroke-linecap="round" stroke-linejoin="round"/>
</svg>
