<svg width="24" height="24" viewBox="0 0 24 24" fill="none" xmlns="http://www.w3.org/2000/svg">
<path opacity="0.4" d="M16.5 20.5003C15.2465 20.8141 13.6884 21.0001 12 21.0001C10.3116 21.0001 8.75349 20.8141 7.5 20.5003M18 16.4307C16.5341 16.9843 14.3894 17.3335 12 17.3335C9.61061 17.3335 7.46589 16.9843 6 16.4307M4.5 11.668C5.93143 12.56 8.75311 13.1668 12 13.1668C15.2469 13.1668 18.0686 12.56 19.5 11.668" stroke="currentColor" stroke-width="2" stroke-linecap="round" stroke-linejoin="round"/>
<path d="M21 6C21 7.65685 16.9706 9 12 9C7.02944 9 3 7.65685 3 6C3 4.34315 7.02944 3 12 3C16.9706 3 21 4.34315 21 6Z" stroke="currentColor" stroke-width="2" stroke-linecap="round" stroke-linejoin="round"/>
</svg>
