<svg width="24" height="24" viewBox="0 0 24 24" fill="none" xmlns="http://www.w3.org/2000/svg">
<path d="M14.25 2H8.49444C8.31496 2 8.22522 2 8.146 2.02733C8.07593 2.05149 8.01212 2.09093 7.95917 2.14279C7.8993 2.20143 7.85916 2.2817 7.7789 2.44223L3.5789 10.8422C3.38722 11.2256 3.29138 11.4173 3.3144 11.5731C3.3345 11.7091 3.40976 11.8309 3.52246 11.9097C3.65153 12 3.86583 12 4.29444 12H10.5L7.50001 22L19.6931 9.35531C20.1045 8.9287 20.3102 8.7154 20.3222 8.53288C20.3326 8.37446 20.2672 8.22049 20.1459 8.11803C20.0062 8 19.7099 8 19.1172 8H12L14.25 2Z" stroke="currentColor" stroke-width="2" stroke-linecap="round" stroke-linejoin="round"/>
</svg>
