<svg width="24" height="24" viewBox="0 0 24 24" fill="none" xmlns="http://www.w3.org/2000/svg">
<path opacity="0.4" d="M20.0017 6C22.6666 9.54483 22.666 14.4576 20 18.0018" stroke="currentColor" stroke-width="2" stroke-linecap="round" stroke-linejoin="round"/>
<path d="M16.3803 20.9921C15.0575 21.6377 13.5711 22 12 22C6.47715 22 2 17.5228 2 12C2 6.47715 6.47715 2 12 2C13.5711 2 15.0575 2.36229 16.3803 3.00789C16.2542 3.00265 16.1274 3 16 3C11.0294 3 7 7.02944 7 12C7 16.9706 11.0294 21 16 21C16.1274 21 16.2542 20.9974 16.3803 20.9921Z" stroke="currentColor" stroke-width="2" stroke-linecap="round" stroke-linejoin="round"/>
</svg>
