<svg width="24" height="24" viewBox="0 0 24 24" fill="none" xmlns="http://www.w3.org/2000/svg">
<path fill-rule="evenodd" clip-rule="evenodd" d="M12 5C8.13401 5 5 8.13401 5 12C5 14.7924 6.63505 17.2029 9 18.3264V20.0001C9 21.657 10.3431 23.0001 12 23.0001C13.6569 23.0001 15 21.657 15 20.0001V18.3264C17.3649 17.2029 19 14.7924 19 12C19 8.13401 15.866 5 12 5Z" fill="currentColor"/>
<path fill-rule="evenodd" clip-rule="evenodd" d="M12 1C12.5523 1 13 1.44772 13 2V3C13 3.55228 12.5523 4 12 4C11.4477 4 11 3.55228 11 3V2C11 1.44772 11.4477 1 12 1Z" fill="currentColor"/>
<path fill-rule="evenodd" clip-rule="evenodd" d="M1 12C1 11.4477 1.44772 11 2 11H3C3.55228 11 4 11.4477 4 12C4 12.5523 3.55228 13 3 13H2C1.44772 13 1 12.5523 1 12Z" fill="currentColor"/>
<path fill-rule="evenodd" clip-rule="evenodd" d="M4.1928 4.1928C4.58332 3.80227 5.21648 3.80227 5.60701 4.1928L6.20711 4.79289C6.59763 5.18342 6.59763 5.81658 6.20711 6.20711C5.81658 6.59763 5.18342 6.59763 4.79289 6.20711L4.1928 5.60701C3.80227 5.21648 3.80227 4.58332 4.1928 4.1928Z" fill="currentColor"/>
<path fill-rule="evenodd" clip-rule="evenodd" d="M19.8074 4.19288C20.1979 4.58346 20.1978 5.21662 19.8073 5.6071L19.207 6.2072C18.8164 6.59767 18.1833 6.59759 17.7928 6.20702C17.4023 5.81644 17.4024 5.18328 17.793 4.7928L18.3932 4.19271C18.7838 3.80223 19.417 3.80231 19.8074 4.19288Z" fill="currentColor"/>
<path fill-rule="evenodd" clip-rule="evenodd" d="M20 12C20 11.4477 20.4477 11 21 11H22C22.5523 11 23 11.4477 23 12C23 12.5523 22.5523 13 22 13H21C20.4477 13 20 12.5523 20 12Z" fill="currentColor"/>
</svg>
