<svg width="24" height="24" viewBox="0 0 24 24" fill="none" xmlns="http://www.w3.org/2000/svg">
<path fill-rule="evenodd" clip-rule="evenodd" d="M9 18C9 16.3431 10.3431 15 12 15C13.6569 15 15 16.3431 15 18V20C15 21.6569 13.6569 23 12 23C10.3431 23 9 21.6569 9 20V18Z" fill="currentColor"/>
<path fill-rule="evenodd" clip-rule="evenodd" d="M2 10.785C2 5.35835 6.50023 1 12 1C17.4998 1 22 5.35835 22 10.785C22 14.1319 20.2788 17.0701 17.6791 18.8283C17.2216 19.1377 16.5999 19.0177 16.2905 18.5602C15.9811 18.1027 16.1012 17.4811 16.5586 17.1717C18.6458 15.7601 20 13.4239 20 10.785C20 6.50824 16.4411 3 12 3C7.55893 3 4 6.50824 4 10.785C4 13.4239 5.3542 15.7601 7.44135 17.1717C7.89883 17.4811 8.01887 18.1027 7.70947 18.5602C7.40006 19.0177 6.77838 19.1377 6.3209 18.8283C3.72122 17.0701 2 14.1319 2 10.785Z" fill="currentColor"/>
<path fill-rule="evenodd" clip-rule="evenodd" d="M12 7C9.74225 7 8 8.727 8 10.7505C8 11.7251 8.40019 12.6191 9.07055 13.2967C9.45898 13.6893 9.45558 14.3225 9.06297 14.7109C8.67036 15.0993 8.03721 15.0959 7.64878 14.7033C6.63731 13.6809 6 12.2922 6 10.7505C6 7.52721 8.73536 5 12 5C15.2646 5 18 7.52721 18 10.7505C18 12.2931 17.3626 13.681 16.3512 14.7033C15.9628 15.0959 15.3296 15.0993 14.937 14.7109C14.5444 14.3225 14.541 13.6893 14.9294 13.2967C15.5999 12.619 16 11.7259 16 10.7505C16 8.727 14.2578 7 12 7Z" fill="currentColor"/>
<path fill-rule="evenodd" clip-rule="evenodd" d="M10 11C10 9.89543 10.8954 9 12 9C13.1046 9 14 9.89543 14 11C14 12.1046 13.1046 13 12 13C10.8954 13 10 12.1046 10 11Z" fill="currentColor"/>
</svg>
