<svg width="24" height="24" viewBox="0 0 24 24" fill="none" xmlns="http://www.w3.org/2000/svg">
<path fill-rule="evenodd" clip-rule="evenodd" d="M3 9C3.55228 9 4 9.44772 4 10V14C4 14.5523 3.55228 15 3 15C2.44772 15 2 14.5523 2 14L2 10C2 9.44772 2.44772 9 3 9Z" fill="currentColor"/>
<path fill-rule="evenodd" clip-rule="evenodd" d="M7.5 5C8.05228 5 8.5 5.44772 8.5 6L8.5 18C8.5 18.5523 8.05229 19 7.5 19C6.94772 19 6.5 18.5523 6.5 18L6.5 6C6.5 5.44772 6.94772 5 7.5 5Z" fill="currentColor"/>
<path fill-rule="evenodd" clip-rule="evenodd" d="M12 2C12.5523 2 13 2.44772 13 3V21C13 21.5523 12.5523 22 12 22C11.4477 22 11 21.5523 11 21V3C11 2.44772 11.4477 2 12 2Z" fill="currentColor"/>
<path fill-rule="evenodd" clip-rule="evenodd" d="M16.5 5C17.0523 5 17.5 5.44772 17.5 6V18C17.5 18.5523 17.0523 19 16.5 19C15.9477 19 15.5 18.5523 15.5 18V6C15.5 5.44772 15.9477 5 16.5 5Z" fill="currentColor"/>
<path fill-rule="evenodd" clip-rule="evenodd" d="M21 9C21.5523 9 22 9.44772 22 10V14C22 14.5523 21.5523 15 21 15C20.4477 15 20 14.5523 20 14V10C20 9.44772 20.4477 9 21 9Z" fill="currentColor"/>
</svg>
