<svg width="24" height="24" viewBox="0 0 24 24" fill="none" xmlns="http://www.w3.org/2000/svg">
<path opacity="0.12" d="M14.7219 8.266C15.2104 8.10315 15.4547 8.02173 15.6171 8.07965C15.7585 8.13006 15.8697 8.2413 15.9201 8.38266C15.9781 8.54511 15.8966 8.78938 15.7338 9.27793L14.2463 13.7406C14.1999 13.8797 14.1767 13.9493 14.1372 14.007C14.1022 14.0582 14.0579 14.1024 14.0068 14.1374C13.949 14.177 13.8794 14.2001 13.7403 14.2465L9.27765 15.7341C8.78911 15.8969 8.54483 15.9783 8.38239 15.9204C8.24103 15.87 8.12979 15.7588 8.07938 15.6174C8.02145 15.455 8.10288 15.2107 8.26572 14.7221L9.75327 10.2595C9.79965 10.1204 9.82284 10.0508 9.86236 9.99302C9.89736 9.94185 9.94158 9.89764 9.99275 9.86263C10.0505 9.82311 10.1201 9.79992 10.2592 9.75354L14.7219 8.266Z" fill="currentColor"/>
<path d="M12 22C17.5228 22 22 17.5228 22 12C22 6.47715 17.5228 2 12 2C6.47715 2 2 6.47715 2 12C2 17.5228 6.47715 22 12 22Z" stroke="currentColor" stroke-width="2" stroke-linecap="round" stroke-linejoin="round"/>
<path d="M14.7221 8.26596C15.2107 8.10312 15.4549 8.02169 15.6174 8.07962C15.7587 8.13003 15.87 8.24127 15.9204 8.38263C15.9783 8.54507 15.8969 8.78935 15.734 9.27789L14.2465 13.7405C14.2001 13.8797 14.1769 13.9492 14.1374 14.007C14.1024 14.0582 14.0582 14.1024 14.007 14.1374C13.9492 14.1769 13.8797 14.2001 13.7405 14.2465L9.27789 15.734C8.78935 15.8969 8.54507 15.9783 8.38263 15.9204C8.24127 15.87 8.13003 15.7587 8.07962 15.6174C8.02169 15.4549 8.10312 15.2107 8.26596 14.7221L9.75351 10.2595C9.79989 10.1203 9.82308 10.0508 9.8626 9.99299C9.8976 9.94182 9.94182 9.8976 9.99299 9.8626C10.0508 9.82308 10.1203 9.79989 10.2595 9.75351L14.7221 8.26596Z" stroke="currentColor" stroke-width="2" stroke-linecap="round" stroke-linejoin="round"/>
</svg>
