<svg width="24" height="24" viewBox="0 0 24 24" fill="none" xmlns="http://www.w3.org/2000/svg">
<g opacity="0.12">
<path d="M2.68675 15.6451L4.59494 14.5435C4.6983 14.4839 4.8196 14.4631 4.9369 14.4851L8.6914 15.1878C8.99995 15.2455 9.28478 15.008 9.28338 14.6941L9.26876 11.4045C9.26836 11.3151 9.29193 11.2272 9.33701 11.15L11.2317 7.90621C11.3303 7.73739 11.3215 7.52658 11.2091 7.3666L8.01892 2.82568C7.67393 2.97591 7.33382 3.14711 7.00021 3.33973C2.65877 5.84626 0.907849 11.1166 2.68675 15.6451Z" fill="currentColor"/>
<path d="M17.5 11.5C19.3771 12.4384 21.9874 12.4999 21.9874 12.4999C21.9956 12.3344 21.9997 12.1677 21.9997 12.0001C21.9997 9.2029 20.8512 6.67391 19 4.85901C13.5 7.5 16.4998 11 17.5 11.5Z" fill="currentColor"/>
<path d="M16.7578 21.9398L13.591 13.591L21.9398 16.7578L18.2376 18.2376L16.7578 21.9398Z" fill="currentColor"/>
</g>
<path d="M2.68675 15.6451L4.59494 14.5435C4.6983 14.4839 4.8196 14.4631 4.9369 14.4851L8.6914 15.1878C8.99995 15.2455 9.28478 15.008 9.28338 14.6941L9.26876 11.4045C9.26836 11.3151 9.29193 11.2272 9.33701 11.15L11.2317 7.90621C11.3303 7.73739 11.3215 7.52658 11.2091 7.3666L8.01892 2.82568M19.0002 4.85905C13.5002 7.50004 16.5 11 17.5002 11.5C19.3773 12.4384 21.9876 12.5 21.9876 12.5C21.9958 12.3344 22 12.1677 22 12C22 6.47715 17.5228 2 12 2C6.47715 2 2 6.47715 2 12C2 17.5228 6.47715 22 12 22C12.1677 22 12.3344 21.9959 12.5 21.9877M16.7578 21.9398L13.591 13.591L21.9398 16.7578L18.2376 18.2376L16.7578 21.9398Z" stroke="currentColor" stroke-width="2" stroke-linecap="round" stroke-linejoin="round"/>
</svg>
