<svg width="24" height="24" viewBox="0 0 24 24" fill="none" xmlns="http://www.w3.org/2000/svg">
<path opacity="0.12" d="M16 9C16 12.866 12.866 16 9 16C8.68203 16 8.369 15.9788 8.06227 15.9377C8.0212 15.631 8 15.318 8 15C8 11.134 11.134 8 15 8C15.318 8 15.631 8.0212 15.9377 8.06227C15.9788 8.369 16 8.68203 16 9Z" fill="currentColor"/>
<path d="M9 16C12.866 16 16 12.866 16 9C16 5.13401 12.866 2 9 2C5.13401 2 2 5.13401 2 9C2 12.866 5.13401 16 9 16Z" stroke="currentColor" stroke-width="2" stroke-linecap="round" stroke-linejoin="round"/>
<path d="M15 22C18.866 22 22 18.866 22 15C22 11.134 18.866 8 15 8C11.134 8 8 11.134 8 15C8 18.866 11.134 22 15 22Z" stroke="currentColor" stroke-width="2" stroke-linecap="round" stroke-linejoin="round"/>
</svg>
