<svg width="24" height="24" viewBox="0 0 24 24" fill="none" xmlns="http://www.w3.org/2000/svg">
<path opacity="0.12" d="M21.0001 11.5C21.0001 16.1944 17.1945 20 12.5001 20C11.4233 20 10.3933 19.7998 9.44527 19.4345C9.27193 19.3678 9.18527 19.3344 9.11635 19.3185C9.04856 19.3029 8.99949 19.2963 8.92997 19.2937C8.8593 19.291 8.78176 19.299 8.62668 19.315L3.50565 19.8444C3.01741 19.8948 2.77329 19.9201 2.62929 19.8322C2.50386 19.7557 2.41843 19.6279 2.39569 19.4828C2.36958 19.3161 2.48624 19.1002 2.71955 18.6684L4.35521 15.6408C4.48991 15.3915 4.55726 15.2668 4.58777 15.1469C4.61789 15.0286 4.62518 14.9432 4.61554 14.8214C4.60578 14.6981 4.55168 14.5376 4.44348 14.2166C4.15596 13.3636 4.00011 12.45 4.00011 11.5C4.00011 6.80558 7.80569 3 12.5001 3C17.1945 3 21.0001 6.80558 21.0001 11.5Z" fill="currentColor"/>
<path d="M9.00011 14C9.00011 14 10.3126 15.5 12.5001 15.5C14.6876 15.5 16.0001 14 16.0001 14M15.2501 9H15.2601M9.75011 9H9.76011M12.5001 20C17.1945 20 21.0001 16.1944 21.0001 11.5C21.0001 6.80558 17.1945 3 12.5001 3C7.80569 3 4.00011 6.80558 4.00011 11.5C4.00011 12.45 4.15596 13.3636 4.44348 14.2166C4.55168 14.5376 4.60578 14.6981 4.61554 14.8214C4.62518 14.9432 4.61789 15.0286 4.58777 15.1469C4.55726 15.2668 4.48991 15.3915 4.35521 15.6408L2.71955 18.6684C2.48624 19.1002 2.36958 19.3161 2.39569 19.4828C2.41843 19.6279 2.50386 19.7557 2.62929 19.8322C2.77329 19.9201 3.01741 19.8948 3.50565 19.8444L8.62668 19.315C8.78176 19.299 8.8593 19.291 8.92997 19.2937C8.99949 19.2963 9.04856 19.3029 9.11635 19.3185C9.18527 19.3344 9.27193 19.3678 9.44527 19.4345C10.3933 19.7998 11.4233 20 12.5001 20ZM15.7501 9C15.7501 9.27614 15.5263 9.5 15.2501 9.5C14.974 9.5 14.7501 9.27614 14.7501 9C14.7501 8.72386 14.974 8.5 15.2501 8.5C15.5263 8.5 15.7501 8.72386 15.7501 9ZM10.2501 9C10.2501 9.27614 10.0263 9.5 9.75011 9.5C9.47397 9.5 9.25011 9.27614 9.25011 9C9.25011 8.72386 9.47397 8.5 9.75011 8.5C10.0263 8.5 10.2501 8.72386 10.2501 9Z" stroke="currentColor" stroke-width="2" stroke-linecap="round" stroke-linejoin="round"/>
</svg>
