<svg width="24" height="24" viewBox="0 0 24 24" fill="none" xmlns="http://www.w3.org/2000/svg">
<path opacity="0.12" d="M2.57389 4.72931C2.39241 4.18255 2.30168 3.90917 2.36772 3.74078C2.42508 3.59454 2.54783 3.48375 2.69917 3.44164C2.87343 3.39315 3.1361 3.51135 3.66145 3.74776L20.3787 11.2705C20.8931 11.5019 21.1502 11.6177 21.2297 11.7784C21.2988 11.9181 21.2988 12.082 21.2297 12.2216C21.1502 12.3824 20.8931 12.4981 20.3787 12.7296L3.66727 20.2497C3.14034 20.4869 2.87687 20.6054 2.70244 20.5567C2.55095 20.5145 2.42819 20.4034 2.37103 20.2569C2.30521 20.0881 2.39693 19.8142 2.58036 19.2662L4.91528 12.2915C4.94669 12.1977 4.9624 12.1508 4.96867 12.1028C4.97424 12.0602 4.9743 12.0171 4.96884 11.9744C4.96269 11.9264 4.9471 11.8795 4.91593 11.7856L2.57389 4.72931Z" fill="currentColor"/>
<path d="M10.4999 12H4.99994M4.91528 12.2915L2.58036 19.2662C2.39693 19.8142 2.30521 20.0881 2.37103 20.2569C2.42819 20.4034 2.55095 20.5145 2.70244 20.5567C2.87687 20.6054 3.14034 20.4869 3.66727 20.2497L20.3787 12.7296C20.8931 12.4981 21.1502 12.3824 21.2297 12.2216C21.2988 12.082 21.2988 11.9181 21.2297 11.7784C21.1502 11.6177 20.8931 11.5019 20.3787 11.2705L3.66145 3.74776C3.1361 3.51135 2.87343 3.39315 2.69917 3.44164C2.54783 3.48375 2.42508 3.59454 2.36772 3.74078C2.30168 3.90917 2.39241 4.18255 2.57389 4.72931L4.91593 11.7856C4.9471 11.8795 4.96269 11.9264 4.96884 11.9744C4.9743 12.0171 4.97424 12.0602 4.96867 12.1028C4.9624 12.1508 4.94669 12.1977 4.91528 12.2915Z" stroke="currentColor" stroke-width="2" stroke-linecap="round" stroke-linejoin="round"/>
</svg>
