<svg width="24" height="24" viewBox="0 0 24 24" fill="none" xmlns="http://www.w3.org/2000/svg">
<path opacity="0.12" d="M2.99997 18.3255C2.99997 17.8363 2.99997 17.5917 3.05523 17.3615C3.10422 17.1574 3.18503 16.9624 3.29469 16.7834C3.41837 16.5816 3.59133 16.4086 3.93723 16.0627L16.5 3.49998C17.3284 2.67156 18.6716 2.67156 19.5 3.49998C20.3284 4.32841 20.3284 5.67156 19.5 6.49998L6.93725 19.0627C6.59135 19.4086 6.4184 19.5816 6.21657 19.7053C6.03762 19.8149 5.84253 19.8957 5.63846 19.9447C5.40828 20 5.16369 20 4.67451 20H2.99997V18.3255Z" fill="currentColor"/>
<path d="M21 18L19.9999 19.094C19.4695 19.6741 18.7502 20 18.0002 20C17.2501 20 16.5308 19.6741 16.0004 19.094C15.4693 18.5151 14.75 18.1901 14.0002 18.1901C13.2504 18.1901 12.5312 18.5151 12 19.094M3.00003 20H4.67457C5.16376 20 5.40835 20 5.63852 19.9447C5.84259 19.8957 6.03768 19.8149 6.21663 19.7053C6.41846 19.5816 6.59141 19.4086 6.93732 19.0627L19.5001 6.49998C20.3285 5.67156 20.3285 4.32841 19.5001 3.49998C18.6716 2.67156 17.3285 2.67156 16.5001 3.49998L3.93729 16.0627C3.59139 16.4086 3.41843 16.5816 3.29475 16.7834C3.18509 16.9624 3.10428 17.1574 3.05529 17.3615C3.00003 17.5917 3.00003 17.8363 3.00003 18.3255V20Z" stroke="currentColor" stroke-width="2" stroke-linecap="round" stroke-linejoin="round"/>
</svg>
