<svg width="24" height="24" viewBox="0 0 24 24" fill="none" xmlns="http://www.w3.org/2000/svg">
<path opacity="0.12" d="M21 16.5175V7.48244C21 5.5894 21 4.64288 20.6168 3.95935C20.2803 3.35923 19.7478 2.893 19.1084 2.6388C18.3803 2.34926 17.4421 2.47435 15.5656 2.72455L10.1656 3.44455C8.68976 3.64133 7.95183 3.73972 7.39622 4.09118C6.90665 4.40087 6.51722 4.84568 6.27495 5.37188C6 5.96907 6 6.71353 6 8.20244V15.7975C6 17.2864 6 18.0309 6.27495 18.628C6.51722 19.1542 6.90665 19.5991 7.39622 19.9087C7.95184 20.2602 8.68976 20.3586 10.1656 20.5554L15.5656 21.2754C17.442 21.5256 18.3803 21.6507 19.1084 21.3611C19.7478 21.1069 20.2803 20.6407 20.6168 20.0406C21 19.357 21 18.4105 21 16.5175Z" fill="currentColor"/>
<path d="M6 17C6 17.3513 6 17.5269 6.01567 17.6796C6.14575 18.9474 7.0626 19.9946 8.30206 20.2911C8.45134 20.3268 8.6255 20.35 8.97368 20.3965L15.5656 21.2754C17.442 21.5256 18.3803 21.6507 19.1084 21.3611C19.7478 21.1069 20.2803 20.6407 20.6168 20.0406C21 19.357 21 18.4105 21 16.5175V7.48244C21 5.5894 21 4.64288 20.6168 3.95935C20.2803 3.35923 19.7478 2.893 19.1084 2.6388C18.3803 2.34926 17.442 2.47435 15.5656 2.72455L8.97368 3.60347C8.62546 3.6499 8.45135 3.67311 8.30206 3.70883C7.0626 4.00532 6.14575 5.05254 6.01567 6.3203C6 6.47301 6 6.64866 6 6.99996M12 7.99996L16 12M16 12L12 16M16 12H3" stroke="currentColor" stroke-width="2" stroke-linecap="round" stroke-linejoin="round"/>
</svg>
