<svg width="24" height="24" viewBox="0 0 24 24" fill="none" xmlns="http://www.w3.org/2000/svg">
<path opacity="0.12" d="M3 15.9722V8.02764C3 6.4837 3 5.71174 3.26118 5.12746C3.60942 4.34842 4.27293 3.75454 5.08566 3.49447C5.69521 3.29941 6.46246 3.38466 7.99694 3.55516C9.2534 3.69476 9.88162 3.76457 10.3739 4.01814C11.0302 4.35624 11.5388 4.92448 11.8023 5.61412C12 6.13136 12 6.76345 12 8.02763V15.9722C12 17.2364 12 17.8685 11.8023 18.3858C11.5388 19.0754 11.0302 19.6436 10.3739 19.9817C9.88162 20.2353 9.2534 20.3051 7.99694 20.4447C6.46248 20.6152 5.69521 20.7005 5.08566 20.5054C4.27293 20.2453 3.60942 19.6515 3.26118 18.8724C3 18.2881 3 17.5162 3 15.9722Z" fill="currentColor"/>
<path d="M16 16.9999L21 11.9999M21 11.9999L16 6.99994M21 11.9999H9M12 16.9999C12 17.2955 12 17.4433 11.989 17.5713C11.8748 18.9019 10.8949 19.9968 9.58503 20.2572C9.45903 20.2823 9.31202 20.2986 9.01835 20.3312L7.99694 20.4447C6.46248 20.6152 5.69521 20.7005 5.08566 20.5054C4.27293 20.2453 3.60942 19.6515 3.26118 18.8724C3 18.2881 3 17.5162 3 15.9722V8.02764C3 6.4837 3 5.71174 3.26118 5.12746C3.60942 4.34842 4.27293 3.75454 5.08566 3.49447C5.69521 3.29941 6.46246 3.38466 7.99694 3.55516L9.01835 3.66865C9.31212 3.70129 9.45901 3.71761 9.58503 3.74267C10.8949 4.0031 11.8748 5.09798 11.989 6.42855C12 6.55657 12 6.70436 12 6.99994" stroke="currentColor" stroke-width="2" stroke-linecap="round" stroke-linejoin="round"/>
</svg>
