<svg width="24" height="24" viewBox="0 0 24 24" fill="none" xmlns="http://www.w3.org/2000/svg">
<path opacity="0.12" d="M13.1028 3.64636C13.4147 2.91866 13.5706 2.55481 13.8226 2.38953C14.0429 2.245 14.3114 2.19329 14.5697 2.24565C14.8651 2.30552 15.145 2.58543 15.7048 3.14526L20.8479 8.28839C21.4078 8.84822 21.6877 9.12813 21.7475 9.42348C21.7999 9.68175 21.7482 9.95025 21.6037 10.1706C21.4384 10.4226 21.0745 10.5785 20.3468 10.8904L17.8525 11.9594C17.7467 12.0048 17.6937 12.0274 17.6441 12.0558C17.6001 12.081 17.558 12.1095 17.5182 12.141C17.4735 12.1766 17.4328 12.2173 17.3514 12.2987L15.7905 13.8596C15.6632 13.9869 15.5995 14.0505 15.5489 14.1231C15.504 14.1875 15.4668 14.2569 15.4382 14.33C15.4059 14.4123 15.3882 14.5006 15.3529 14.6771L14.62 18.3416C14.4296 19.2939 14.3343 19.7701 14.0833 19.9928C13.8646 20.1869 13.5719 20.2755 13.2823 20.2354C12.9498 20.1893 12.6065 19.8459 11.9197 19.1592L4.834 12.0735C4.14728 11.3867 3.80392 11.0434 3.75783 10.7109C3.71768 10.4213 3.8063 10.1286 4.00036 9.9099C4.22313 9.65884 4.69928 9.56361 5.65158 9.37315L9.31605 8.64026C9.49261 8.60495 9.5809 8.58729 9.66322 8.555C9.73629 8.52634 9.80573 8.48917 9.87011 8.44427C9.94264 8.39369 10.0063 8.33003 10.1336 8.2027L11.6945 6.64181C11.7759 6.56041 11.8166 6.51971 11.8522 6.47496C11.8837 6.43522 11.9122 6.39313 11.9374 6.34905C11.9658 6.29944 11.9884 6.24653 12.0338 6.14071L13.1028 3.64636Z" fill="currentColor"/>
<path d="M8.3767 15.6163L2.71985 21.2732M11.6944 6.64181L10.1335 8.2027C10.0062 8.33003 9.94252 8.39369 9.86999 8.44427C9.80561 8.48917 9.73616 8.52634 9.66309 8.555C9.58077 8.58729 9.49249 8.60495 9.31592 8.64026L5.65145 9.37315C4.69915 9.56361 4.223 9.65884 4.00024 9.9099C3.80617 10.1286 3.71755 10.4213 3.75771 10.7109C3.8038 11.0434 4.14715 11.3867 4.83387 12.0735L11.9196 19.1592C12.6063 19.8459 12.9497 20.1893 13.2821 20.2354C13.5718 20.2755 13.8645 20.1869 14.0832 19.9928C14.3342 19.7701 14.4294 19.2939 14.6199 18.3416L15.3528 14.6771C15.3881 14.5006 15.4058 14.4123 15.4381 14.33C15.4667 14.2569 15.5039 14.1875 15.5488 14.1231C15.5994 14.0505 15.663 13.9869 15.7904 13.8596L17.3512 12.2987C17.4326 12.2173 17.4734 12.1766 17.5181 12.141C17.5578 12.1095 17.5999 12.081 17.644 12.0558C17.6936 12.0274 17.7465 12.0048 17.8523 11.9594L20.3467 10.8904C21.0744 10.5785 21.4383 10.4226 21.6035 10.1706C21.7481 9.95025 21.7998 9.68175 21.7474 9.42348C21.6875 9.12813 21.4076 8.84822 20.8478 8.28839L15.7047 3.14526C15.1448 2.58543 14.8649 2.30552 14.5696 2.24565C14.3113 2.19329 14.0428 2.245 13.8225 2.38953C13.5705 2.55481 13.4145 2.91866 13.1027 3.64636L12.0337 6.14071C11.9883 6.24653 11.9656 6.29944 11.9373 6.34905C11.9121 6.39313 11.8836 6.43522 11.852 6.47496C11.8165 6.51971 11.7758 6.56041 11.6944 6.64181Z" stroke="currentColor" stroke-width="2" stroke-linecap="round" stroke-linejoin="round"/>
</svg>
