<svg width="24" height="24" viewBox="0 0 24 24" fill="none" xmlns="http://www.w3.org/2000/svg">
<path opacity="0.4" d="M4.99993 12.9999C4.99993 14.6483 5.66466 16.1414 6.74067 17.2258C6.84445 17.3304 6.89633 17.3827 6.92696 17.433C6.95619 17.481 6.9732 17.5223 6.98625 17.5769C6.99993 17.6342 6.99993 17.6994 6.99993 17.8297V20.1999C6.99993 20.4799 6.99993 20.6199 7.05443 20.7269C7.10236 20.821 7.17885 20.8974 7.27293 20.9454C7.37989 20.9999 7.5199 20.9999 7.79993 20.9999H9.69993C9.97996 20.9999 10.12 20.9999 10.2269 20.9454C10.321 20.8974 10.3975 20.821 10.4454 20.7269C10.4999 20.6199 10.4999 20.4799 10.4999 20.1999V19.7999C10.4999 19.5199 10.4999 19.3798 10.5544 19.2729C10.6024 19.1788 10.6789 19.1023 10.7729 19.0544C10.8799 18.9999 11.0199 18.9999 11.2999 18.9999H12.6999C12.98 18.9999 13.12 18.9999 13.2269 19.0544C13.321 19.1023 13.3975 19.1788 13.4454 19.2729C13.4999 19.3798 13.4999 19.5199 13.4999 19.7999V20.1999C13.4999 20.4799 13.4999 20.6199 13.5544 20.7269C13.6024 20.821 13.6789 20.8974 13.7729 20.9454C13.8799 20.9999 14.0199 20.9999 14.2999 20.9999H16.2C16.48 20.9999 16.62 20.9999 16.727 20.9454C16.8211 20.8974 16.8976 20.821 16.9455 20.7269C17 20.6199 17 20.4799 17 20.1999V19.2242C17 19.0221 17 18.9211 17.0288 18.84C17.0563 18.7623 17.0911 18.7079 17.15 18.6501C17.2114 18.5899 17.3155 18.5416 17.5237 18.4449C18.5059 17.9889 19.344 17.2749 19.9511 16.39C20.0579 16.2344 20.1112 16.1566 20.1683 16.1107C20.2228 16.0667 20.2717 16.041 20.3387 16.0209C20.4089 15.9999 20.4922 15.9999 20.6587 15.9999H21.2C21.48 15.9999 21.62 15.9999 21.727 15.9454C21.8211 15.8974 21.8976 15.821 21.9455 15.7269C22 15.6199 22 15.4799 22 15.1999V11.7856C22 11.519 22 11.3857 21.9505 11.2829C21.9013 11.1809 21.819 11.0986 21.717 11.0494C21.6141 10.9999 21.4808 10.9999 21.2143 10.9999C21.0213 10.9999 20.9248 10.9999 20.8471 10.9737C20.7633 10.9454 20.7045 10.9079 20.6437 10.8437C20.5874 10.7841 20.5413 10.6845 20.4493 10.4854C20.1538 9.8461 19.7492 9.26765 19.2593 8.77392C19.1555 8.66933 19.1036 8.61704 19.073 8.56675C19.0437 8.51877 19.0267 8.47747 19.0137 8.42282C19 8.36555 19 8.30039 19 8.17006V7.06046C19 6.70041 19 6.52039 18.925 6.39939C18.8593 6.29339 18.7564 6.21576 18.6365 6.18172C18.4995 6.14287 18.3264 6.19233 17.9802 6.29124L15.6077 6.9691C15.5673 6.98062 15.5472 6.98638 15.5267 6.99042C15.5085 6.99401 15.4901 6.99659 15.4716 6.99814C15.4508 6.99988 15.4298 6.99988 15.3879 6.99988H14.959M4.99993 12.9999C4.99993 10.6958 6.29864 8.69508 8.20397 7.68978M4.99993 12.9999L4 12.9999C2.89543 12.9999 2 12.1044 2 10.9999C2 10.2596 2.4022 9.61325 3 9.26744" stroke="currentColor" stroke-width="2" stroke-linecap="round" stroke-linejoin="round"/>
<path d="M11.5 10C13.433 10 15 8.433 15 6.5C15 4.567 13.433 3 11.5 3C9.567 3 8 4.567 8 6.5C8 8.433 9.567 10 11.5 10Z" stroke="currentColor" stroke-width="2" stroke-linecap="round" stroke-linejoin="round"/>
</svg>
