<svg width="24" height="24" viewBox="0 0 24 24" fill="none" xmlns="http://www.w3.org/2000/svg">
<path opacity="0.4" d="M8.20692 7.68839C8.073 7.31736 8 6.9172 8 6.5C8 4.567 9.567 3 11.5 3C13.433 3 15 4.567 15 6.5C15 6.66976 14.9879 6.8367 14.9646 7" stroke="currentColor" stroke-width="2" stroke-linecap="round" stroke-linejoin="round"/>
<path d="M4.99993 12.9999C4.99993 9.68617 7.68622 6.99988 10.9999 6.99988H15.3874C15.4297 6.99988 15.4508 6.99988 15.4716 6.99814C15.4901 6.99659 15.5085 6.99401 15.5267 6.99042C15.5472 6.98638 15.5673 6.98062 15.6077 6.9691L17.9802 6.29124C18.3264 6.19233 18.4995 6.14287 18.6365 6.18172C18.7564 6.21576 18.8593 6.29339 18.925 6.39939C19 6.52039 19 6.70041 19 7.06046V8.17006C19 8.30039 19 8.36555 19.0137 8.42282C19.0267 8.47747 19.0437 8.51877 19.073 8.56675C19.1036 8.61704 19.1555 8.66933 19.2593 8.77392C19.7492 9.26765 20.1538 9.8461 20.4493 10.4854C20.5413 10.6845 20.5874 10.7841 20.6437 10.8437C20.7045 10.9079 20.7633 10.9454 20.8471 10.9737C20.9248 10.9999 21.0213 10.9999 21.2143 10.9999C21.4808 10.9999 21.6141 10.9999 21.717 11.0494C21.819 11.0986 21.9013 11.1809 21.9505 11.2829C22 11.3857 22 11.519 22 11.7856V15.1999C22 15.4799 22 15.6199 21.9455 15.7269C21.8976 15.821 21.8211 15.8974 21.727 15.9454C21.62 15.9999 21.48 15.9999 21.2 15.9999H20.6587C20.4922 15.9999 20.4089 15.9999 20.3387 16.0209C20.2717 16.041 20.2228 16.0667 20.1683 16.1107C20.1112 16.1566 20.0579 16.2344 19.9511 16.39C19.344 17.2749 18.5059 17.9889 17.5237 18.4449C17.3155 18.5416 17.2114 18.5899 17.15 18.6501C17.0911 18.7079 17.0563 18.7623 17.0288 18.84C17 18.9211 17 19.0221 17 19.2242V20.1999C17 20.4799 17 20.6199 16.9455 20.7269C16.8976 20.821 16.8211 20.8974 16.727 20.9454C16.62 20.9999 16.48 20.9999 16.2 20.9999H14.2999C14.0199 20.9999 13.8799 20.9999 13.7729 20.9454C13.6789 20.8974 13.6024 20.821 13.5544 20.7269C13.4999 20.6199 13.4999 20.4799 13.4999 20.1999V19.7999C13.4999 19.5199 13.4999 19.3798 13.4454 19.2729C13.3975 19.1788 13.321 19.1023 13.2269 19.0544C13.12 18.9999 12.98 18.9999 12.6999 18.9999H11.2999C11.0199 18.9999 10.8799 18.9999 10.7729 19.0544C10.6789 19.1023 10.6024 19.1788 10.5544 19.2729C10.4999 19.3798 10.4999 19.5199 10.4999 19.7999V20.1999C10.4999 20.4799 10.4999 20.6199 10.4454 20.7269C10.3975 20.821 10.321 20.8974 10.2269 20.9454C10.12 20.9999 9.97996 20.9999 9.69993 20.9999H7.79993C7.5199 20.9999 7.37989 20.9999 7.27293 20.9454C7.17885 20.8974 7.10236 20.821 7.05443 20.7269C6.99993 20.6199 6.99993 20.4799 6.99993 20.1999V17.8297C6.99993 17.6994 6.99993 17.6342 6.98625 17.5769C6.9732 17.5223 6.95619 17.481 6.92696 17.433C6.89633 17.3827 6.84445 17.3304 6.74067 17.2258C5.66466 16.1414 4.99993 14.6483 4.99993 12.9999ZM4.99993 12.9999L4 12.9999C2.89543 12.9999 2 12.1044 2 10.9999C2 10.2596 2.4022 9.61325 3 9.26744" stroke="currentColor" stroke-width="2" stroke-linecap="round" stroke-linejoin="round"/>
</svg>
