<svg width="24" height="24" viewBox="0 0 24 24" fill="none" xmlns="http://www.w3.org/2000/svg">
<path opacity="0.4" d="M12 7V21M12 7C13.3807 7 14.5 5.88071 14.5 4.5M12 7C10.6193 7 9.5 5.88071 9.5 4.5M4 21L20 21M4 4.50001L9.5 4.5M9.5 4.5C9.5 3.11929 10.6193 2 12 2C13.3807 2 14.5 3.11929 14.5 4.5M14.5 4.5L20 4.5" stroke="currentColor" stroke-width="2" stroke-linecap="round" stroke-linejoin="round"/>
<path d="M2.49999 13H8.49999M15.5 13H21.5M8.88042 14.3364C8.47973 15.8706 7.11809 17 5.49999 17C3.88188 17 2.52024 15.8706 2.11955 14.3364C2.08681 14.211 2.07044 14.1483 2.06886 13.8979C2.06789 13.7443 2.12495 13.3904 2.1741 13.2449C2.25429 13.0076 2.34109 12.8737 2.5147 12.6059L5.49999 8L8.48528 12.6059C8.65888 12.8737 8.74568 13.0076 8.82587 13.2449C8.87502 13.3904 8.93208 13.7443 8.93111 13.8979C8.92953 14.1483 8.91316 14.211 8.88042 14.3364ZM21.8804 14.3364C21.4797 15.8706 20.1181 17 18.5 17C16.8819 17 15.5202 15.8706 15.1195 14.3364C15.0868 14.211 15.0704 14.1483 15.0689 13.8979C15.0679 13.7443 15.1249 13.3904 15.1741 13.2449C15.2543 13.0076 15.3411 12.8737 15.5147 12.6059L18.5 8L21.4853 12.6059C21.6589 12.8737 21.7457 13.0076 21.8259 13.2449C21.875 13.3904 21.9321 13.7443 21.9311 13.8979C21.9295 14.1483 21.9132 14.211 21.8804 14.3364Z" stroke="currentColor" stroke-width="2" stroke-linecap="round" stroke-linejoin="round"/>
</svg>
