<svg width="24" height="24" viewBox="0 0 24 24" fill="none" xmlns="http://www.w3.org/2000/svg">
<path opacity="0.4" d="M16.2834 21C18.0942 21 18.9995 21 19.6678 20.6382C20.255 20.3204 20.7193 19.8157 20.9873 19.2042C21.2924 18.5082 21.2172 17.6059 21.0668 15.8014L20.3668 7.40138C20.2374 5.84875 20.1727 5.07243 19.8289 4.48486C19.5261 3.96744 19.0753 3.5526 18.5345 3.29385C17.9204 3 17.1414 3 15.5834 3L8.41665 3C6.85864 3 6.07963 3 5.46553 3.29384C4.92476 3.5526 4.47391 3.96744 4.17114 4.48486C3.82731 5.07243 3.76262 5.84875 3.63323 7.40138L2.93323 15.8014C2.78286 17.6059 2.70767 18.5082 3.0127 19.2042C3.2807 19.8157 3.74504 20.3204 4.3322 20.6382C5.00049 21 5.90588 21 7.71665 21H16.2834Z" stroke="currentColor" stroke-width="2" stroke-linecap="round" stroke-linejoin="round"/>
<path d="M16 8C16 9.06087 15.5786 10.0783 14.8284 10.8284C14.0783 11.5786 13.0609 12 12 12C10.9391 12 9.92172 11.5786 9.17157 10.8284C8.42143 10.0783 8 9.06087 8 8" stroke="currentColor" stroke-width="2" stroke-linecap="round" stroke-linejoin="round"/>
</svg>
