<svg width="24" height="24" viewBox="0 0 24 24" fill="none" xmlns="http://www.w3.org/2000/svg">
<path opacity="0.4" d="M3.5 8H16M16 8V20.5M16 8L20.5 3.5" stroke="currentColor" stroke-width="2" stroke-linecap="round" stroke-linejoin="round"/>
<path d="M3 8.66274C3 8.41815 3 8.29586 3.02763 8.18077C3.05213 8.07873 3.09253 7.98119 3.14736 7.89172C3.2092 7.7908 3.29568 7.70432 3.46863 7.53137L7.53137 3.46863C7.70432 3.29568 7.7908 3.2092 7.89172 3.14736C7.98119 3.09253 8.07873 3.05213 8.18077 3.02763C8.29586 3 8.41815 3 8.66274 3H20.2C20.48 3 20.62 3 20.727 3.0545C20.8211 3.10243 20.8976 3.17892 20.9455 3.273C21 3.37996 21 3.51997 21 3.8V15.3373C21 15.5818 21 15.7041 20.9724 15.8192C20.9479 15.9213 20.9075 16.0188 20.8526 16.1083C20.7908 16.2092 20.7043 16.2957 20.5314 16.4686L16.4686 20.5314C16.2957 20.7043 16.2092 20.7908 16.1083 20.8526C16.0188 20.9075 15.9213 20.9479 15.8192 20.9724C15.7041 21 15.5818 21 15.3373 21H3.8C3.51997 21 3.37996 21 3.273 20.9455C3.17892 20.8976 3.10243 20.8211 3.0545 20.727C3 20.62 3 20.48 3 20.2V8.66274Z" stroke="currentColor" stroke-width="2" stroke-linecap="round" stroke-linejoin="round"/>
</svg>
