<svg width="24" height="24" viewBox="0 0 24 24" fill="none" xmlns="http://www.w3.org/2000/svg">
<path opacity="0.4" d="M15.5355 8.46443C20.2218 13.1507 22.4379 18.5326 20.4852 20.4852C18.5326 22.4379 13.1507 20.2218 8.46443 15.5355C3.77814 10.8492 1.56206 5.4673 3.51468 3.51468C5.4673 1.56206 10.8492 3.77814 15.5355 8.46443Z" stroke="currentColor" stroke-width="2" stroke-linecap="round" stroke-linejoin="round"/>
<path d="M12 12H12.01M15.5355 15.5355C10.8492 20.2218 5.4673 22.4379 3.51468 20.4852C1.56206 18.5326 3.77814 13.1507 8.46443 8.46443C13.1507 3.77814 18.5326 1.56206 20.4852 3.51468C22.4379 5.4673 20.2218 10.8492 15.5355 15.5355ZM12.5 12C12.5 12.2761 12.2761 12.5 12 12.5C11.7238 12.5 11.5 12.2761 11.5 12C11.5 11.7238 11.7238 11.5 12 11.5C12.2761 11.5 12.5 11.7238 12.5 12Z" stroke="currentColor" stroke-width="2" stroke-linecap="round" stroke-linejoin="round"/>
</svg>
