<svg width="24" height="24" viewBox="0 0 24 24" fill="none" xmlns="http://www.w3.org/2000/svg">
<path d="M11 2.26195C11 1.88058 10.5902 1.63961 10.257 1.82502L3.68602 5.48078C3.34335 5.67142 3.3435 6.16435 3.68628 6.35478L10.2572 10.0054C10.5905 10.1905 11 9.94952 11 9.56828V2.26195Z" fill="currentColor"/>
<path d="M2.74319 8.11876C2.40985 7.93357 2.00022 8.1747 2.00037 8.55603L2.00306 15.6779C2.00321 16.0591 2.41269 16.2999 2.74588 16.1148L9.1542 12.5546C9.4971 12.3641 9.4971 11.871 9.1542 11.6805L2.74319 8.11876Z" fill="currentColor"/>
<path d="M3.89259 17.7657C3.54969 17.9562 3.54969 18.4493 3.89259 18.6398L10.2572 22.1757C10.5905 22.3609 11 22.1199 11 21.7387V14.6668C11 14.2856 10.5905 14.0446 10.2572 14.2298L3.89259 17.7657Z" fill="currentColor"/>
<path d="M13 21.7387C13 22.1199 13.4096 22.3609 13.7429 22.1757L20.1075 18.6398C20.4504 18.4493 20.4504 17.9562 20.1075 17.7657L13.7429 14.2298C13.4096 14.0446 13 14.2856 13 14.6668V21.7387Z" fill="currentColor"/>
<path d="M21.2542 16.1148C21.5874 16.2999 21.9969 16.0591 21.997 15.6779L21.9997 8.55603C21.9999 8.1747 21.5902 7.93357 21.2569 8.11876L14.8459 11.6805C14.503 11.871 14.503 12.3641 14.8459 12.5546L21.2542 16.1148Z" fill="currentColor"/>
<path d="M20.3138 6.35478C20.6566 6.16435 20.6567 5.67142 20.3141 5.48077L13.7431 1.82502C13.4099 1.6396 13 1.88057 13 2.26195V9.56828C13 9.94952 13.4096 10.1905 13.7429 10.0054L20.3138 6.35478Z" fill="currentColor"/>
</svg>
