<svg width="24" height="24" viewBox="0 0 24 24" fill="none" xmlns="http://www.w3.org/2000/svg">
<path opacity="0.12" d="M21.2 11.9999C21.4779 11.9999 21.6168 11.9999 21.728 11.9399C21.8209 11.8897 21.9053 11.7983 21.9479 11.7017C21.9989 11.586 21.9886 11.4576 21.968 11.2008C21.8847 10.1613 21.6391 9.13958 21.2388 8.17311C20.7362 6.95986 19.9997 5.85747 19.0711 4.92888C18.1425 4.00029 17.0401 3.2637 15.8268 2.76115C14.8604 2.36083 13.8386 2.11527 12.7992 2.03193C12.5424 2.01134 12.414 2.00105 12.2983 2.05204C12.2017 2.09464 12.1103 2.17903 12.0601 2.27193C12 2.38315 12 2.52208 12 2.79995V11.1999C12 11.48 12 11.62 12.0545 11.7269C12.1024 11.821 12.1789 11.8975 12.273 11.9455C12.38 11.9999 12.52 11.9999 12.8 11.9999H21.2Z" fill="currentColor"/>
<path d="M21.2099 15.8899C20.5737 17.3944 19.5787 18.7202 18.3118 19.7512C17.0449 20.7823 15.5447 21.4874 13.9424 21.8047C12.34 22.1221 10.6843 22.0421 9.12006 21.5717C7.55578 21.1014 6.13054 20.255 4.96893 19.1066C3.80733 17.9582 2.94473 16.5427 2.45655 14.9839C1.96837 13.4251 1.86948 11.7704 2.16851 10.1646C2.46755 8.55873 3.15541 7.05058 4.17196 5.77198C5.18851 4.49338 6.5028 3.48327 7.99992 2.82995M21.2387 8.17311C21.639 9.13958 21.8846 10.1613 21.9679 11.2008C21.9885 11.4576 21.9988 11.586 21.9478 11.7017C21.9052 11.7983 21.8208 11.8897 21.7279 11.9399C21.6167 11.9999 21.4778 11.9999 21.1999 11.9999H12.7999C12.5199 11.9999 12.3799 11.9999 12.2729 11.9455C12.1788 11.8975 12.1023 11.821 12.0544 11.7269C11.9999 11.62 11.9999 11.48 11.9999 11.1999V2.79995C11.9999 2.52208 11.9999 2.38315 12.06 2.27193C12.1102 2.17903 12.2016 2.09464 12.2982 2.05204C12.4139 2.00105 12.5423 2.01134 12.7991 2.03193C13.8386 2.11527 14.8603 2.36083 15.8267 2.76115C17.04 3.2637 18.1424 4.00029 19.071 4.92888C19.9996 5.85747 20.7362 6.95986 21.2387 8.17311Z" stroke="currentColor" stroke-width="2" stroke-linecap="round" stroke-linejoin="round"/>
</svg>
