<svg width="24" height="24" viewBox="0 0 24 24" fill="none" xmlns="http://www.w3.org/2000/svg">
<path opacity="0.4" d="M12 15L12 22" stroke="currentColor" stroke-width="2" stroke-linecap="round" stroke-linejoin="round"/>
<path d="M6.87769 4.19423C6.58366 3.45914 6.43664 3.09159 6.49795 2.79655C6.55157 2.53853 6.70486 2.31211 6.92451 2.1665C7.17568 2 7.57154 2 8.36326 2H15.6367C16.4285 2 16.8243 2 17.0755 2.1665C17.2951 2.31211 17.4484 2.53853 17.5021 2.79655C17.5634 3.09159 17.4163 3.45914 17.1223 4.19423L16.1144 6.71391C16.0717 6.8208 16.0503 6.87424 16.0353 6.92937C16.0219 6.97833 16.0123 7.02825 16.0065 7.07868C16 7.13544 16 7.19301 16 7.30813V9.43875C16 9.64677 16 9.75078 16.0204 9.85026C16.0385 9.93852 16.0685 10.0239 16.1095 10.1042C16.1557 10.1946 16.2207 10.2758 16.3506 10.4383L17.9204 12.4005C18.5861 13.2327 18.919 13.6487 18.9194 13.9989C18.9197 14.3035 18.7812 14.5916 18.5432 14.7815C18.2696 15 17.7367 15 16.671 15H7.329C6.2633 15 5.73045 15 5.45678 14.7815C5.21876 14.5916 5.0803 14.3035 5.08063 13.9989C5.08101 13.6487 5.41387 13.2327 6.07961 12.4005L7.64939 10.4383C7.77934 10.2758 7.84431 10.1946 7.89052 10.1042C7.93151 10.0239 7.96147 9.93852 7.97959 9.85026C8 9.75078 8 9.64677 8 9.43875V7.30813C8 7.19301 8 7.13544 7.99349 7.07868C7.98771 7.02825 7.9781 6.97833 7.96474 6.92937C7.9497 6.87424 7.92832 6.8208 7.88557 6.71391L6.87769 4.19423Z" stroke="currentColor" stroke-width="2" stroke-linecap="round" stroke-linejoin="round"/>
</svg>
