<svg width="24" height="24" viewBox="0 0 24 24" fill="none" xmlns="http://www.w3.org/2000/svg">
<path opacity="0.4" d="M8.37658 15.6163L2.71973 21.2732" stroke="currentColor" stroke-width="2" stroke-linecap="round" stroke-linejoin="round"/>
<path d="M13.1025 3.64636C13.4144 2.91866 13.5704 2.55481 13.8223 2.38953C14.0427 2.245 14.3112 2.19329 14.5695 2.24565C14.8648 2.30552 15.1447 2.58543 15.7045 3.14526L20.8477 8.28839C21.4075 8.84822 21.6874 9.12813 21.7473 9.42348C21.7997 9.68175 21.7479 9.95025 21.6034 10.1706C21.4381 10.4226 21.0743 10.5785 20.3466 10.8904L17.8522 11.9594C17.7464 12.0048 17.6935 12.0274 17.6439 12.0558C17.5998 12.081 17.5577 12.1095 17.518 12.141C17.4732 12.1766 17.4325 12.2173 17.3511 12.2987L15.7902 13.8596C15.6629 13.9869 15.5993 14.0505 15.5487 14.1231C15.5038 14.1875 15.4666 14.2569 15.4379 14.33C15.4057 14.4123 15.388 14.5006 15.3527 14.6771L14.6198 18.3416C14.4293 19.2939 14.3341 19.7701 14.083 19.9928C13.8643 20.1869 13.5716 20.2755 13.282 20.2354C12.9496 20.1893 12.6062 19.8459 11.9195 19.1592L4.83375 12.0735C4.14704 11.3867 3.80368 11.0434 3.75759 10.7109C3.71744 10.4213 3.80606 10.1286 4.00012 9.9099C4.22288 9.65884 4.69903 9.56361 5.65134 9.37315L9.3158 8.64026C9.49237 8.60495 9.58065 8.58729 9.66297 8.555C9.73605 8.52634 9.80549 8.48917 9.86987 8.44427C9.9424 8.39369 10.0061 8.33003 10.1334 8.2027L11.6943 6.64181C11.7757 6.56041 11.8164 6.51971 11.8519 6.47496C11.8835 6.43522 11.912 6.39313 11.9372 6.34905C11.9655 6.29944 11.9882 6.24653 12.0335 6.14071L13.1025 3.64636Z" stroke="currentColor" stroke-width="2" stroke-linecap="round" stroke-linejoin="round"/>
</svg>
