<svg width="24" height="24" viewBox="0 0 24 24" fill="none" xmlns="http://www.w3.org/2000/svg">
<g opacity="0.12">
<path d="M13.1312 20.1315C12.7352 19.7354 12.5372 19.5374 12.463 19.3091C12.3977 19.1083 12.3977 18.8919 12.463 18.6911C12.5372 18.4627 12.7352 18.2647 13.1312 17.8687L17.8685 13.1315C18.2645 12.7354 18.4625 12.5374 18.6908 12.4633C18.8917 12.398 19.108 12.398 19.3089 12.4633C19.5372 12.5374 19.7352 12.7354 20.1312 13.1315L20.8685 13.8687C21.2645 14.2647 21.4625 14.4627 21.5367 14.6911C21.6019 14.8919 21.6019 15.1083 21.5367 15.3091C21.4625 15.5374 21.2645 15.7354 20.8685 16.1315L16.1312 20.8687C15.7352 21.2647 15.5372 21.4627 15.3089 21.5369C15.108 21.6022 14.8917 21.6022 14.6908 21.5369C14.4625 21.4627 14.2645 21.2647 13.8685 20.8687L13.1312 20.1315Z" fill="currentColor"/>
<path d="M11 13C12.1046 13 13 12.1046 13 11C13 9.89543 12.1046 9 11 9C9.89543 9 9 9.89543 9 11C9 12.1046 9.89543 13 11 13Z" fill="currentColor"/>
</g>
<path d="M18 13L16.7004 6.50182C16.6278 6.13883 16.5915 5.95733 16.5032 5.80953C16.4252 5.67886 16.3183 5.56773 16.1908 5.4846C16.0466 5.39057 15.8667 5.34714 15.5069 5.26028L2 2M2 2L5.26028 15.5069C5.34714 15.8667 5.39057 16.0466 5.4846 16.1908C5.56773 16.3183 5.67886 16.4252 5.80953 16.5032C5.95733 16.5915 6.13883 16.6278 6.50182 16.7004L13 18M2 2L9.586 9.586M16.1314 20.8686L20.8686 16.1314C21.2646 15.7354 21.4627 15.5373 21.5368 15.309C21.6021 15.1082 21.6021 14.8918 21.5368 14.691C21.4627 14.4627 21.2646 14.2646 20.8686 13.8686L20.1314 13.1314C19.7354 12.7354 19.5373 12.5373 19.309 12.4632C19.1082 12.3979 18.8918 12.3979 18.691 12.4632C18.4627 12.5373 18.2646 12.7354 17.8686 13.1314L13.1314 17.8686C12.7354 18.2646 12.5373 18.4627 12.4632 18.691C12.3979 18.8918 12.3979 19.1082 12.4632 19.309C12.5373 19.5373 12.7354 19.7354 13.1314 20.1314L13.8686 20.8686C14.2646 21.2646 14.4627 21.4627 14.691 21.5368C14.8918 21.6021 15.1082 21.6021 15.309 21.5368C15.5373 21.4627 15.7354 21.2646 16.1314 20.8686ZM13 11C13 12.1046 12.1046 13 11 13C9.89543 13 9 12.1046 9 11C9 9.89543 9.89543 9 11 9C12.1046 9 13 9.89543 13 11Z" stroke="currentColor" stroke-width="2" stroke-linecap="round" stroke-linejoin="round"/>
</svg>
