<svg width="24" height="24" viewBox="0 0 24 24" fill="none" xmlns="http://www.w3.org/2000/svg">
<path opacity="0.4" d="M14.3909 18.0149C14.8197 19.6153 13.87 21.2603 12.2696 21.6891C10.6692 22.118 9.02416 21.1682 8.59534 19.5678" stroke="currentColor" stroke-width="2" stroke-linecap="round" stroke-linejoin="round"/>
<path d="M10.8915 5.74085C11.1957 5.19355 11.2959 4.53205 11.121 3.87945C10.7637 2.54579 9.39282 1.75433 8.05915 2.11168C6.72549 2.46904 5.93403 3.83988 6.29139 5.17355C6.46625 5.82614 6.88378 6.34891 7.42088 6.67079M16.2359 9.4453C15.879 8.11316 14.926 6.9992 13.5868 6.34847C12.2475 5.69773 10.6316 5.56354 9.09449 5.9754C7.55741 6.38725 6.22508 7.31143 5.3906 8.54462C4.55612 9.77781 4.28785 11.219 4.64479 12.5511C5.23537 14.7552 5.12069 16.5135 4.74774 17.8497C4.32267 19.3726 4.11014 20.134 4.16756 20.2869C4.23325 20.4618 4.28076 20.5098 4.455 20.5773C4.60729 20.6363 5.24706 20.4649 6.5266 20.122L18.3917 16.9428C19.6712 16.6 20.311 16.4285 20.4134 16.3013C20.5305 16.1557 20.5476 16.0904 20.5171 15.906C20.4904 15.7449 19.9256 15.1918 18.796 14.0855C17.805 13.1148 16.8265 11.6493 16.2359 9.4453Z" stroke="currentColor" stroke-width="2" stroke-linecap="round" stroke-linejoin="round"/>
</svg>
