<svg width="24" height="24" viewBox="0 0 24 24" fill="none" xmlns="http://www.w3.org/2000/svg">
<path opacity="0.4" d="M17 2V13" stroke="currentColor" stroke-width="2" stroke-linecap="round" stroke-linejoin="round"/>
<path d="M3.37388 6.07012C3.59611 4.62564 3.70722 3.90339 4.06129 3.36072C4.37335 2.88242 4.81545 2.50314 5.33563 2.26743C5.92584 2 6.65658 2 8.11806 2H18.8001C19.9202 2 20.4802 2 20.908 2.21799C21.2844 2.40973 21.5903 2.71569 21.7821 3.09202C22.0001 3.51984 22.0001 4.07989 22.0001 5.2V9.8C22.0001 10.9201 22.0001 11.4802 21.7821 11.908C21.5903 12.2843 21.2844 12.5903 20.908 12.782C20.4802 13 19.9202 13 18.8001 13H18.0398C17.6635 13 17.4753 13 17.311 13.0592C17.1658 13.1115 17.0346 13.1967 16.9278 13.3082C16.807 13.4343 16.7306 13.6062 16.5778 13.9502L13.217 21.5119C13.0851 21.8087 12.7907 22 12.4659 22C11.104 22 10.0001 20.896 10.0001 19.5342V16.6C10.0001 16.0399 10.0001 15.7599 9.89106 15.546C9.79519 15.3578 9.64221 15.2049 9.45404 15.109C9.24013 15 8.96011 15 8.40005 15H7.59499C5.66739 15 4.70358 15 4.01398 14.6079C3.4087 14.2637 2.94199 13.7197 2.69386 13.0691C2.41114 12.3279 2.5577 11.3753 2.8508 9.47012L3.37388 6.07012Z" stroke="currentColor" stroke-width="2" stroke-linecap="round" stroke-linejoin="round"/>
</svg>
