<svg width="24" height="24" viewBox="0 0 24 24" fill="none" xmlns="http://www.w3.org/2000/svg">
<g opacity="0.12">
<path d="M16 17.6C16 17.0399 16 16.7599 16.109 16.546C16.2049 16.3578 16.3578 16.2049 16.546 16.109C16.7599 16 17.0399 16 17.6 16H19.4C19.9601 16 20.2401 16 20.454 16.109C20.6422 16.2049 20.7951 16.3578 20.891 16.546C21 16.7599 21 17.0399 21 17.6V19.4C21 19.9601 21 20.2401 20.891 20.454C20.7951 20.6422 20.6422 20.7951 20.454 20.891C20.2401 21 19.9601 21 19.4 21H17.6C17.0399 21 16.7599 21 16.546 20.891C16.3578 20.7951 16.2049 20.6422 16.109 20.454C16 20.2401 16 19.9601 16 19.4V17.6Z" fill="currentColor"/>
<path d="M16 4.6C16 4.03995 16 3.75992 16.109 3.54601C16.2049 3.35785 16.3578 3.20487 16.546 3.10899C16.7599 3 17.0399 3 17.6 3H19.4C19.9601 3 20.2401 3 20.454 3.10899C20.6422 3.20487 20.7951 3.35785 20.891 3.54601C21 3.75992 21 4.03995 21 4.6V6.4C21 6.96005 21 7.24008 20.891 7.45399C20.7951 7.64215 20.6422 7.79513 20.454 7.89101C20.2401 8 19.9601 8 19.4 8H17.6C17.0399 8 16.7599 8 16.546 7.89101C16.3578 7.79513 16.2049 7.64215 16.109 7.45399C16 7.24008 16 6.96005 16 6.4V4.6Z" fill="currentColor"/>
<path d="M3 4.6C3 4.03995 3 3.75992 3.10899 3.54601C3.20487 3.35785 3.35785 3.20487 3.54601 3.10899C3.75992 3 4.03995 3 4.6 3H6.4C6.96005 3 7.24008 3 7.45399 3.10899C7.64215 3.20487 7.79513 3.35785 7.89101 3.54601C8 3.75992 8 4.03995 8 4.6V6.4C8 6.96005 8 7.24008 7.89101 7.45399C7.79513 7.64215 7.64215 7.79513 7.45399 7.89101C7.24008 8 6.96005 8 6.4 8H4.6C4.03995 8 3.75992 8 3.54601 7.89101C3.35785 7.79513 3.20487 7.64215 3.10899 7.45399C3 7.24008 3 6.96005 3 6.4V4.6Z" fill="currentColor"/>
</g>
<path d="M7 12H12V17M3.01 12H3M8.01 17H8M12.01 21H12M21.01 12H21M3 17H4.5M15.5 12H17.5M3 21H8M12 2V8M17.6 21H19.4C19.9601 21 20.2401 21 20.454 20.891C20.6422 20.7951 20.7951 20.6422 20.891 20.454C21 20.2401 21 19.9601 21 19.4V17.6C21 17.0399 21 16.7599 20.891 16.546C20.7951 16.3578 20.6422 16.2049 20.454 16.109C20.2401 16 19.9601 16 19.4 16H17.6C17.0399 16 16.7599 16 16.546 16.109C16.3578 16.2049 16.2049 16.3578 16.109 16.546C16 16.7599 16 17.0399 16 17.6V19.4C16 19.9601 16 20.2401 16.109 20.454C16.2049 20.6422 16.3578 20.7951 16.546 20.891C16.7599 21 17.0399 21 17.6 21ZM17.6 8H19.4C19.9601 8 20.2401 8 20.454 7.89101C20.6422 7.79513 20.7951 7.64215 20.891 7.45399C21 7.24008 21 6.96005 21 6.4V4.6C21 4.03995 21 3.75992 20.891 3.54601C20.7951 3.35785 20.6422 3.20487 20.454 3.10899C20.2401 3 19.9601 3 19.4 3H17.6C17.0399 3 16.7599 3 16.546 3.10899C16.3578 3.20487 16.2049 3.35785 16.109 3.54601C16 3.75992 16 4.03995 16 4.6V6.4C16 6.96005 16 7.24008 16.109 7.45399C16.2049 7.64215 16.3578 7.79513 16.546 7.89101C16.7599 8 17.0399 8 17.6 8ZM4.6 8H6.4C6.96005 8 7.24008 8 7.45399 7.89101C7.64215 7.79513 7.79513 7.64215 7.89101 7.45399C8 7.24008 8 6.96005 8 6.4V4.6C8 4.03995 8 3.75992 7.89101 3.54601C7.79513 3.35785 7.64215 3.20487 7.45399 3.10899C7.24008 3 6.96005 3 6.4 3H4.6C4.03995 3 3.75992 3 3.54601 3.10899C3.35785 3.20487 3.20487 3.35785 3.10899 3.54601C3 3.75992 3 4.03995 3 4.6V6.4C3 6.96005 3 7.24008 3.10899 7.45399C3.20487 7.64215 3.35785 7.79513 3.54601 7.89101C3.75992 8 4.03995 8 4.6 8Z" stroke="currentColor" stroke-width="2" stroke-linecap="round" stroke-linejoin="round"/>
</svg>
