<svg width="24" height="24" viewBox="0 0 24 24" fill="none" xmlns="http://www.w3.org/2000/svg">
<path fill-rule="evenodd" clip-rule="evenodd" d="M2 3C2 2.44772 2.44772 2 3 2H3.01C3.56229 2 4.01 2.44772 4.01 3C4.01 3.55228 3.56229 4 3.01 4H3C2.44772 4 2 3.55228 2 3Z" fill="currentColor"/>
<path fill-rule="evenodd" clip-rule="evenodd" d="M2 12C2 11.4477 2.44772 11 3 11H3.01C3.56229 11 4.01 11.4477 4.01 12C4.01 12.5523 3.56229 13 3.01 13H3C2.44772 13 2 12.5523 2 12Z" fill="currentColor"/>
<path fill-rule="evenodd" clip-rule="evenodd" d="M2 21C2 20.4477 2.44772 20 3 20H3.01C3.56229 20 4.01 20.4477 4.01 21C4.01 21.5523 3.56229 22 3.01 22H3C2.44772 22 2 21.5523 2 21Z" fill="currentColor"/>
<path fill-rule="evenodd" clip-rule="evenodd" d="M2 16.5C2 15.9477 2.44772 15.5 3 15.5H3.01C3.56229 15.5 4.01 15.9477 4.01 16.5C4.01 17.0523 3.56229 17.5 3.01 17.5H3C2.44772 17.5 2 17.0523 2 16.5Z" fill="currentColor"/>
<path fill-rule="evenodd" clip-rule="evenodd" d="M2 7.5C2 6.94772 2.44772 6.5 3 6.5H3.01C3.56229 6.5 4.01 6.94772 4.01 7.5C4.01 8.05228 3.56229 8.5 3.01 8.5H3C2.44772 8.5 2 8.05228 2 7.5Z" fill="currentColor"/>
<path fill-rule="evenodd" clip-rule="evenodd" d="M6.5 3C6.5 2.44772 6.94772 2 7.5 2H7.51C8.06229 2 8.51 2.44772 8.51 3C8.51 3.55228 8.06229 4 7.51 4H7.5C6.94772 4 6.5 3.55228 6.5 3Z" fill="currentColor"/>
<path fill-rule="evenodd" clip-rule="evenodd" d="M6.5 12C6.5 11.4477 6.94772 11 7.5 11H7.51C8.06229 11 8.51 11.4477 8.51 12C8.51 12.5523 8.06229 13 7.51 13H7.5C6.94772 13 6.5 12.5523 6.5 12Z" fill="currentColor"/>
<path fill-rule="evenodd" clip-rule="evenodd" d="M6.5 21C6.5 20.4477 6.94772 20 7.5 20H7.51C8.06229 20 8.51 20.4477 8.51 21C8.51 21.5523 8.06229 22 7.51 22H7.5C6.94772 22 6.5 21.5523 6.5 21Z" fill="currentColor"/>
<path fill-rule="evenodd" clip-rule="evenodd" d="M15.5 3C15.5 2.44772 15.9477 2 16.5 2H16.51C17.0623 2 17.51 2.44772 17.51 3C17.51 3.55228 17.0623 4 16.51 4H16.5C15.9477 4 15.5 3.55228 15.5 3Z" fill="currentColor"/>
<path fill-rule="evenodd" clip-rule="evenodd" d="M15.5 12C15.5 11.4477 15.9477 11 16.5 11H16.51C17.0623 11 17.51 11.4477 17.51 12C17.51 12.5523 17.0623 13 16.51 13H16.5C15.9477 13 15.5 12.5523 15.5 12Z" fill="currentColor"/>
<path fill-rule="evenodd" clip-rule="evenodd" d="M15.5 21C15.5 20.4477 15.9477 20 16.5 20H16.51C17.0623 20 17.51 20.4477 17.51 21C17.51 21.5523 17.0623 22 16.51 22H16.5C15.9477 22 15.5 21.5523 15.5 21Z" fill="currentColor"/>
<path fill-rule="evenodd" clip-rule="evenodd" d="M20 3C20 2.44772 20.4477 2 21 2H21.01C21.5623 2 22.01 2.44772 22.01 3C22.01 3.55228 21.5623 4 21.01 4H21C20.4477 4 20 3.55228 20 3Z" fill="currentColor"/>
<path fill-rule="evenodd" clip-rule="evenodd" d="M20 12C20 11.4477 20.4477 11 21 11H21.01C21.5623 11 22.01 11.4477 22.01 12C22.01 12.5523 21.5623 13 21.01 13H21C20.4477 13 20 12.5523 20 12Z" fill="currentColor"/>
<path fill-rule="evenodd" clip-rule="evenodd" d="M20 21C20 20.4477 20.4477 20 21 20H21.01C21.5623 20 22.01 20.4477 22.01 21C22.01 21.5523 21.5623 22 21.01 22H21C20.4477 22 20 21.5523 20 21Z" fill="currentColor"/>
<path fill-rule="evenodd" clip-rule="evenodd" d="M20 16.5C20 15.9477 20.4477 15.5 21 15.5H21.01C21.5623 15.5 22.01 15.9477 22.01 16.5C22.01 17.0523 21.5623 17.5 21.01 17.5H21C20.4477 17.5 20 17.0523 20 16.5Z" fill="currentColor"/>
<path fill-rule="evenodd" clip-rule="evenodd" d="M20 7.5C20 6.94772 20.4477 6.5 21 6.5H21.01C21.5623 6.5 22.01 6.94772 22.01 7.5C22.01 8.05228 21.5623 8.5 21.01 8.5H21C20.4477 8.5 20 8.05228 20 7.5Z" fill="currentColor"/>
<path fill-rule="evenodd" clip-rule="evenodd" d="M12 2C12.5523 2 13 2.44772 13 3L13 21C13 21.5523 12.5523 22 12 22C11.4477 22 11 21.5523 11 21L11 3C11 2.44772 11.4477 2 12 2Z" fill="currentColor"/>
</svg>
