<svg width="24" height="24" viewBox="0 0 24 24" fill="none" xmlns="http://www.w3.org/2000/svg">
<path opacity="0.4" d="M16 8V5.2C16 4.0799 16 3.51984 15.782 3.09202C15.5903 2.71569 15.2843 2.40973 14.908 2.21799C14.4802 2 13.9201 2 12.8 2H5.2C4.0799 2 3.51984 2 3.09202 2.21799C2.71569 2.40973 2.40973 2.71569 2.21799 3.09202C2 3.51984 2 4.0799 2 5.2V12.8C2 13.9201 2 14.4802 2.21799 14.908C2.40973 15.2843 2.71569 15.5903 3.09202 15.782C3.51984 16 4.0799 16 5.2 16H8" stroke="currentColor" stroke-width="2" stroke-linecap="round" stroke-linejoin="round"/>
<path d="M8 11.2C8 10.0799 8 9.51984 8.21799 9.09202C8.40973 8.71569 8.71569 8.40973 9.09202 8.21799C9.51984 8 10.0799 8 11.2 8H18.8C19.9201 8 20.4802 8 20.908 8.21799C21.2843 8.40973 21.5903 8.71569 21.782 9.09202C22 9.51984 22 10.0799 22 11.2V18.8C22 19.9201 22 20.4802 21.782 20.908C21.5903 21.2843 21.2843 21.5903 20.908 21.782C20.4802 22 19.9201 22 18.8 22H11.2C10.0799 22 9.51984 22 9.09202 21.782C8.71569 21.5903 8.40973 21.2843 8.21799 20.908C8 20.4802 8 19.9201 8 18.8V11.2Z" stroke="currentColor" stroke-width="2" stroke-linecap="round" stroke-linejoin="round"/>
</svg>
