<svg width="24" height="24" viewBox="0 0 24 24" fill="none" xmlns="http://www.w3.org/2000/svg">
<path opacity="0.4" d="M21 18L19.9999 19.094C19.4695 19.6741 18.7502 20 18.0002 20C17.2501 20 16.5308 19.6741 16.0004 19.094C15.4692 18.5151 14.75 18.1901 14.0002 18.1901C13.2504 18.1901 12.5312 18.5151 12 19.094" stroke="currentColor" stroke-width="2" stroke-linecap="round" stroke-linejoin="round"/>
<path d="M3.00003 18.3255C3.00003 17.8363 3.00003 17.5917 3.05529 17.3615C3.10428 17.1574 3.18509 16.9624 3.29475 16.7834C3.41843 16.5816 3.59139 16.4086 3.93729 16.0627L16.5001 3.49998C17.3285 2.67156 18.6716 2.67156 19.5001 3.49998C20.3285 4.32841 20.3285 5.67156 19.5001 6.49998L6.93732 19.0627C6.59141 19.4086 6.41846 19.5816 6.21663 19.7053C6.03768 19.8149 5.84259 19.8957 5.63852 19.9447C5.40835 20 5.16376 20 4.67457 20H3.00003V18.3255Z" stroke="currentColor" stroke-width="2" stroke-linecap="round" stroke-linejoin="round"/>
</svg>
