<svg width="24" height="24" viewBox="0 0 24 24" fill="none" xmlns="http://www.w3.org/2000/svg">
<path d="M3.38614 5.66687C2.6298 4.82155 2.25163 4.39889 2.23736 4.03968C2.22497 3.72764 2.35907 3.42772 2.59988 3.22889C2.87708 3 3.44423 3 4.57852 3H19.4215C20.5557 3 21.1229 3 21.4001 3.22889C21.6409 3.42772 21.775 3.72764 21.7626 4.03968C21.7484 4.39889 21.3702 4.82155 20.6138 5.66687L14.9076 12.0444C14.7568 12.2129 14.6815 12.2972 14.6277 12.3931C14.58 12.4781 14.545 12.5697 14.5239 12.6648C14.5 12.7721 14.5 12.8852 14.5 13.1113V18.4584C14.5 18.6539 14.5 18.7517 14.4684 18.8363C14.4406 18.911 14.3953 18.9779 14.3362 19.0315C14.2695 19.0922 14.1787 19.1285 13.9971 19.2012L10.5971 20.5612C10.2296 20.7082 10.0458 20.7817 9.89826 20.751C9.76926 20.7242 9.65604 20.6476 9.58324 20.5377C9.49999 20.4122 9.49999 20.2142 9.49999 19.8184V13.1113C9.49999 12.8852 9.49999 12.7721 9.47611 12.6648C9.45493 12.5697 9.41995 12.4781 9.37228 12.3931C9.31853 12.2972 9.24314 12.2129 9.09238 12.0444L3.38614 5.66687Z" stroke="currentColor" stroke-width="2" stroke-linecap="round" stroke-linejoin="round"/>
</svg>
