<svg width="24" height="24" viewBox="0 0 24 24" fill="none" xmlns="http://www.w3.org/2000/svg">
<path opacity="0.4" d="M3.34025 16.9997C2.08809 14.8298 2.72473 12.0644 4.79795 10.66L4.80017 10.6578C6.46564 9.53233 8.65775 9.5701 10.2843 10.7523L13.7164 13.2477C15.3418 14.4298 17.5339 14.4676 19.2005 13.3421L19.2027 13.3399C21.2771 11.9355 21.9148 9.1679 20.6604 7.00024M17.0019 20.6593C14.8321 21.9114 12.0667 21.2748 10.6623 19.2016L10.6601 19.1993C9.53456 17.5339 9.57234 15.3418 10.7545 13.7152L13.2499 10.2831C14.4321 8.65768 14.4699 6.46557 13.3444 4.79899L13.3399 4.79677C11.9355 2.72466 9.16792 2.0858 7.00025 3.34018" stroke="currentColor" stroke-width="2" stroke-linecap="round" stroke-linejoin="round"/>
<path d="M19.0705 4.92901C22.9758 8.83436 22.9758 15.1651 19.0705 19.0705C15.1651 22.9758 8.83436 22.9758 4.92901 19.0705C1.02366 15.1651 1.02366 8.83436 4.92901 4.92901C8.83436 1.02366 15.1651 1.02366 19.0705 4.92901Z" stroke="currentColor" stroke-width="2" stroke-linecap="round" stroke-linejoin="round"/>
</svg>
