<svg width="24" height="24" viewBox="0 0 24 24" fill="none" xmlns="http://www.w3.org/2000/svg">
<path opacity="0.4" d="M15.0505 9H5.5C4.11929 9 3 7.88071 3 6.5C3 5.11929 4.11929 4 5.5 4H15.0505M8.94949 20H18.5C19.8807 20 21 18.8807 21 17.5C21 16.1193 19.8807 15 18.5 15H8.94949" stroke="currentColor" stroke-width="2" stroke-linecap="round" stroke-linejoin="round"/>
<path d="M6.5 21C4.567 21 3 19.433 3 17.5C3 15.567 4.567 14 6.5 14C8.433 14 10 15.567 10 17.5C10 19.433 8.433 21 6.5 21Z" stroke="currentColor" stroke-width="2" stroke-linecap="round" stroke-linejoin="round"/>
<path d="M17.5 10C19.433 10 21 8.433 21 6.5C21 4.567 19.433 3 17.5 3C15.567 3 14 4.567 14 6.5C14 8.433 15.567 10 17.5 10Z" stroke="currentColor" stroke-width="2" stroke-linecap="round" stroke-linejoin="round"/>
</svg>
