<svg width="24" height="24" viewBox="0 0 24 24" fill="none" xmlns="http://www.w3.org/2000/svg">
<path opacity="0.4" d="M12 2V7M12 17V22M4.92891 4.92893L8.46444 8.46447M15.5355 15.5355L19.071 19.0711M2 12H7M17 12H22M4.92891 19.0711L8.46444 15.5355M15.5355 8.46447L19.071 4.92893" stroke="currentColor" stroke-width="2" stroke-linecap="round" stroke-linejoin="round"/>
<path d="M9.91993 2.21663C10.5909 2.07467 11.2867 2 12 2C12.7133 2 13.4091 2.07467 14.0801 2.21663M21.7833 9.91978C21.9253 10.5908 22 11.2867 22 12C22 12.713 21.9254 13.4086 21.7835 14.0794M14.0771 21.784C13.407 21.9255 12.7122 22 12 22C11.2852 22 10.5878 21.925 9.91547 21.7824M2.21666 14.0802C2.07469 13.4092 2 12.7133 2 12C2 11.2856 2.0749 10.5888 2.21729 9.91683M17.4467 3.61208C18.621 4.37619 19.6249 5.38023 20.3888 6.55469M20.386 17.4496C19.622 18.6229 18.6183 19.626 17.4445 20.3893M6.55373 20.3882C5.38106 19.6252 4.37834 18.623 3.61477 17.4508M3.61173 6.55387C4.37547 5.37994 5.37896 4.37633 6.55278 3.61244M17 12C17 14.7614 14.7614 17 12 17C9.23858 17 7 14.7614 7 12C7 9.23858 9.23858 7 12 7C14.7614 7 17 9.23858 17 12Z" stroke="currentColor" stroke-width="2" stroke-linecap="round" stroke-linejoin="round"/>
</svg>
