<svg width="24" height="24" viewBox="0 0 24 24" fill="none" xmlns="http://www.w3.org/2000/svg">
<path opacity="0.4" d="M12 22C17.5228 22 22 17.5228 22 12C22 6.47715 17.5228 2 12 2C6.47715 2 2 6.47715 2 12C2 17.5228 6.47715 22 12 22Z" stroke="currentColor" stroke-width="2" stroke-linecap="round" stroke-linejoin="round"/>
<path d="M12 5.5L7.36156 12.2468C7.08233 12.6529 6.94272 12.856 6.9511 13.0248C6.9584 13.1718 7.03012 13.3082 7.14713 13.3975C7.28148 13.5 7.52792 13.5 8.02079 13.5H12V18.5L16.6384 11.7532C16.9176 11.3471 17.0572 11.144 17.0488 10.9752C17.0415 10.8282 16.9698 10.6918 16.8528 10.6025C16.7185 10.5 16.472 10.5 15.9791 10.5H12V5.5Z" stroke="currentColor" stroke-width="2" stroke-linecap="round" stroke-linejoin="round"/>
</svg>
