<svg width="24" height="24" viewBox="0 0 24 24" fill="none" xmlns="http://www.w3.org/2000/svg">
<path opacity="0.4" d="M21.4155 15.3413C18.5924 17.3496 14.8895 17.5727 11.8771 16.0001M2.58447 8.65903C5.41442 6.6458 9.12847 6.42652 12.1449 8.01163M15.3737 14.1245C18.2604 12.3052 19.9319 8.97427 19.601 5.51236M8.58186 9.90385C5.72234 11.7292 4.06962 15.0437 4.3988 18.4879M15.5269 10.1372C15.3939 6.72865 13.345 3.61699 10.1821 2.17236M8.47565 13.9258C8.63115 17.3097 10.6743 20.3922 13.8178 21.8279M14.8285 9.17171C16.3906 10.7338 16.3906 13.2665 14.8285 14.8286C13.2664 16.3907 10.7337 16.3907 9.1716 14.8286C7.6095 13.2665 7.6095 10.7338 9.1716 9.17171C10.7337 7.60962 13.2664 7.60962 14.8285 9.17171Z" stroke="currentColor" stroke-width="2" stroke-linecap="round" stroke-linejoin="round"/>
<path d="M19.071 4.92893C22.9763 8.83418 22.9763 15.1658 19.071 19.071C15.1658 22.9763 8.83416 22.9763 4.92893 19.071C1.02369 15.1658 1.02369 8.83416 4.92893 4.92893C8.83418 1.02369 15.1658 1.02369 19.071 4.92893" stroke="currentColor" stroke-width="2" stroke-linecap="round" stroke-linejoin="round"/>
</svg>
