<svg width="24" height="24" viewBox="0 0 24 24" fill="none" xmlns="http://www.w3.org/2000/svg">
<path opacity="0.4" d="M8.49988 10.5C9.60445 10.5 10.4999 9.60457 10.4999 8.5C10.4999 7.39543 9.60445 6.5 8.49988 6.5C7.39531 6.5 6.49988 7.39543 6.49988 8.5C6.49988 9.60457 7.39531 10.5 8.49988 10.5Z" stroke="currentColor" stroke-width="2" stroke-linecap="round" stroke-linejoin="round"/>
<path d="M5.99958 20.0004L14.8686 11.1314C15.2646 10.7354 15.4627 10.5373 15.691 10.4632C15.8918 10.3979 16.1082 10.3979 16.309 10.4632C16.5373 10.5373 16.7354 10.7354 17.1314 11.1314L21.4053 15.4053M22 12C22 17.5228 17.5228 22 12 22C6.47715 22 2 17.5228 2 12C2 6.47715 6.47715 2 12 2C17.5228 2 22 6.47715 22 12Z" stroke="currentColor" stroke-width="2" stroke-linecap="round" stroke-linejoin="round"/>
</svg>
