<svg width="24" height="24" viewBox="0 0 24 24" fill="none" xmlns="http://www.w3.org/2000/svg">
<g opacity="0.4">
<path d="M22 12C22 17.5228 17.5229 22 12 22C6.47716 22 2.00001 17.5228 2.00001 12C2.00001 6.47715 6.47716 2 12 2C17.5229 2 22 6.47715 22 12Z" stroke="currentColor" stroke-width="2" stroke-linecap="round" stroke-linejoin="round"/>
<path d="M8.25395 21.2718C5.99616 20.3596 4.14881 18.6549 3.05847 16.4776C1.96813 14.3002 1.70974 11.7999 2.33178 9.44554L12 12L8.25395 21.2718Z" stroke="currentColor" stroke-width="2" stroke-linecap="round" stroke-linejoin="round"/>
</g>
<path d="M2.34082 9.41181C2.91521 7.26815 4.18637 5.37647 5.95409 4.0347C7.72181 2.69293 9.88564 1.97731 12.1048 2.00055L12.0001 12L2.34082 9.41181Z" stroke="currentColor" stroke-width="2" stroke-linecap="round" stroke-linejoin="round"/>
</svg>
