<svg width="24" height="24" viewBox="0 0 24 24" fill="none" xmlns="http://www.w3.org/2000/svg">
<path fill-rule="evenodd" clip-rule="evenodd" d="M12.457 1.24555C12.1564 1.17499 11.8436 1.17499 11.543 1.24555C11.1949 1.32725 10.8913 1.52631 10.6496 1.68477L2.1271 7.22446C1.92133 7.35722 1.66247 7.52423 1.46531 7.76018C1.29471 7.96433 1.16655 8.20048 1.08835 8.45479C0.99798 8.74868 0.999027 9.05674 0.99986 9.30162V14.6983C0.999027 14.9431 0.99798 15.2512 1.08835 15.5451C1.16655 15.7994 1.29471 16.0355 1.46531 16.2397C1.66247 16.4756 1.92133 16.6427 2.1271 16.7754L10.6496 22.3151C10.8913 22.4736 11.1949 22.6726 11.543 22.7543C11.8436 22.8249 12.1564 22.8249 12.457 22.7543C12.8051 22.6726 13.1087 22.4736 13.3504 22.3151L21.8729 16.7754C22.0787 16.6427 22.3376 16.4756 22.5347 16.2397C22.7053 16.0355 22.8335 15.7994 22.9117 15.5451C23.002 15.2512 23.001 14.9431 23.0002 14.6983V9.30162C23.001 9.05674 23.002 8.74868 22.9117 8.45479C22.8335 8.20048 22.7053 7.96433 22.5347 7.76018C22.3376 7.52423 22.0787 7.35722 21.8729 7.22446L13.3504 1.68477C13.1087 1.52631 12.8051 1.32725 12.457 1.24555ZM3.00001 10.3428L3.00423 14.955L11 20.1572V15.5328L3.00001 10.3428ZM13 20.1573L20.9961 14.9498L21 10.3427L13 15.5328V20.1573Z" fill="currentColor"/>
</svg>
