<svg width="24" height="24" viewBox="0 0 24 24" fill="none" xmlns="http://www.w3.org/2000/svg">
<path fill-rule="evenodd" clip-rule="evenodd" d="M7 9.87398C8.72523 9.42994 10 7.86384 10 6C10 3.79086 8.20914 2 6 2C3.79086 2 2 3.79086 2 6C2 7.86384 3.27477 9.42994 5 9.87398V21C5 21.5523 5.44772 22 6 22C6.55228 22 7 21.5523 7 21V9.87398Z" fill="currentColor"/>
<path fill-rule="evenodd" clip-rule="evenodd" d="M14 18C14 16.1362 15.2748 14.5701 17 14.126V8C17 7.73478 16.8946 7.48043 16.7071 7.29289C16.5196 7.10536 16.2652 7 16 7H13C12.4477 7 12 6.55228 12 6C12 5.44772 12.4477 5 13 5H16C16.7956 5 17.5587 5.31607 18.1213 5.87868C18.6839 6.44129 19 7.20435 19 8V14.126C20.7252 14.5701 22 16.1362 22 18C22 20.2091 20.2091 22 18 22C15.7909 22 14 20.2091 14 18Z" fill="currentColor"/>
</svg>
