<svg width="24" height="24" viewBox="0 0 24 24" fill="none" xmlns="http://www.w3.org/2000/svg">
<path opacity="0.4" d="M13.5509 5H10.4488C7.82396 5 6.51151 5 5.48135 5.49743C4.57433 5.9354 3.82074 6.63709 3.31926 7.51059C2.7497 8.5027 2.65619 9.81181 2.46918 12.43L2.22314 15.8745C2.1025 17.5634 3.44013 19 5.13335 19C5.99924 19 6.8204 18.6154 7.37473 17.9502L7.74989 17.5C8.09305 17.0882 8.26463 16.8823 8.46 16.7159C8.86957 16.3672 9.36539 16.1349 9.89553 16.0436C10.1484 16 10.4164 16 10.9525 16H13.0473C13.5834 16 13.8514 16 14.1043 16.0436C14.6344 16.1349 15.1302 16.3672 15.5398 16.7159C15.7351 16.8823 15.9068 17.0882 16.2499 17.5L16.6251 17.9502C17.1794 18.6154 18.0005 19 18.8664 19C20.5597 19 21.8973 17.5634 21.7766 15.8745L21.5306 12.43C21.3436 9.81181 21.2501 8.5027 20.6805 7.51059C20.179 6.63709 19.4254 5.9354 18.5184 5.49743C17.4883 5 16.1758 5 13.5509 5Z" stroke="currentColor" stroke-width="2" stroke-linecap="round" stroke-linejoin="round"/>
<path d="M6 11H10M8 9V13M15 12H15.01M18 10H18.01" stroke="currentColor" stroke-width="2" stroke-linecap="round" stroke-linejoin="round"/>
</svg>
