<svg width="24" height="24" viewBox="0 0 24 24" fill="none" xmlns="http://www.w3.org/2000/svg">
<path opacity="0.4" d="M2.08472 12C2.10507 11.9162 2.12903 11.8333 2.15655 11.7515C2.22319 11.5535 2.31768 11.3645 2.50668 10.9865L4.67324 6.65337C5.15483 5.69019 5.39563 5.2086 5.75487 4.85675C6.07256 4.5456 6.45544 4.30896 6.87581 4.16396C7.35118 4 7.88962 4 8.96649 4H15.0334C16.1102 4 16.6487 4 17.124 4.16396C17.5444 4.30896 17.9273 4.5456 18.245 4.85675C18.6042 5.2086 18.845 5.6902 19.3266 6.65337L21.4932 10.9865C21.6822 11.3645 21.7767 11.5535 21.8433 11.7515C21.8708 11.8333 21.8948 11.9162 21.9151 12" stroke="currentColor" stroke-width="2" stroke-linecap="round" stroke-linejoin="round"/>
<path d="M6 16H10M22 13.1331V15.2C22 16.8802 22 17.7202 21.673 18.362C21.3854 18.9265 20.9265 19.3854 20.362 19.673C19.7202 20 18.8802 20 17.2 20H6.8C5.11984 20 4.27976 20 3.63803 19.673C3.07354 19.3854 2.6146 18.9265 2.32698 18.362C2 17.7202 2 16.8802 2 15.2V13.1331C2 12.7105 2 12.4992 2.02897 12.2923C2.04274 12.1939 2.06137 12.0964 2.08479 12H21.9152C21.9386 12.0964 21.9573 12.1939 21.971 12.2923C22 12.4992 22 12.7105 22 13.1331Z" stroke="currentColor" stroke-width="2" stroke-linecap="round" stroke-linejoin="round"/>
</svg>
