<svg width="24" height="24" viewBox="0 0 24 24" fill="none" xmlns="http://www.w3.org/2000/svg">
<path opacity="0.4" d="M21 16V7.2C21 6.0799 21 5.51984 20.782 5.09202C20.5903 4.71569 20.2843 4.40973 19.908 4.21799C19.4802 4 18.9201 4 17.8 4H6.2C5.0799 4 4.51984 4 4.09202 4.21799C3.71569 4.40973 3.40973 4.71569 3.21799 5.09202C3 5.51984 3 6.0799 3 7.2V16" stroke="currentColor" stroke-width="2" stroke-linecap="round" stroke-linejoin="round"/>
<path d="M2 17.3333C2 17.0233 2 16.8683 2.03407 16.7412C2.12654 16.3961 2.39609 16.1265 2.74118 16.0341C2.86835 16 3.02334 16 3.33333 16H20.6667C20.9767 16 21.1317 16 21.2588 16.0341C21.6039 16.1265 21.8735 16.3961 21.9659 16.7412C22 16.8683 22 17.0233 22 17.3333C22 17.9533 22 18.2633 21.9319 18.5176C21.7469 19.2078 21.2078 19.7469 20.5176 19.9319C20.2633 20 19.9533 20 19.3333 20H4.66667C4.04669 20 3.73669 20 3.48236 19.9319C2.79218 19.7469 2.25308 19.2078 2.06815 18.5176C2 18.2633 2 17.9533 2 17.3333Z" stroke="currentColor" stroke-width="2" stroke-linecap="round" stroke-linejoin="round"/>
</svg>
