<svg width="24" height="24" viewBox="0 0 24 24" fill="none" xmlns="http://www.w3.org/2000/svg">
<path opacity="0.4" d="M9 17V21H15V17" stroke="currentColor" stroke-width="2" stroke-linecap="round" stroke-linejoin="round"/>
<path d="M2 6.2C2 5.07989 2 4.51984 2.21799 4.09202C2.40973 3.71569 2.71569 3.40973 3.09202 3.21799C3.51984 3 4.07989 3 5.2 3H18.8C19.9201 3 20.4802 3 20.908 3.21799C21.2843 3.40973 21.5903 3.71569 21.782 4.09202C22 4.51984 22 5.0799 22 6.2V13.8C22 14.9201 22 15.4802 21.782 15.908C21.5903 16.2843 21.2843 16.5903 20.908 16.782C20.4802 17 19.9201 17 18.8 17H5.2C4.0799 17 3.51984 17 3.09202 16.782C2.71569 16.5903 2.40973 16.2843 2.21799 15.908C2 15.4802 2 14.9201 2 13.8V6.2Z" stroke="currentColor" stroke-width="2" stroke-linecap="round" stroke-linejoin="round"/>
</svg>
