<svg width="24" height="24" viewBox="0 0 24 24" fill="none" xmlns="http://www.w3.org/2000/svg">
<path opacity="0.4" d="M7.75736 16.2426C5.41421 13.8995 5.41421 10.1005 7.75736 7.75735M4.92893 19.0711C1.02369 15.1658 1.02369 8.8342 4.92893 4.92896M16.2426 7.75738C18.5858 10.1005 18.5858 13.8995 16.2426 16.2427M19.0711 4.929C22.9763 8.83424 22.9763 15.1659 19.0711 19.0711" stroke="currentColor" stroke-width="2" stroke-linecap="round" stroke-linejoin="round"/>
<path d="M12 14C13.1046 14 14 13.1046 14 12C14 10.8954 13.1046 10 12 10C10.8954 10 10 10.8954 10 12C10 13.1046 10.8954 14 12 14Z" stroke="currentColor" stroke-width="2" stroke-linecap="round" stroke-linejoin="round"/>
</svg>
