<svg width="24" height="24" viewBox="0 0 24 24" fill="none" xmlns="http://www.w3.org/2000/svg">
<path opacity="0.4" d="M19 5V19" stroke="currentColor" stroke-width="2" stroke-linecap="round" stroke-linejoin="round"/>
<path d="M5 7.32894C5 6.26324 5 5.73039 5.21846 5.45671C5.40845 5.2187 5.69654 5.08024 6.00108 5.08057C6.35125 5.08095 6.76734 5.41381 7.59951 6.07955L13.4383 10.7506C13.9721 11.1776 14.239 11.3912 14.3357 11.6491C14.4204 11.8753 14.4204 12.1245 14.3357 12.3507C14.239 12.6087 13.9721 12.8223 13.4383 13.2493L7.59951 17.9203C6.76734 18.5861 6.35125 18.9189 6.00108 18.9193C5.69654 18.9196 5.40845 18.7812 5.21846 18.5432C5 18.2695 5 17.7366 5 16.6709V7.32894Z" stroke="currentColor" stroke-width="2" stroke-linecap="round" stroke-linejoin="round"/>
</svg>
