<svg width="24" height="24" viewBox="0 0 24 24" fill="none" xmlns="http://www.w3.org/2000/svg">
<path opacity="0.4" d="M18 9V3.6C18 3.03995 18 2.75992 17.891 2.54601C17.7951 2.35785 17.6422 2.20487 17.454 2.10899C17.2401 2 16.9601 2 16.4 2H7.6C7.03995 2 6.75992 2 6.54601 2.10899C6.35785 2.20487 6.20487 2.35785 6.10899 2.54601C6 2.75992 6 3.03995 6 3.6V9M10 6V5M14 6V5" stroke="currentColor" stroke-width="2" stroke-linecap="round" stroke-linejoin="round"/>
<path d="M4 12.2C4 11.0799 4 10.5198 4.21799 10.092C4.40973 9.71569 4.71569 9.40973 5.09202 9.21799C5.51984 9 6.0799 9 7.2 9H16.8C17.9201 9 18.4802 9 18.908 9.21799C19.2843 9.40973 19.5903 9.71569 19.782 10.092C20 10.5198 20 11.0799 20 12.2V17.2C20 18.8802 20 19.7202 19.673 20.362C19.3854 20.9265 18.9265 21.3854 18.362 21.673C17.7202 22 16.8802 22 15.2 22H8.8C7.11984 22 6.27976 22 5.63803 21.673C5.07354 21.3854 4.6146 20.9265 4.32698 20.362C4 19.7202 4 18.8802 4 17.2V12.2Z" stroke="currentColor" stroke-width="2" stroke-linecap="round" stroke-linejoin="round"/>
</svg>
