<svg width="24" height="24" viewBox="0 0 24 24" fill="none" xmlns="http://www.w3.org/2000/svg">
<path opacity="0.4" d="M18.2451 8C19.036 9.13383 19.4998 10.5128 19.4998 12C19.4998 13.4872 19.036 14.8662 18.2451 16" stroke="currentColor" stroke-width="2" stroke-linecap="round" stroke-linejoin="round"/>
<path d="M4.5 9.59993C4.5 9.03987 4.5 8.75985 4.60899 8.54594C4.70487 8.35777 4.85785 8.20479 5.04601 8.10892C5.25992 7.99993 5.53995 7.99993 6.1 7.99993H7.83726C8.08185 7.99993 8.20414 7.99993 8.31923 7.9723C8.42127 7.9478 8.51881 7.9074 8.60828 7.85257C8.7092 7.79073 8.79568 7.70425 8.96863 7.5313L12.1343 4.36561C12.5627 3.93724 12.7769 3.72305 12.9608 3.70858C13.1203 3.69602 13.2763 3.76061 13.3802 3.88231C13.5 4.02257 13.5 4.32548 13.5 4.9313V19.0686C13.5 19.6744 13.5 19.9773 13.3802 20.1175C13.2763 20.2392 13.1203 20.3038 12.9608 20.2913C12.7769 20.2768 12.5627 20.0626 12.1343 19.6342L8.96863 16.4686C8.79568 16.2956 8.7092 16.2091 8.60828 16.1473C8.51881 16.0925 8.42127 16.0521 8.31923 16.0276C8.20414 15.9999 8.08185 15.9999 7.83726 15.9999H6.1C5.53995 15.9999 5.25992 15.9999 5.04601 15.8909C4.85785 15.7951 4.70487 15.6421 4.60899 15.4539C4.5 15.24 4.5 14.96 4.5 14.3999V9.59993Z" stroke="currentColor" stroke-width="2" stroke-linecap="round" stroke-linejoin="round"/>
</svg>
