<svg width="24" height="24" viewBox="0 0 24 24" fill="none" xmlns="http://www.w3.org/2000/svg">
<path opacity="0.4" d="M21.5813 7.19989C21.4733 6.76846 21.2534 6.37318 20.9438 6.05395C20.6341 5.73473 20.2457 5.50287 19.8178 5.3818C18.2542 5 12 5 12 5C12 5 5.74578 5 4.18222 5.41816C3.75429 5.53923 3.36588 5.77109 3.05623 6.09031C2.74659 6.40954 2.52666 6.80482 2.41868 7.23625C2.13253 8.82303 1.99255 10.4327 2.00052 12.0451C1.99032 13.6696 2.1303 15.2916 2.41868 16.8903C2.53773 17.3083 2.76258 17.6886 3.0715 17.9943C3.38043 18.3 3.76299 18.5209 4.18222 18.6357C5.74578 19.0538 12 19.0538 12 19.0538C12 19.0538 18.2542 19.0538 19.8178 18.6357C20.2457 18.5146 20.6341 18.2827 20.9438 17.9635C21.2534 17.6443 21.4733 17.249 21.5813 16.8176C21.8653 15.2427 22.0052 13.6453 21.9995 12.0451C22.0097 10.4206 21.8697 8.79862 21.5813 7.19989Z" stroke="currentColor" stroke-width="2" stroke-linecap="round" stroke-linejoin="round"/>
<path d="M9.75 9.46524C9.75 8.98795 9.75 8.74931 9.84974 8.61608C9.93666 8.49998 10.0697 8.42734 10.2144 8.41701C10.3804 8.40515 10.5811 8.5342 10.9826 8.7923L14.9254 11.327C15.2738 11.5509 15.448 11.6629 15.5082 11.8053C15.5607 11.9297 15.5607 12.0701 15.5082 12.1945C15.448 12.3369 15.2738 12.4489 14.9254 12.6728L10.9826 15.2075C10.5811 15.4656 10.3804 15.5947 10.2144 15.5828C10.0697 15.5725 9.93666 15.4998 9.84974 15.3837C9.75 15.2505 9.75 15.0119 9.75 14.5346V9.46524Z" stroke="currentColor" stroke-width="2" stroke-linecap="round" stroke-linejoin="round"/>
</svg>
