<svg width="24" height="24" viewBox="0 0 24 24" fill="none" xmlns="http://www.w3.org/2000/svg">
<path opacity="0.4" d="M2.68674 15.6451L4.59493 14.5435C4.69829 14.4839 4.81958 14.4631 4.93689 14.4851L8.69139 15.1878C8.99994 15.2455 9.28476 15.008 9.28337 14.6941L9.26875 11.4045C9.26835 11.3151 9.29192 11.2272 9.337 11.15L11.2317 7.90621C11.3303 7.73739 11.3215 7.52658 11.2091 7.3666L8.01891 2.82568M21.9876 12.5C21.9876 12.5 19.3773 12.4384 17.5002 11.5C16.5 11 13.5002 7.50004 19.0002 4.85905" stroke="currentColor" stroke-width="2" stroke-linecap="round" stroke-linejoin="round"/>
<path d="M12.5 21.9877C12.3344 21.9959 12.1677 22 12 22C6.47715 22 2 17.5228 2 12C2 6.47715 6.47715 2 12 2C17.5228 2 22 6.47715 22 12C22 12.1677 21.9959 12.3344 21.9877 12.5M16.7578 21.9398L13.591 13.591L21.9398 16.7578L18.2376 18.2376L16.7578 21.9398Z" stroke="currentColor" stroke-width="2" stroke-linecap="round" stroke-linejoin="round"/>
</svg>
