<svg width="24" height="24" viewBox="0 0 24 24" fill="none" xmlns="http://www.w3.org/2000/svg">
<path opacity="0.4" d="M5 14.2861C3.14864 15.1028 2 16.241 2 17.4998C2 19.9851 6.47715 21.9998 12 21.9998C17.5228 21.9998 22 19.9851 22 17.4998C22 16.241 20.8514 15.1028 19 14.2861" stroke="currentColor" stroke-width="2" stroke-linecap="round" stroke-linejoin="round"/>
<path d="M12 17C13.5 14 18 12.0637 18 8C18 4.68629 15.3137 2 12 2C8.68629 2 6 4.68629 6 8C6 12.0637 10.5 14 12 17Z" stroke="currentColor" stroke-width="2" stroke-linecap="round" stroke-linejoin="round"/>
<path d="M12 9C12.5523 9 13 8.55228 13 8C13 7.44772 12.5523 7 12 7C11.4477 7 11 7.44772 11 8C11 8.55228 11.4477 9 12 9Z" stroke="currentColor" stroke-width="2" stroke-linecap="round" stroke-linejoin="round"/>
</svg>
