<svg width="24" height="24" viewBox="0 0 24 24" fill="none" xmlns="http://www.w3.org/2000/svg">
<path opacity="0.4" d="M12.9999 11.0002L3.49989 20.5002M9.25485 7.89634L6.37998 6.93805C6.04889 6.82769 5.68422 6.89792 5.41781 7.12335L2.56065 9.54094C1.97572 10.0359 2.1419 10.9778 2.86089 11.2427L5.56808 12.2401M11.6809 18.3527L12.6783 21.0599C12.9432 21.7789 13.8851 21.9451 14.38 21.3602L16.7976 18.503C17.0231 18.2366 17.0933 17.8719 16.9829 17.5408L16.0247 14.666" stroke="currentColor" stroke-width="2" stroke-linecap="round" stroke-linejoin="round"/>
<path d="M14.0183 3.53838C15.2363 4.34658 16.4071 5.29941 17.501 6.3934C18.6045 7.49683 19.5643 8.67831 20.377 9.90766M19.3485 2.27063L14.442 3.08838C13.9122 3.17668 13.4263 3.43709 13.0593 3.82932L6.44626 10.8985C4.7321 12.7308 4.77978 15.5924 6.55403 17.3667C8.32829 19.1409 11.1899 19.1886 13.0222 17.4744L20.0914 10.8614C20.4836 10.4944 20.744 10.0085 20.8323 9.47869L21.6501 4.57222C21.8757 3.21858 20.7021 2.04503 19.3485 2.27063Z" stroke="currentColor" stroke-width="2" stroke-linecap="round" stroke-linejoin="round"/>
</svg>
