<svg width="44" height="44" viewBox="0 0 44 44" fill="none" xmlns="http://www.w3.org/2000/svg">
<circle cx="22" cy="22" r="21.5" fill="#865AE2" stroke="#1E1E1E"/>
<g clip-path="url(#clip0_3917_5237)">
<path opacity="0.12" d="M9.50024 21C9.50024 19.5999 9.50024 18.8998 9.77273 18.365C10.0124 17.8946 10.3949 17.5122 10.8653 17.2725C11.4 17 12.1001 17 13.5002 17H23.0002C24.4004 17 25.1005 17 25.6352 17.2725C26.1056 17.5122 26.4881 17.8946 26.7277 18.365C27.0002 18.8998 27.0002 19.5999 27.0002 21V30.5C27.0002 31.9001 27.0002 32.6003 26.7277 33.135C26.4881 33.6054 26.1056 33.9879 25.6352 34.2275C25.1005 34.5 24.4004 34.5 23.0002 34.5H13.5002C12.1001 34.5 11.4 34.5 10.8653 34.2275C10.3949 33.9879 10.0124 33.6054 9.77273 33.135C9.50024 32.6003 9.50024 31.9001 9.50024 30.5V21Z" fill="white"/>
<path d="M17.0002 17V13.5C17.0002 12.0999 17.0002 11.3998 17.2727 10.865C17.5124 10.3946 17.8949 10.0122 18.3653 9.77249C18.9 9.5 19.6001 9.5 21.0002 9.5H30.5002C31.9004 9.5 32.6005 9.5 33.1352 9.77249C33.6056 10.0122 33.9881 10.3946 34.2277 10.865C34.5002 11.3998 34.5002 12.0999 34.5002 13.5V23C34.5002 24.4001 34.5002 25.1003 34.2277 25.635C33.9881 26.1054 33.6056 26.4879 33.1352 26.7275C32.6005 27 31.9004 27 30.5002 27H27.0002M13.5002 34.5H23.0002C24.4004 34.5 25.1005 34.5 25.6352 34.2275C26.1056 33.9879 26.4881 33.6054 26.7277 33.135C27.0002 32.6003 27.0002 31.9001 27.0002 30.5V21C27.0002 19.5999 27.0002 18.8998 26.7277 18.365C26.4881 17.8946 26.1056 17.5122 25.6352 17.2725C25.1005 17 24.4004 17 23.0002 17H13.5002C12.1001 17 11.4 17 10.8653 17.2725C10.3949 17.5122 10.0124 17.8946 9.77273 18.365C9.50024 18.8998 9.50024 19.5999 9.50024 21V30.5C9.50024 31.9001 9.50024 32.6003 9.77273 33.135C10.0124 33.6054 10.3949 33.9879 10.8653 34.2275C11.4 34.5 12.1001 34.5 13.5002 34.5Z" stroke="white" stroke-width="4" stroke-linecap="round" stroke-linejoin="round"/>
</g>
<defs>
<clipPath id="clip0_3917_5237">
<rect width="30" height="30" fill="white" transform="translate(7.00024 7)"/>
</clipPath>
</defs>
</svg>
