<svg width="260" height="60" viewBox="0 0 520 120" fill="none" xmlns="http://www.w3.org/2000/svg">
<rect x="0.354286" y="0.354286" width="519.291" height="119.291" rx="11.6457" fill="url(#paint0_linear_2649_118932)"/>
<rect x="16" y="45" width="4" height="30" rx="2" fill="#865AE2"/>
<rect x="23.5625" y="45" width="4" height="30" rx="2" fill="#865AE2"/>
<rect x="31.125" y="41" width="4" height="38" rx="2" fill="#865AE2"/>
<rect x="38.6875" y="38" width="4" height="44" rx="2" fill="#865AE2"/>
<rect x="46.25" y="45" width="4" height="30" rx="2" fill="#865AE2"/>
<rect x="53.8125" y="45" width="4" height="30" rx="2" fill="#865AE2"/>
<rect x="61.375" y="41" width="4" height="38" rx="2" fill="#865AE2"/>
<rect x="68.9375" y="38" width="4" height="44" rx="2" fill="#865AE2"/>
<rect x="76.5" y="45" width="4" height="30" rx="2" fill="#865AE2"/>
<rect x="84.0625" y="45" width="4" height="30" rx="2" fill="#865AE2"/>
<rect x="91.625" y="41" width="4" height="38" rx="2" fill="#865AE2"/>
<rect x="99.1875" y="31" width="4" height="58" rx="2" fill="#865AE2"/>
<rect x="106.75" y="45" width="4" height="30" rx="2" fill="#865AE2"/>
<rect x="114.312" y="38" width="4" height="44" rx="2" fill="#865AE2"/>
<rect x="121.875" y="54" width="4" height="12" rx="2" fill="#865AE2"/>
<rect x="129.438" y="38" width="4" height="44" rx="2" fill="#865AE2"/>
<rect x="137" y="45" width="4" height="30" rx="2" fill="#865AE2"/>
<rect x="144.562" y="54" width="4" height="12" rx="2" fill="#865AE2"/>
<rect x="152.125" y="41" width="4" height="38" rx="2" fill="#865AE2"/>
<rect x="159.688" y="38" width="4" height="44" rx="2" fill="#865AE2"/>
<rect x="167.25" y="45" width="4" height="30" rx="2" fill="#865AE2"/>
<rect x="174.812" y="36" width="4" height="48" rx="2" fill="#865AE2"/>
<rect x="182.375" y="41" width="4" height="38" rx="2" fill="#865AE2"/>
<rect x="189.938" y="38" width="4" height="44" rx="2" fill="#865AE2"/>
<rect x="197.5" y="28" width="4" height="64" rx="2" fill="#865AE2"/>
<rect x="205.062" y="41" width="4" height="38" rx="2" fill="#865AE2"/>
<rect x="212.625" y="28" width="4" height="64" rx="2" fill="#865AE2"/>
<rect x="220.188" y="52" width="4" height="16" rx="2" fill="#865AE2"/>
<rect x="227.75" y="36" width="4" height="48" rx="2" fill="#865AE2"/>
<rect x="235.312" y="57" width="4" height="6" rx="2" fill="#865AE2"/>
<rect x="242.875" y="50" width="4" height="20" rx="2" fill="#865AE2"/>
<rect x="250.438" y="30" width="4" height="60" rx="2" fill="#865AE2"/>
<rect x="258" y="33" width="4" height="54" rx="2" fill="#865AE2"/>
<rect x="265.562" y="50" width="4" height="20" rx="2" fill="#865AE2"/>
<rect x="273.125" y="55" width="4" height="10" rx="2" fill="#865AE2"/>
<rect x="280.688" y="44" width="4" height="32" rx="2" fill="#865AE2"/>
<rect x="288.25" y="28" width="4" height="64" rx="2" fill="#865AE2"/>
<rect x="295.812" y="44" width="4" height="32" rx="2" fill="#865AE2"/>
<rect x="303.375" y="39" width="4" height="42" rx="2" fill="#865AE2"/>
<rect x="310.938" y="54" width="4" height="12" rx="2" fill="#865AE2"/>
<rect x="318.5" y="58" width="4" height="4" rx="2" fill="#865AE2"/>
<rect x="326.062" y="50" width="4" height="20" rx="2" fill="#865AE2"/>
<rect x="333.625" y="28" width="4" height="64" rx="2" fill="#865AE2"/>
<rect x="341.188" y="56" width="4" height="8" rx="2" fill="#865AE2"/>
<rect x="348.75" y="40" width="4" height="40" rx="2" fill="#865AE2"/>
<rect x="356.312" y="50" width="4" height="20" rx="2" fill="#865AE2"/>
<rect x="363.875" y="37" width="4" height="46" rx="2" fill="#865AE2"/>
<rect x="371.438" y="44" width="4" height="32" rx="2" fill="#865AE2"/>
<rect x="379" y="36" width="4" height="48" rx="2" fill="#865AE2"/>
<rect x="386.562" y="58" width="4" height="4" rx="2" fill="#865AE2"/>
<rect x="394.125" y="54" width="4" height="12" rx="2" fill="#865AE2"/>
<rect x="401.688" y="54" width="4" height="12" rx="2" fill="#865AE2"/>
<rect x="409.25" y="44" width="4" height="32" rx="2" fill="#865AE2"/>
<rect x="416.812" y="54" width="4" height="12" rx="2" fill="#865AE2"/>
<rect x="424.375" y="54" width="4" height="12" rx="2" fill="#865AE2"/>
<rect x="431.938" y="57" width="4" height="6" rx="2" fill="#865AE2"/>
<rect x="439.5" y="57" width="4" height="6" rx="2" fill="#865AE2"/>
<rect x="447.062" y="57" width="4" height="6" rx="2" fill="#865AE2"/>
<rect x="454.625" y="40" width="4" height="40" rx="2" fill="#865AE2"/>
<rect x="462.188" y="57" width="4" height="6" rx="2" fill="#865AE2"/>
<rect x="469.75" y="53" width="4" height="14" rx="2" fill="#865AE2"/>
<rect x="477.312" y="57" width="4" height="6" rx="2" fill="#865AE2"/>
<rect x="484.875" y="46" width="4" height="28" rx="2" fill="#865AE2"/>
<rect x="492.438" y="57" width="4" height="6" rx="2" fill="#865AE2"/>
<rect x="500" y="53" width="4" height="14" rx="2" fill="#865AE2"/>
<rect x="0.354286" y="0.354286" width="519.291" height="119.291" rx="11.6457" stroke="url(#paint1_linear_2649_118932)" stroke-width="0.708571"/>
<defs>
<linearGradient id="paint0_linear_2649_118932" x1="260" y1="0" x2="260" y2="120" gradientUnits="userSpaceOnUse">
<stop stop-color="#2C2C2C" stop-opacity="0"/>
<stop offset="1" stop-color="#865AE2" stop-opacity="0.4"/>
</linearGradient>
<linearGradient id="paint1_linear_2649_118932" x1="260" y1="0" x2="260" y2="120" gradientUnits="userSpaceOnUse">
<stop stop-color="#BB86FC" stop-opacity="0.4"/>
<stop offset="1" stop-color="#9747FF"/>
</linearGradient>
</defs>
</svg>
