<svg width="24" height="24" viewBox="0 0 24 24" fill="none" xmlns="http://www.w3.org/2000/svg">
<g opacity="0.12">
<path d="M12 18.5L8 8H16L12 18.5Z" fill="currentColor"/>
<path d="M10 2H7L2 8L8 8L10 2Z" fill="currentColor"/>
<path d="M14 2H17L22 8L16 8L14 2Z" fill="currentColor"/>
</g>
<path d="M5.00003 22H19M2.50003 8H21.5M10 2L8.00003 8L12 18.5L16 8L14 2M12.592 18.3489L21.5316 8.5153C21.6976 8.33264 21.7807 8.24131 21.8137 8.13732C21.8429 8.04569 21.845 7.94759 21.8198 7.85478C21.7912 7.74946 21.7122 7.65465 21.5542 7.46501L17.2399 2.28785C17.1517 2.18204 17.1076 2.12914 17.0536 2.09111C17.0057 2.05741 16.9523 2.03238 16.8957 2.01717C16.8319 2 16.7631 2 16.6253 2H7.37473C7.237 2 7.16813 2 7.10432 2.01717C7.04777 2.03238 6.99434 2.05741 6.94646 2.09111C6.89241 2.12914 6.84833 2.18204 6.76015 2.28785L2.44585 7.46501C2.28782 7.65464 2.20881 7.74946 2.18023 7.85478C2.15505 7.94759 2.15716 8.04569 2.18632 8.13732C2.2194 8.24131 2.30243 8.33264 2.46848 8.51529L11.4081 18.3489C11.6133 18.5746 11.7159 18.6875 11.8365 18.7292C11.9424 18.7659 12.0576 18.7659 12.1636 18.7292C12.2842 18.6875 12.3868 18.5746 12.592 18.3489Z" stroke="currentColor" stroke-width="2" stroke-linecap="round" stroke-linejoin="round"/>
</svg>
