<svg width="24" height="24" viewBox="0 0 24 24" fill="none" xmlns="http://www.w3.org/2000/svg">
<path opacity="0.12" d="M16.229 22C18.0566 22 18.9705 22 19.642 21.6338C20.2319 21.3121 20.6967 20.8016 20.962 20.1843C21.2639 19.4815 21.1786 18.5717 21.008 16.752L20.408 10.352C20.2639 8.81535 20.1919 8.04704 19.8463 7.46616C19.542 6.95458 19.0923 6.54511 18.5546 6.28984C17.944 6 17.1723 6 15.629 6L8.37105 6C6.82769 6 6.05601 6 5.44542 6.28984C4.90767 6.54511 4.45801 6.95458 4.15366 7.46616C3.80809 8.04703 3.73606 8.81534 3.59201 10.352L2.99201 16.752C2.82141 18.5717 2.73611 19.4815 3.03805 20.1843C3.3033 20.8016 3.76812 21.3121 4.35802 21.6338C5.02953 22 5.94337 22 7.77105 22H16.229Z" fill="currentColor"/>
<path d="M16 9V6C16 3.79086 14.2091 2 12 2C9.79086 2 8 3.79086 8 6V9M3.59201 10.352L2.99201 16.752C2.82141 18.5717 2.73611 19.4815 3.03805 20.1843C3.3033 20.8016 3.76812 21.3121 4.35802 21.6338C5.02953 22 5.94337 22 7.77105 22H16.229C18.0566 22 18.9705 22 19.642 21.6338C20.2319 21.3121 20.6967 20.8016 20.962 20.1843C21.2639 19.4815 21.1786 18.5717 21.008 16.752L20.408 10.352C20.2639 8.81535 20.1919 8.04704 19.8463 7.46616C19.542 6.95458 19.0923 6.54511 18.5546 6.28984C17.944 6 17.1723 6 15.629 6L8.37105 6C6.82769 6 6.05601 6 5.44542 6.28984C4.90767 6.54511 4.45801 6.95458 4.15366 7.46616C3.80809 8.04704 3.73606 8.81534 3.59201 10.352Z" stroke="currentColor" stroke-width="2" stroke-linecap="round" stroke-linejoin="round"/>
</svg>
