<svg width="24" height="24" viewBox="0 0 24 24" fill="none" xmlns="http://www.w3.org/2000/svg">
<path opacity="0.12" d="M12.0002 18.5289C13.1798 17.6986 14.3791 16.6923 15.536 15.5354C16.6927 14.3787 17.6989 13.1795 18.5291 12.0001C17.6989 10.8206 16.6926 9.62136 15.5358 8.46456C14.379 7.30773 13.1798 6.30142 12.0002 5.47119C10.8207 6.30138 9.62162 7.30761 8.46489 8.46434C7.30802 9.62121 6.30168 10.8205 5.47144 12.0001C6.30165 13.1796 7.30794 14.3788 8.46475 15.5356C9.62153 16.6924 10.8207 17.6987 12.0002 18.5289Z" fill="currentColor"/>
<path d="M12 12.0001H12.01M15.5355 15.5357C10.8492 20.222 5.46734 22.438 3.51472 20.4854C1.5621 18.5328 3.77818 13.1509 8.46447 8.46461C13.1508 3.77832 18.5327 1.56224 20.4853 3.51486C22.4379 5.46748 20.2218 10.8494 15.5355 15.5357ZM15.5355 8.46443C20.2218 13.1507 22.4379 18.5326 20.4852 20.4852C18.5326 22.4379 13.1507 20.2218 8.46443 15.5355C3.77814 10.8492 1.56206 5.4673 3.51468 3.51468C5.4673 1.56206 10.8492 3.77814 15.5355 8.46443ZM12.5 12.0001C12.5 12.2763 12.2761 12.5001 12 12.5001C11.7239 12.5001 11.5 12.2763 11.5 12.0001C11.5 11.724 11.7239 11.5001 12 11.5001C12.2761 11.5001 12.5 11.724 12.5 12.0001Z" stroke="currentColor" stroke-width="2" stroke-linecap="round" stroke-linejoin="round"/>
</svg>
