<svg width="24" height="24" viewBox="0 0 24 24" fill="none" xmlns="http://www.w3.org/2000/svg">
<path opacity="0.12" d="M12.3578 14.3212C12.2266 14.3868 12.161 14.4196 12.0922 14.4325C12.0313 14.4439 11.9687 14.4439 11.9078 14.4325C11.839 14.4196 11.7734 14.3868 11.6422 14.3212L7.35777 12.179C7.22659 12.1134 7.161 12.0806 7.0922 12.0677C7.03126 12.0562 6.96874 12.0562 6.9078 12.0677C6.839 12.0806 6.77341 12.1134 6.64223 12.179L2 14.5001L11.6422 19.3212C11.7734 19.3868 11.839 19.4196 11.9078 19.4325C11.9687 19.4439 12.0313 19.4439 12.0922 19.4325C12.161 19.4196 12.2266 19.3868 12.3578 19.3212L22 14.5001L17.3578 12.179C17.2266 12.1134 17.161 12.0806 17.0922 12.0677C17.0313 12.0562 16.9687 12.0562 16.9078 12.0677C16.839 12.0806 16.7734 12.1134 16.6422 12.179L12.3578 14.3212Z" fill="currentColor"/>
<path d="M7 12.0001L2 14.5001L11.6422 19.3212C11.7734 19.3868 11.839 19.4196 11.9078 19.4325C11.9687 19.4439 12.0313 19.4439 12.0922 19.4325C12.161 19.4196 12.2266 19.3868 12.3578 19.3212L22 14.5001L17 12.0001M2 9.50006L11.6422 4.67895C11.7734 4.61336 11.839 4.58056 11.9078 4.56766C11.9687 4.55622 12.0313 4.55622 12.0922 4.56766C12.161 4.58056 12.2266 4.61336 12.3578 4.67895L22 9.50006L12.3578 14.3212C12.2266 14.3868 12.161 14.4196 12.0922 14.4325C12.0313 14.4439 11.9687 14.4439 11.9078 14.4325C11.839 14.4196 11.7734 14.3868 11.6422 14.3212L2 9.50006Z" stroke="currentColor" stroke-width="2" stroke-linecap="round" stroke-linejoin="round"/>
</svg>
