<svg width="24" height="24" viewBox="0 0 24 24" fill="none" xmlns="http://www.w3.org/2000/svg">
<path opacity="0.12" fill-rule="evenodd" clip-rule="evenodd" d="M9.87353 20.6856L9.28909 19.3711C9.08085 18.902 8.72917 18.511 8.28464 18.2544C7.83986 17.9979 7.32531 17.8886 6.81464 17.9422L5.38464 18.0944C4.959 18.1392 4.52952 18.0596 4.14815 17.8654C3.76678 17.6712 3.44987 17.3706 3.23575 17C3.02157 16.6295 2.91953 16.2047 2.94202 15.7773C2.9645 15.3499 3.11054 14.9382 3.36242 14.5922L4.20908 13.4289C4.51103 13.0137 4.67362 12.5134 4.67353 12C4.67362 11.4866 4.51103 10.9864 4.20908 10.5711L3.36242 9.40778C3.11054 9.06176 2.9645 8.65007 2.94202 8.22267C2.91953 7.79528 3.02157 7.37054 3.23575 7C3.44966 6.62924 3.76653 6.32849 4.14796 6.13423C4.52938 5.93997 4.95897 5.86053 5.38464 5.90556L6.81909 6.05778C7.32975 6.11141 7.8443 6.00212 8.28908 5.74556C8.73196 5.48825 9.08201 5.09736 9.28909 4.62889L9.87353 3.31444C10.0473 2.92317 10.3308 2.59072 10.6898 2.3574C11.0487 2.12408 11.4676 1.99993 11.8958 2C12.3239 1.99993 12.7428 2.12408 13.1017 2.3574C13.4607 2.59072 13.7442 2.92317 13.918 3.31444L14.5069 4.62889C14.7139 5.09736 15.064 5.48825 15.5069 5.74556C15.9516 6.00212 16.4662 6.11141 16.9769 6.05778L18.4069 5.90556C18.8325 5.86053 19.2621 5.93997 19.6435 6.13423C20.025 6.32849 20.3418 6.62924 20.5558 7C20.7699 7.37054 20.872 7.79528 20.8495 8.22267C20.827 8.65007 20.681 9.06176 20.4291 9.40778L19.5824 10.5711C19.2805 10.9864 19.1179 11.4866 19.118 12C19.1154 12.5148 19.2765 13.0171 19.578 13.4344L20.4246 14.5978C20.6765 14.9438 20.8226 15.3555 20.845 15.7829C20.8675 16.2103 20.7655 16.635 20.5513 17.0056C20.3374 17.3763 20.0205 17.6771 19.6391 17.8713C19.2577 18.0656 18.8281 18.145 18.4024 18.1L16.9724 17.9478C16.4618 17.8941 15.9472 18.0034 15.5024 18.26C15.0604 18.5159 14.7105 18.9047 14.5024 19.3711L13.918 20.6856C13.7442 21.0768 13.4607 21.4093 13.1017 21.6426C12.7428 21.8759 12.3239 22.0001 11.8958 22C11.4676 22.0001 11.0487 21.8759 10.6898 21.6426C10.3308 21.4093 10.0473 21.0768 9.87353 20.6856ZM15 12C15 13.6569 13.6569 15 12 15C10.3431 15 9 13.6569 9 12C9 10.3431 10.3431 9 12 9C13.6569 9 15 10.3431 15 12Z" fill="currentColor"/>
<path d="M12 15C13.6569 15 15 13.6569 15 12C15 10.3431 13.6569 9 12 9C10.3431 9 9 10.3431 9 12C9 13.6569 10.3431 15 12 15Z" stroke="currentColor" stroke-width="2" stroke-linecap="round" stroke-linejoin="round"/>
<path d="M9.28909 19.3711L9.87353 20.6856C10.0473 21.0768 10.3308 21.4093 10.6898 21.6426C11.0487 21.8759 11.4676 22.0001 11.8958 22C12.3239 22.0001 12.7428 21.8759 13.1017 21.6426C13.4607 21.4093 13.7442 21.0768 13.918 20.6856L14.5024 19.3711C14.7105 18.9047 15.0604 18.5159 15.5024 18.26C15.9472 18.0034 16.4617 17.8941 16.9724 17.9478L18.4024 18.1C18.8281 18.145 19.2577 18.0656 19.6391 17.8713C20.0205 17.6771 20.3374 17.3763 20.5513 17.0056C20.7655 16.635 20.8675 16.2103 20.845 15.7829C20.8226 15.3555 20.6765 14.9438 20.4246 14.5978L19.578 13.4344C19.2765 13.0171 19.1154 12.5148 19.118 12C19.1179 11.4866 19.2805 10.9864 19.5824 10.5711L20.4291 9.40778C20.681 9.06175 20.827 8.65007 20.8495 8.22267C20.872 7.79528 20.7699 7.37054 20.5558 7C20.3418 6.62923 20.025 6.32849 19.6435 6.13423C19.2621 5.93997 18.8325 5.86053 18.4069 5.90556L16.9769 6.05778C16.4662 6.11141 15.9516 6.00212 15.5069 5.74556C15.064 5.48825 14.7139 5.09736 14.5069 4.62889L13.918 3.31444C13.7442 2.92317 13.4607 2.59072 13.1017 2.3574C12.7428 2.12408 12.3239 1.99993 11.8958 2C11.4676 1.99993 11.0487 2.12408 10.6898 2.3574C10.3308 2.59072 10.0473 2.92317 9.87353 3.31444L9.28909 4.62889C9.08201 5.09736 8.73196 5.48825 8.28908 5.74556C7.8443 6.00212 7.32975 6.11141 6.81909 6.05778L5.38464 5.90556C4.95897 5.86053 4.52938 5.93997 4.14796 6.13423C3.76653 6.32849 3.44966 6.62923 3.23575 7C3.02157 7.37054 2.91953 7.79528 2.94202 8.22267C2.9645 8.65007 3.11054 9.06175 3.36242 9.40778L4.20908 10.5711C4.51103 10.9864 4.67362 11.4866 4.67353 12C4.67362 12.5134 4.51103 13.0137 4.20908 13.4289L3.36242 14.5922C3.11054 14.9382 2.9645 15.3499 2.94202 15.7773C2.91953 16.2047 3.02157 16.6295 3.23575 17C3.44987 17.3706 3.76678 17.6712 4.14815 17.8654C4.52952 18.0596 4.959 18.1392 5.38464 18.0944L6.81464 17.9422C7.32531 17.8886 7.83986 17.9979 8.28464 18.2544C8.72917 18.511 9.08085 18.902 9.28909 19.3711Z" stroke="currentColor" stroke-width="2" stroke-linecap="round" stroke-linejoin="round"/>
</svg>
