<svg width="24" height="24" viewBox="0 0 24 24" fill="none" xmlns="http://www.w3.org/2000/svg">
<path fill-rule="evenodd" clip-rule="evenodd" d="M8 18C8.55228 18 9 18.4477 9 19V21C9 21.5523 8.55228 22 8 22C7.44772 22 7 21.5523 7 21V19C7 18.4477 7.44772 18 8 18Z" fill="currentColor"/>
<path fill-rule="evenodd" clip-rule="evenodd" d="M16 18C16.5523 18 17 18.4477 17 19V21C17 21.5523 16.5523 22 16 22C15.4477 22 15 21.5523 15 21V19C15 18.4477 15.4477 18 16 18Z" fill="currentColor"/>
<path fill-rule="evenodd" clip-rule="evenodd" d="M12 19C12.5523 19 13 19.4477 13 20V22C13 22.5523 12.5523 23 12 23C11.4477 23 11 22.5523 11 22V20C11 19.4477 11.4477 19 12 19Z" fill="currentColor"/>
<path d="M12 1C8.7764 1 6.0632 3.17816 5.24923 6.14303C2.8139 6.70961 1 8.8925 1 11.5C1 14.5376 3.46243 17 6.5 17H17.5C20.5376 17 23 14.5376 23 11.5C23 8.8925 21.1861 6.70961 18.7508 6.14303C17.9368 3.17816 15.2236 1 12 1Z" fill="currentColor"/>
</svg>
