<svg width="24" height="24" viewBox="0 0 24 24" fill="none" xmlns="http://www.w3.org/2000/svg">
<path d="M11.5 1.5C11.5 0.947715 11.0523 0.5 10.5 0.5C9.94771 0.5 9.5 0.947715 9.5 1.5V3.1C9.5 3.65229 9.94771 4.1 10.5 4.1C11.0523 4.1 11.5 3.65229 11.5 3.1V1.5Z" fill="currentColor"/>
<path d="M2 9C1.44772 9 1 9.44771 1 10C1 10.5523 1.44772 11 2 11H3.6C4.15229 11 4.6 10.5523 4.6 10C4.6 9.44772 4.15229 9 3.6 9H2Z" fill="currentColor"/>
<path d="M3.61272 3.11272C4.00324 2.72219 4.63641 2.72219 5.02693 3.11272L6.1583 4.24409C6.54883 4.63461 6.54883 5.26778 6.1583 5.6583C5.76778 6.04883 5.13461 6.04883 4.74409 5.6583L3.61272 4.52693C3.22219 4.13641 3.22219 3.50324 3.61272 3.11272Z" fill="currentColor"/>
<path d="M17.3883 4.52693C17.7788 4.13641 17.7788 3.50324 17.3883 3.11272C16.9978 2.72219 16.3646 2.72219 15.9741 3.11272L14.8427 4.24409C14.4522 4.63461 14.4522 5.26778 14.8427 5.6583C15.2332 6.04883 15.8664 6.04883 16.2569 5.6583L17.3883 4.52693Z" fill="currentColor"/>
<path d="M16.4 10C16.4 9.44771 16.8477 9 17.4 9H19C19.5523 9 20 9.44772 20 10C20 10.5523 19.5523 11 19 11H17.4C16.8477 11 16.4 10.5523 16.4 10Z" fill="currentColor"/>
<path d="M7.50012 10C7.50012 8.34315 8.84327 7 10.5001 7C11.6283 7 12.6125 7.62233 13.1257 8.54719C13.3937 9.03011 14.0024 9.20436 14.4853 8.93639C14.9682 8.66841 15.1425 8.0597 14.8745 7.57678C14.023 6.04224 12.384 5 10.5001 5C7.7387 5 5.50012 7.23858 5.50012 10C5.50012 10.5523 5.94784 11 6.50012 11C7.05241 11 7.50012 10.5523 7.50012 10Z" fill="currentColor"/>
<path d="M12 10C9.75368 10 7.79751 11.2341 6.76931 13.059C6.5182 13.0201 6.26123 13 6 13C3.23858 13 1 15.2386 1 18C1 20.7614 3.23858 23 6 23H18C20.7614 23 23 20.7614 23 18C23 15.2386 20.7614 13 18 13C17.7388 13 17.4818 13.0201 17.2307 13.059C16.2025 11.2341 14.2463 10 12 10Z" fill="currentColor"/>
</svg>
