<svg width="24" height="24" viewBox="0 0 24 24" fill="none" xmlns="http://www.w3.org/2000/svg">
<path opacity="0.12" d="M12 16C14.2091 16 16 14.2091 16 12C16 9.79086 14.2091 8 12 8C9.79086 8 8 9.79086 8 12C8 14.2091 9.79086 16 12 16Z" fill="currentColor"/>
<path d="M16 12C16 14.2091 14.2091 16 12 16C9.79085 16 7.99999 14.2091 7.99999 12M16 12C16 9.79086 14.2091 8 12 8C9.79085 8 7.99999 9.79086 7.99999 12M16 12H22M7.99999 12H2.00018" stroke="currentColor" stroke-width="2" stroke-linecap="round" stroke-linejoin="round"/>
</svg>
