<svg width="24" height="24" viewBox="0 0 24 24" fill="none" xmlns="http://www.w3.org/2000/svg">
<path opacity="0.12" d="M11.6117 2.21564C11.7535 2.13686 11.8244 2.09747 11.8995 2.08203C11.966 2.06836 12.0345 2.06836 12.1009 2.08203C12.176 2.09747 12.2469 2.13686 12.3887 2.21564L19.7414 6.30047C20.1524 6.52879 20.3579 6.64295 20.4261 6.79342C20.4855 6.92459 20.4855 7.07501 20.4261 7.20618C20.3579 7.35665 20.1524 7.47081 19.7414 7.69912L12.0002 11.9998L4.25901 7.69913C3.84804 7.47081 3.64255 7.35665 3.57436 7.20618C3.51493 7.07501 3.51493 6.92459 3.57436 6.79342C3.64255 6.64295 3.84804 6.52879 4.25901 6.30047L11.6117 2.21564Z" fill="currentColor"/>
<path d="M20.5 7.27783L12 12.0001M12 12.0001L3.49997 7.27783M12 12.0001L12 21.5001M14 20.889L12.777 21.5684C12.4934 21.726 12.3516 21.8047 12.2015 21.8356C12.0685 21.863 11.9315 21.863 11.7986 21.8356C11.6484 21.8047 11.5066 21.726 11.223 21.5684L3.82297 17.4573C3.52346 17.2909 3.37368 17.2077 3.26463 17.0893C3.16816 16.9847 3.09515 16.8606 3.05048 16.7254C3 16.5726 3 16.4013 3 16.0586V7.94153C3 7.59889 3 7.42757 3.05048 7.27477C3.09515 7.13959 3.16816 7.01551 3.26463 6.91082C3.37368 6.79248 3.52345 6.70928 3.82297 6.54288L11.223 2.43177C11.5066 2.27421 11.6484 2.19543 11.7986 2.16454C11.9315 2.13721 12.0685 2.13721 12.2015 2.16454C12.3516 2.19543 12.4934 2.27421 12.777 2.43177L20.177 6.54288C20.4766 6.70928 20.6263 6.79248 20.7354 6.91082C20.8318 7.01551 20.9049 7.13959 20.9495 7.27477C21 7.42757 21 7.59889 21 7.94153L21 12.5001M7.5 4.50008L16.5 9.50008M16 18.0001L18 20.0001L22 16.0001" stroke="currentColor" stroke-width="2" stroke-linecap="round" stroke-linejoin="round"/>
</svg>
