<svg width="24" height="24" viewBox="0 0 24 24" fill="none" xmlns="http://www.w3.org/2000/svg">
<path opacity="0.12" d="M7.48037 3H16.5196C18.0981 3 18.8873 3 19.5062 3.29942C20.0512 3.56304 20.5036 3.98533 20.8041 4.51082C21.1454 5.10768 21.1997 5.89504 21.3083 7.46975L21.9664 17.0133C21.7296 15.3107 20.2679 14 18.5 14H5.50001C3.73215 14 2.27043 15.3107 2.03357 17.0133L2.69175 7.46975C2.80035 5.89503 2.85465 5.10768 3.19594 4.51082C3.49643 3.98533 3.94885 3.56304 4.49377 3.29942C5.11269 3 5.90192 3 7.48037 3Z" fill="currentColor"/>
<path d="M22 17.5L21.3083 7.46975C21.1997 5.89504 21.1454 5.10768 20.8041 4.51082C20.5036 3.98533 20.0512 3.56304 19.5062 3.29942C18.8873 3 18.0981 3 16.5196 3H7.48037C5.90191 3 5.11268 3 4.49376 3.29942C3.94884 3.56304 3.49642 3.98533 3.19594 4.51082C2.85464 5.10768 2.80034 5.89503 2.69174 7.46975L2 17.5M22 17.5C22 19.433 20.433 21 18.5 21H5.5C3.567 21 2 19.433 2 17.5M22 17.5C22 15.567 20.433 14 18.5 14H5.5C3.567 14 2 15.567 2 17.5M6 17.5H6.01M12 17.5H18" stroke="currentColor" stroke-width="2" stroke-linecap="round" stroke-linejoin="round"/>
</svg>
