<svg width="24" height="24" viewBox="0 0 24 24" fill="none" xmlns="http://www.w3.org/2000/svg">
<path opacity="0.4" d="M11.3855 15.7375C11.5966 15.4842 11.7021 15.3576 11.8285 15.3114C11.9393 15.2709 12.0609 15.2709 12.1718 15.3114C12.2981 15.3576 12.4036 15.4842 12.6147 15.7375L15.9067 19.6878C16.2555 20.1064 16.4299 20.3157 16.4325 20.4924C16.4348 20.6461 16.3664 20.7923 16.2469 20.8889C16.1094 21 15.8369 21 15.2921 21H8.70814C8.16328 21 7.89085 21 7.75336 20.8889C7.63384 20.7923 7.56537 20.6461 7.56768 20.4924C7.57035 20.3157 7.74475 20.1064 8.09356 19.6878L11.3855 15.7375Z" stroke="currentColor" stroke-width="2" stroke-linecap="round" stroke-linejoin="round"/>
<path d="M5 18C3.34315 18 2 16.6569 2 15V7.8C2 6.11984 2 5.27976 2.32698 4.63803C2.6146 4.07354 3.07354 3.6146 3.63803 3.32698C4.27976 3 5.11984 3 6.8 3H17.2C18.8802 3 19.7202 3 20.362 3.32698C20.9265 3.6146 21.3854 4.07354 21.673 4.63803C22 5.27976 22 6.11984 22 7.8V15C22 16.6569 20.6569 18 19 18" stroke="currentColor" stroke-width="2" stroke-linecap="round" stroke-linejoin="round"/>
</svg>
