<svg width="24" height="24" viewBox="0 0 24 24" fill="none" xmlns="http://www.w3.org/2000/svg">
<path opacity="0.4" d="M10.9999 16.437C10.9999 17.567 10.9999 18.1321 10.7717 18.4091C10.5734 18.6497 10.2741 18.7841 9.96253 18.7724C9.60384 18.759 9.18154 18.3836 8.33695 17.6329L3.34526 13.1958C2.87998 12.7822 2.64733 12.5754 2.5616 12.3312C2.4863 12.1168 2.4863 11.8831 2.5616 11.6687C2.64733 11.4245 2.87998 11.2177 3.34526 10.8041L8.33695 6.36706C9.18154 5.61631 9.60384 5.24093 9.96253 5.22751C10.2741 5.21584 10.5734 5.35021 10.7717 5.59086C10.9999 5.86787 10.9999 6.43288 10.9999 7.56291V16.437Z" stroke="currentColor" stroke-width="2" stroke-linecap="round" stroke-linejoin="round"/>
<path d="M21.9999 16.437C21.9999 17.567 21.9999 18.1321 21.7717 18.4091C21.5734 18.6497 21.2741 18.7841 20.9625 18.7724C20.6038 18.759 20.1815 18.3836 19.3369 17.6329L14.3453 13.1958C13.88 12.7822 13.6473 12.5754 13.5616 12.3312C13.4863 12.1168 13.4863 11.8831 13.5616 11.6687C13.6473 11.4245 13.88 11.2177 14.3453 10.8041L19.3369 6.36706C20.1815 5.61631 20.6038 5.24093 20.9625 5.22751C21.2741 5.21584 21.5734 5.35021 21.7717 5.59086C21.9999 5.86787 21.9999 6.43288 21.9999 7.56291V16.437Z" stroke="currentColor" stroke-width="2" stroke-linecap="round" stroke-linejoin="round"/>
</svg>
