<svg width="24" height="24" viewBox="0 0 24 24" fill="none" xmlns="http://www.w3.org/2000/svg">
<path opacity="0.4" d="M2 9.2C2 8.07989 2 7.51984 2.21799 7.09202C2.40973 6.71569 2.71569 6.40973 3.09202 6.21799C3.51984 6 4.07989 6 5.2 6H18.8C19.9201 6 20.4802 6 20.908 6.21799C21.2843 6.40973 21.5903 6.71569 21.782 7.09202C22 7.51984 22 8.0799 22 9.2V14.8C22 15.9201 22 16.4802 21.782 16.908C21.5903 17.2843 21.2843 17.5903 20.908 17.782C20.4802 18 19.9201 18 18.8 18H5.2C4.0799 18 3.51984 18 3.09202 17.782C2.71569 17.5903 2.40973 17.2843 2.21799 16.908C2 16.4802 2 15.9201 2 14.8V9.2Z" stroke="currentColor" stroke-width="2" stroke-linecap="round" stroke-linejoin="round"/>
<path d="M6 12H10M8 10V14M15 13H15.01M18 11H18.01" stroke="currentColor" stroke-width="2" stroke-linecap="round" stroke-linejoin="round"/>
</svg>
