<svg width="24" height="24" viewBox="0 0 24 24" fill="none" xmlns="http://www.w3.org/2000/svg">
<path opacity="0.4" d="M3 7.8C3 6.11984 3 5.27976 3.32698 4.63803C3.6146 4.07354 4.07354 3.6146 4.63803 3.32698C5.27976 3 6.11984 3 7.8 3H16.2C17.8802 3 18.7202 3 19.362 3.32698C19.9265 3.6146 20.3854 4.07354 20.673 4.63803C21 5.27976 21 6.11984 21 7.8V16.2C21 17.8802 21 18.7202 20.673 19.362C20.3854 19.9265 19.9265 20.3854 19.362 20.673C18.7202 21 17.8802 21 16.2 21H7.8C6.11984 21 5.27976 21 4.63803 20.673C4.07354 20.3854 3.6146 19.9265 3.32698 19.362C3 18.7202 3 17.8802 3 16.2V7.8Z" stroke="currentColor" stroke-width="2" stroke-linecap="round" stroke-linejoin="round"/>
<path d="M9.5 8.96524C9.5 8.48795 9.5 8.24931 9.59974 8.11608C9.68666 7.99998 9.81971 7.92734 9.96438 7.91701C10.1304 7.90515 10.3311 8.0342 10.7326 8.2923L15.4532 11.327C15.8016 11.5509 15.9758 11.6629 16.0359 11.8053C16.0885 11.9297 16.0885 12.0701 16.0359 12.1945C15.9758 12.3369 15.8016 12.4489 15.4532 12.6728L10.7326 15.7075C10.3311 15.9656 10.1304 16.0947 9.96438 16.0828C9.81971 16.0725 9.68666 15.9998 9.59974 15.8837C9.5 15.7505 9.5 15.5119 9.5 15.0346V8.96524Z" stroke="currentColor" stroke-width="2" stroke-linecap="round" stroke-linejoin="round"/>
</svg>
