<svg width="24" height="24" viewBox="0 0 24 24" fill="none" xmlns="http://www.w3.org/2000/svg">
<path opacity="0.4" d="M18 17V19.4C18 19.9601 18 20.2401 17.891 20.454C17.7951 20.6422 17.6422 20.7951 17.454 20.891C17.2401 21 16.9601 21 16.4 21H7.6C7.03995 21 6.75992 21 6.54601 20.891C6.35785 20.7951 6.20487 20.6422 6.10899 20.454C6 20.2401 6 19.9601 6 19.4V17" stroke="currentColor" stroke-width="2" stroke-linecap="round" stroke-linejoin="round"/>
<path d="M2 7.8C2 6.11984 2 5.27976 2.32698 4.63803C2.6146 4.07354 3.07354 3.6146 3.63803 3.32698C4.27976 3 5.11984 3 6.8 3H17.2C18.8802 3 19.7202 3 20.362 3.32698C20.9265 3.6146 21.3854 4.07354 21.673 4.63803C22 5.27976 22 6.11984 22 7.8V12.2C22 13.8802 22 14.7202 21.673 15.362C21.3854 15.9265 20.9265 16.3854 20.362 16.673C19.7202 17 18.8802 17 17.2 17H6.8C5.11984 17 4.27976 17 3.63803 16.673C3.07354 16.3854 2.6146 15.9265 2.32698 15.362C2 14.7202 2 13.8802 2 12.2V7.8Z" stroke="currentColor" stroke-width="2" stroke-linecap="round" stroke-linejoin="round"/>
</svg>
