<svg width="24" height="24" viewBox="0 0 24 24" fill="none" xmlns="http://www.w3.org/2000/svg">
<path opacity="0.4" d="M19.748 5C21.1653 6.97024 22.0001 9.38763 22.0001 12C22.0001 14.6124 21.1653 17.0298 19.748 19M15.7454 8C16.5362 9.13383 17.0001 10.5128 17.0001 12C17.0001 13.4872 16.5362 14.8662 15.7454 16" stroke="currentColor" stroke-width="2" stroke-linecap="round" stroke-linejoin="round"/>
<path d="M2 9.59993C2 9.03987 2 8.75985 2.10899 8.54594C2.20487 8.35777 2.35785 8.20479 2.54601 8.10892C2.75992 7.99993 3.03995 7.99993 3.6 7.99993H5.33726C5.58185 7.99993 5.70414 7.99993 5.81923 7.9723C5.92127 7.9478 6.01881 7.9074 6.10828 7.85257C6.2092 7.79073 6.29568 7.70425 6.46863 7.5313L9.63432 4.36561C10.0627 3.93724 10.2769 3.72305 10.4608 3.70858C10.6203 3.69602 10.7763 3.76061 10.8802 3.88231C11 4.02257 11 4.32548 11 4.9313V19.0686C11 19.6744 11 19.9773 10.8802 20.1175C10.7763 20.2392 10.6203 20.3038 10.4608 20.2913C10.2769 20.2768 10.0627 20.0626 9.63431 19.6342L6.46863 16.4686C6.29568 16.2956 6.2092 16.2091 6.10828 16.1473C6.01881 16.0925 5.92127 16.0521 5.81923 16.0276C5.70414 15.9999 5.58185 15.9999 5.33726 15.9999H3.6C3.03995 15.9999 2.75992 15.9999 2.54601 15.8909C2.35785 15.7951 2.20487 15.6421 2.10899 15.4539C2 15.24 2 14.96 2 14.3999V9.59993Z" stroke="currentColor" stroke-width="2" stroke-linecap="round" stroke-linejoin="round"/>
</svg>
