<svg width="24" height="24" viewBox="0 0 24 24" fill="none" xmlns="http://www.w3.org/2000/svg">
<path opacity="0.4" d="M3 7.8C3 6.11984 3 5.27976 3.32698 4.63803C3.6146 4.07354 4.07354 3.6146 4.63803 3.32698C5.27976 3 6.11984 3 7.8 3H16.2C17.8802 3 18.7202 3 19.362 3.32698C19.9265 3.6146 20.3854 4.07354 20.673 4.63803C21 5.27976 21 6.11984 21 7.8V13.5C21 14.8978 21 15.5967 20.7716 16.1481C20.4672 16.8831 19.8831 17.4672 19.1481 17.7716C18.5967 18 17.8978 18 16.5 18C16.0114 18 15.7671 18 15.5405 18.0535C15.2383 18.1248 14.9569 18.2656 14.7185 18.4645C14.5397 18.6137 14.3931 18.8091 14.1 19.2L12.64 21.1467C12.4229 21.4362 12.3143 21.5809 12.1812 21.6327C12.0647 21.678 11.9353 21.678 11.8188 21.6327C11.6857 21.5809 11.5771 21.4362 11.36 21.1467L9.9 19.2C9.60685 18.8091 9.46028 18.6137 9.2815 18.4645C9.04312 18.2656 8.76169 18.1248 8.45951 18.0535C8.23287 18 7.98858 18 7.5 18C6.10218 18 5.40326 18 4.85195 17.7716C4.11687 17.4672 3.53284 16.8831 3.22836 16.1481C3 15.5967 3 14.8978 3 13.5V7.8Z" stroke="currentColor" stroke-width="2" stroke-linecap="round" stroke-linejoin="round"/>
<path d="M7.5 10.5H7.51M12 10.5H12.01M16.5 10.5H16.51M8 10.5C8 10.7761 7.77614 11 7.5 11C7.22386 11 7 10.7761 7 10.5C7 10.2239 7.22386 10 7.5 10C7.77614 10 8 10.2239 8 10.5ZM12.5 10.5C12.5 10.7761 12.2761 11 12 11C11.7239 11 11.5 10.7761 11.5 10.5C11.5 10.2239 11.7239 10 12 10C12.2761 10 12.5 10.2239 12.5 10.5ZM17 10.5C17 10.7761 16.7761 11 16.5 11C16.2239 11 16 10.7761 16 10.5C16 10.2239 16.2239 10 16.5 10C16.7761 10 17 10.2239 17 10.5Z" stroke="currentColor" stroke-width="2" stroke-linecap="round" stroke-linejoin="round"/>
</svg>
