<svg width="24" height="24" viewBox="0 0 24 24" fill="none" xmlns="http://www.w3.org/2000/svg">
<path opacity="0.4" d="M2 8.8C2 7.11984 2 6.27976 2.32698 5.63803C2.6146 5.07354 3.07354 4.6146 3.63803 4.32698C4.27976 4 5.11984 4 6.8 4H17.2C18.8802 4 19.7202 4 20.362 4.32698C20.9265 4.6146 21.3854 5.07354 21.673 5.63803C22 6.27976 22 7.11984 22 8.8V15.2C22 16.8802 22 17.7202 21.673 18.362C21.3854 18.9265 20.9265 19.3854 20.362 19.673C19.7202 20 18.8802 20 17.2 20H6.8C5.11984 20 4.27976 20 3.63803 19.673C3.07354 19.3854 2.6146 18.9265 2.32698 18.362C2 17.7202 2 16.8802 2 15.2V8.8Z" stroke="currentColor" stroke-width="2" stroke-linecap="round" stroke-linejoin="round"/>
<path d="M8.96888 11C8.60876 11 8.42869 11 8.25458 10.969C8.10003 10.9414 7.94927 10.8958 7.8054 10.833C7.64331 10.7622 7.49349 10.6623 7.19384 10.4626L2 7C2 5.34315 3.34315 4 5 4H19C20.6569 4 22 5.34315 22 7L16.8062 10.4626C16.5065 10.6623 16.3567 10.7622 16.1946 10.833C16.0507 10.8958 15.9 10.9414 15.7454 10.969C15.5713 11 15.3912 11 15.0311 11H8.96888Z" stroke="currentColor" stroke-width="2" stroke-linecap="round" stroke-linejoin="round"/>
</svg>
