<svg width="24" height="24" viewBox="0 0 24 24" fill="none" xmlns="http://www.w3.org/2000/svg">
<path opacity="0.4" d="M6.0944 11.2288C6.03225 10.8282 6 10.4179 6 10C6 5.58172 9.60529 2 14.0526 2C18.5 2 22.1053 5.58172 22.1053 10C22.1053 10.9981 21.9213 11.9535 21.5852 12.8345C21.5154 13.0175 21.4805 13.109 21.4646 13.1804C21.4489 13.2512 21.4429 13.301 21.4412 13.3735C21.4394 13.4466 21.4494 13.5272 21.4692 13.6883L21.8718 16.9585C21.9154 17.3125 21.9372 17.4895 21.8783 17.6182C21.8267 17.731 21.735 17.8205 21.6211 17.8695C21.4911 17.9254 21.3147 17.8995 20.9618 17.8478L17.7765 17.3809C17.6102 17.3565 17.527 17.3443 17.4513 17.3448C17.3764 17.3452 17.3245 17.3507 17.2512 17.3661C17.1771 17.3817 17.0824 17.4172 16.893 17.4881C16.0097 17.819 15.0525 18 14.0526 18C13.6344 18 13.2237 17.9683 12.8227 17.9073" stroke="currentColor" stroke-width="2" stroke-linecap="round" stroke-linejoin="round"/>
<path d="M13 16.5C13 19.5376 10.5965 22 7.63158 22C7.01911 22 6.43059 21.8949 5.88227 21.7014C5.67416 21.628 5.5701 21.5912 5.50011 21.5773C5.42641 21.5626 5.38652 21.5585 5.31137 21.558C5.24 21.5575 5.15827 21.5687 4.9948 21.591L2 22L2.61134 19.2383C2.65141 19.0573 2.67145 18.9668 2.67608 18.8867C2.68091 18.8031 2.67864 18.7567 2.66566 18.6739C2.65322 18.5947 2.61533 18.4787 2.53955 18.2467C2.36028 17.6979 2.26316 17.1106 2.26316 16.5C2.26316 13.4624 4.66668 11 7.63158 11C10.5965 11 13 13.4624 13 16.5Z" stroke="currentColor" stroke-width="2" stroke-linecap="round" stroke-linejoin="round"/>
</svg>
