<svg width="24" height="24" viewBox="0 0 24 24" fill="none" xmlns="http://www.w3.org/2000/svg">
<path opacity="0.4" d="M4.85864 6C6.67357 4.14864 9.20268 3 12.0001 3C14.7975 3 17.3266 4.14864 19.1415 6M16.4723 9C15.3736 7.7725 13.777 7 12 7C10.223 7 8.62647 7.7725 7.52783 9" stroke="currentColor" stroke-width="2" stroke-linecap="round" stroke-linejoin="round"/>
<path d="M16.3094 17.7313C14.9608 17.2576 13.5105 17 12 17C10.4895 17 9.03921 17.2576 7.69061 17.7313C7.64577 17.747 7.62335 17.7549 7.58798 17.7705C7.2674 17.9118 7.02122 18.2591 6.99418 18.6084C6.9912 18.647 6.9912 18.6811 6.9912 18.7494C6.9912 18.9821 6.9912 19.0985 6.98152 19.1965C6.8878 20.1457 6.13689 20.8966 5.18773 20.9903C5.0897 21 4.97332 21 4.74057 21H4.4956C4.03504 21 3.80476 21 3.61321 20.9622C2.81709 20.8053 2.19469 20.1829 2.03776 19.3868C2 19.1952 2 18.965 2 18.5044V18.3062C2 17.831 2 17.5933 2.05074 17.3209C2.16421 16.7119 2.60675 15.9583 3.0834 15.5624C3.29654 15.3854 3.4411 15.3048 3.73021 15.1435C6.17797 13.7781 8.99812 13 12 13C15.0019 13 17.822 13.7781 20.2698 15.1435C20.5589 15.3048 20.7035 15.3854 20.9166 15.5624C21.3933 15.9583 21.8358 16.7119 21.9493 17.3209C22 17.5933 22 17.831 22 18.3062V18.5044C22 18.965 22 19.1952 21.9622 19.3868C21.8053 20.1829 21.1829 20.8053 20.3868 20.9622C20.1952 21 19.965 21 19.5044 21H19.2594C19.0267 21 18.9103 21 18.8123 20.9903C17.8631 20.8966 17.1122 20.1457 17.0185 19.1965C17.0088 19.0985 17.0088 18.9821 17.0088 18.7494C17.0088 18.6811 17.0088 18.647 17.0058 18.6084C16.9788 18.2591 16.7326 17.9118 16.412 17.7705C16.3767 17.7549 16.3542 17.747 16.3094 17.7313Z" stroke="currentColor" stroke-width="2" stroke-linecap="round" stroke-linejoin="round"/>
</svg>
