<svg width="24" height="24" viewBox="0 0 24 24" fill="none" xmlns="http://www.w3.org/2000/svg">
<path opacity="0.4" d="M21 3L15 9M15 3L21 9" stroke="currentColor" stroke-width="2" stroke-linecap="round" stroke-linejoin="round"/>
<path d="M7.38076 9.85323C8.07676 11.3028 9.02555 12.6615 10.2271 13.8631C11.4287 15.0646 12.7873 16.0134 14.237 16.7094C14.3617 16.7693 14.424 16.7992 14.5029 16.8222C14.7832 16.904 15.1275 16.8453 15.3649 16.6752C15.4317 16.6274 15.4889 16.5702 15.6032 16.4559C15.9528 16.1063 16.1276 15.9315 16.3034 15.8172C16.9663 15.3862 17.8209 15.3862 18.4838 15.8172C18.6595 15.9315 18.8343 16.1063 19.184 16.4559L19.3788 16.6508C19.9103 17.1822 20.176 17.448 20.3203 17.7333C20.6074 18.3009 20.6074 18.9712 20.3203 19.5387C20.176 19.8241 19.9103 20.0898 19.3788 20.6213L19.2212 20.7789C18.6916 21.3085 18.4268 21.5733 18.0667 21.7756C17.6672 22 17.0467 22.1614 16.5885 22.16C16.1756 22.1588 15.8933 22.0787 15.3289 21.9185C12.2955 21.0575 9.43313 19.433 7.04515 17.045C4.65717 14.6571 3.03269 11.7947 2.17172 8.76131C2.01152 8.19687 1.93141 7.91464 1.93018 7.5017C1.92882 7.04347 2.09018 6.42298 2.3146 6.02348C2.51685 5.66345 2.78166 5.39863 3.31129 4.86901L3.46892 4.71138C4.00036 4.17993 4.26608 3.91421 4.55146 3.76987C5.11903 3.4828 5.78929 3.4828 6.35685 3.76987C6.64223 3.91421 6.90795 4.17993 7.4394 4.71138L7.63427 4.90625C7.98387 5.25585 8.15867 5.43065 8.27296 5.60643C8.70396 6.26932 8.70396 7.1239 8.27296 7.78679C8.15868 7.96257 7.98387 8.13738 7.63427 8.48698C7.51995 8.60129 7.4628 8.65845 7.41496 8.72526C7.24495 8.96269 7.18624 9.30695 7.26797 9.5873C7.29097 9.6662 7.3209 9.72854 7.38076 9.85323Z" stroke="currentColor" stroke-width="2" stroke-linecap="round" stroke-linejoin="round"/>
</svg>
