<svg width="24" height="24" viewBox="0 0 24 24" fill="none" xmlns="http://www.w3.org/2000/svg">
<path opacity="0.4" d="M12 19V12" stroke="currentColor" stroke-width="2" stroke-linecap="round" stroke-linejoin="round"/>
<path d="M4.73297 21.4249C4.18518 21.6067 3.91129 21.6976 3.7428 21.6314C3.59648 21.574 3.4857 21.451 3.44373 21.2995C3.39541 21.1251 3.51425 20.8621 3.75195 20.3361L11.3064 3.6201C11.5387 3.10615 11.6549 2.84917 11.8157 2.76994C11.9555 2.70111 12.1194 2.70137 12.259 2.77065C12.4196 2.8504 12.5349 3.10775 12.7655 3.62244L20.254 20.3352C20.4898 20.8615 20.6077 21.1247 20.5589 21.2989C20.5165 21.4502 20.4054 21.5728 20.2589 21.6299C20.0903 21.6956 19.8169 21.604 19.27 21.4209L12.2915 19.0847C12.1976 19.0533 12.1507 19.0376 12.1027 19.0313C12.0601 19.0258 12.017 19.0257 11.9744 19.0312C11.9264 19.0373 11.8794 19.0529 11.7855 19.0841L4.73297 21.4249Z" stroke="currentColor" stroke-width="2" stroke-linecap="round" stroke-linejoin="round"/>
</svg>
