<svg width="24" height="24" viewBox="0 0 24 24" fill="none" xmlns="http://www.w3.org/2000/svg">
<path d="M11.2901 3.36637C11.5198 2.92427 11.6347 2.70323 11.7886 2.63139C11.9226 2.56883 12.0775 2.56883 12.2115 2.63139C12.3654 2.70323 12.4803 2.92427 12.71 3.36637L14.223 6.27865C14.322 6.46934 14.3716 6.56468 14.4459 6.62803C14.5115 6.68394 14.5904 6.72195 14.675 6.73837C14.7709 6.75697 14.8763 6.73625 15.0871 6.69481L18.3074 6.06197C18.7963 5.9659 19.0407 5.91786 19.1928 5.99342C19.3253 6.05921 19.4218 6.18027 19.4565 6.32406C19.4963 6.4892 19.3951 6.71681 19.1927 7.17203L17.8591 10.1707C17.7718 10.3671 17.7281 10.4653 17.7249 10.5628C17.7221 10.649 17.7416 10.7344 17.7815 10.8108C17.8267 10.8973 17.9087 10.9668 18.0725 11.1058L20.5751 13.229C20.955 13.5513 21.145 13.7124 21.1808 13.8785C21.2119 14.0231 21.1775 14.174 21.0866 14.2908C20.9824 14.4249 20.7413 14.4876 20.2592 14.6132L17.0832 15.4402C16.8753 15.4944 16.7713 15.5215 16.693 15.5798C16.6239 15.6313 16.5693 15.6998 16.5345 15.7786C16.495 15.868 16.4917 15.9754 16.4852 16.1901L16.3856 19.4705C16.3705 19.9685 16.3629 20.2175 16.2554 20.349C16.1618 20.4635 16.0223 20.5307 15.8744 20.5325C15.7045 20.5345 15.5052 20.3852 15.1064 20.0865L12.4796 18.1191C12.3076 17.9903 12.2216 17.9259 12.1272 17.9011C12.0438 17.8791 11.9562 17.8791 11.8729 17.9011C11.7785 17.9259 11.6925 17.9903 11.5205 18.1191L8.89369 20.0865C8.49493 20.3852 8.29555 20.5345 8.1257 20.5325C7.9778 20.5307 7.83828 20.4635 7.74467 20.349C7.63715 20.2175 7.62959 19.9685 7.61447 19.4705L7.51488 16.1901C7.50836 15.9754 7.5051 15.868 7.46563 15.7786C7.4308 15.6998 7.37618 15.6313 7.30707 15.5798C7.22878 15.5215 7.1248 15.4944 6.91685 15.4402L3.74091 14.6132C3.25879 14.4876 3.01773 14.4249 2.91344 14.2908C2.82263 14.174 2.78817 14.0231 2.81933 13.8785C2.85512 13.7124 3.04507 13.5513 3.42497 13.229L5.92755 11.1058C6.09142 10.9668 6.17335 10.8973 6.21857 10.8108C6.25849 10.7344 6.27798 10.649 6.27516 10.5628C6.27196 10.4653 6.2283 10.3671 6.14099 10.1707L4.80743 7.17203C4.60499 6.71681 4.50377 6.4892 4.54358 6.32406C4.57824 6.18027 4.67478 6.05921 4.80726 5.99342C4.95939 5.91786 5.20382 5.9659 5.69267 6.06197L8.91294 6.69481C9.12379 6.73625 9.22922 6.75697 9.32507 6.73837C9.40968 6.72195 9.48861 6.68394 9.5542 6.62803C9.62851 6.56468 9.67804 6.46934 9.77711 6.27865L11.2901 3.36637Z" stroke="currentColor" stroke-width="2" stroke-linecap="round" stroke-linejoin="round"/>
</svg>
