<svg width="24" height="24" viewBox="0 0 24 24" fill="none" xmlns="http://www.w3.org/2000/svg">
<path opacity="0.4" d="M4.5 7V4.5M4.5 4.5V2M4.5 4.5H2M4.5 4.5H7M4.5 22V19.5M4.5 19.5V17M4.5 19.5H2M4.5 19.5H7" stroke="currentColor" stroke-width="2" stroke-linecap="round" stroke-linejoin="round"/>
<path d="M13 3L14.7342 7.50886C15.0162 8.24209 15.1572 8.60871 15.3765 8.91709C15.5708 9.1904 15.8096 9.42919 16.0829 9.62353C16.3913 9.8428 16.7579 9.98381 17.4911 10.2658L22 12L17.4911 13.7342C16.7579 14.0162 16.3913 14.1572 16.0829 14.3765C15.8096 14.5708 15.5708 14.8096 15.3765 15.0829C15.1572 15.3913 15.0162 15.7579 14.7342 16.4911L13 21L11.2658 16.4911C10.9838 15.7579 10.8428 15.3913 10.6235 15.0829C10.4292 14.8096 10.1904 14.5708 9.91709 14.3765C9.60871 14.1572 9.24209 14.0162 8.50886 13.7342L4 12L8.50886 10.2658C9.24209 9.98381 9.60871 9.84281 9.91709 9.62353C10.1904 9.42919 10.4292 9.1904 10.6235 8.91709C10.8428 8.60871 10.9838 8.24209 11.2658 7.50886L13 3Z" stroke="currentColor" stroke-width="2" stroke-linecap="round" stroke-linejoin="round"/>
</svg>
