<svg width="24" height="24" viewBox="0 0 24 24" fill="none" xmlns="http://www.w3.org/2000/svg">
<path opacity="0.4" d="M7 15.7798C9.2 15.7798 11 13.9498 11 11.7298C11 10.5698 10.43 9.46979 9.29 8.53979C8.15 7.60979 7.29 6.22979 7 4.77979C6.71 6.22979 5.86 7.61979 4.71 8.53979C3.56 9.45979 3 10.5798 3 11.7298C3 13.9498 4.8 15.7798 7 15.7798Z" stroke="currentColor" stroke-width="2" stroke-linecap="round" stroke-linejoin="round"/>
<path d="M12.56 6.08C13.2477 4.98112 13.7353 3.76904 14 2.5C14.5 5 16 7.4 18 9C20 10.6 21 12.5 21 14.5C21.0057 15.8823 20.6008 17.2352 19.8368 18.3871C19.0727 19.539 17.9838 20.4382 16.7081 20.9705C15.4324 21.5028 14.0274 21.6444 12.6711 21.3773C11.3149 21.1101 10.0685 20.4463 9.08997 19.47" stroke="currentColor" stroke-width="2" stroke-linecap="round" stroke-linejoin="round"/>
</svg>
