<svg width="24" height="24" viewBox="0 0 24 24" fill="none" xmlns="http://www.w3.org/2000/svg">
<path opacity="0.4" d="M18.5 8V3M5.5 21V16M16 5.5H21M3 18.5H8" stroke="currentColor" stroke-width="2" stroke-linecap="round" stroke-linejoin="round"/>
<path d="M6.5 2L7.28446 3.56892C7.54995 4.0999 7.68269 4.36538 7.86003 4.59545C8.01739 4.79959 8.20041 4.98261 8.40455 5.13997C8.63462 5.31731 8.9001 5.45005 9.43108 5.71554L11 6.5L9.43108 7.28446C8.9001 7.54995 8.63462 7.68269 8.40455 7.86003C8.20041 8.01739 8.01739 8.20041 7.86003 8.40455C7.68269 8.63462 7.54995 8.9001 7.28446 9.43108L6.5 11L5.71554 9.43108C5.45005 8.9001 5.31731 8.63462 5.13997 8.40455C4.98261 8.20041 4.79959 8.01739 4.59545 7.86003C4.36538 7.68269 4.0999 7.54995 3.56892 7.28446L2 6.5L3.56892 5.71554C4.0999 5.45005 4.36538 5.31731 4.59545 5.13997C4.79959 4.98261 4.98261 4.79959 5.13997 4.59545C5.31731 4.36538 5.45005 4.09989 5.71554 3.56892L6.5 2Z" stroke="currentColor" stroke-width="2" stroke-linecap="round" stroke-linejoin="round"/>
<path d="M17 12L17.9511 13.9023C18.2166 14.4332 18.3494 14.6987 18.5267 14.9288C18.6841 15.1329 18.8671 15.3159 19.0712 15.4733C19.3013 15.6506 19.5668 15.7834 20.0977 16.0489L22 17L20.0977 17.9511C19.5668 18.2166 19.3013 18.3494 19.0712 18.5267C18.8671 18.6841 18.6841 18.8671 18.5267 19.0712C18.3494 19.3013 18.2166 19.5668 17.9511 20.0978L17 22L16.0489 20.0977C15.7834 19.5668 15.6506 19.3013 15.4733 19.0712C15.3159 18.8671 15.1329 18.6841 14.9288 18.5267C14.6987 18.3494 14.4332 18.2166 13.9023 17.9511L12 17L13.9023 16.0489C14.4332 15.7834 14.6987 15.6506 14.9288 15.4733C15.1329 15.3159 15.3159 15.1329 15.4733 14.9288C15.6506 14.6987 15.7834 14.4332 16.0489 13.9022L17 12Z" stroke="currentColor" stroke-width="2" stroke-linecap="round" stroke-linejoin="round"/>
</svg>
