<svg width="24" height="24" viewBox="0 0 24 24" fill="none" xmlns="http://www.w3.org/2000/svg">
<path opacity="0.12" d="M2 12C2 17.5228 6.47715 22 12 22C15.7014 22 18.9331 19.989 20.6622 17V7C18.9331 4.01099 15.7014 2 12 2C6.47715 2 2 6.47715 2 12Z" fill="currentColor"/>
<path d="M20.6621 17C18.933 19.989 15.7013 22 11.9999 22C6.47703 22 1.99988 17.5228 1.99988 12C1.99988 6.47715 6.47703 2 11.9999 2C15.7013 2 18.933 4.01099 20.6621 7M11.9999 8L7.99995 12M7.99995 12L11.9999 16M7.99995 12H21.9999" stroke="currentColor" stroke-width="2" stroke-linecap="round" stroke-linejoin="round"/>
</svg>
