<svg width="24" height="24" viewBox="0 0 24 24" fill="none" xmlns="http://www.w3.org/2000/svg">
<path opacity="0.12" d="M14.4 8H4.6C4.03995 8 3.75992 8 3.54601 8.10899C3.35785 8.20487 3.20487 8.35785 3.10899 8.54601C3 8.75992 3 9.03995 3 9.6V19.4C3 19.9601 3 20.2401 3.10899 20.454C3.20487 20.6422 3.35785 20.7951 3.54601 20.891C3.75992 21 4.03995 21 4.6 21H14.4C14.9601 21 15.2401 21 15.454 20.891C15.6422 20.7951 15.7951 20.6422 15.891 20.454C16 20.2401 16 19.9601 16 19.4V9.6C16 9.03995 16 8.75992 15.891 8.54601C15.7951 8.35785 15.6422 8.20487 15.454 8.10899C15.2401 8 14.9601 8 14.4 8Z" fill="currentColor"/>
<path d="M20.5 16H8M8 16V3.5M8 16L3.5 20.5M3.5 8H16M16 8V20.5M16 8L20.5 3.5M21 15.3373V3.8C21 3.51997 21 3.37996 20.9455 3.273C20.8976 3.17892 20.8211 3.10243 20.727 3.0545C20.62 3 20.48 3 20.2 3H8.66274C8.41815 3 8.29586 3 8.18077 3.02763C8.07873 3.05213 7.98119 3.09253 7.89172 3.14736C7.7908 3.2092 7.70432 3.29568 7.53137 3.46863L3.46863 7.53137C3.29568 7.70432 3.2092 7.7908 3.14736 7.89172C3.09253 7.98119 3.05213 8.07873 3.02763 8.18077C3 8.29586 3 8.41815 3 8.66274V20.2C3 20.48 3 20.62 3.0545 20.727C3.10243 20.8211 3.17892 20.8976 3.273 20.9455C3.37996 21 3.51997 21 3.8 21H15.3373C15.5818 21 15.7041 21 15.8192 20.9724C15.9213 20.9479 16.0188 20.9075 16.1083 20.8526C16.2092 20.7908 16.2957 20.7043 16.4686 20.5314L20.5314 16.4686C20.7043 16.2957 20.7908 16.2092 20.8526 16.1083C20.9075 16.0188 20.9479 15.9213 20.9724 15.8192C21 15.7041 21 15.5818 21 15.3373Z" stroke="currentColor" stroke-width="2" stroke-linecap="round" stroke-linejoin="round"/>
</svg>
