<svg width="24" height="24" viewBox="0 0 24 24" fill="none" xmlns="http://www.w3.org/2000/svg">
<path opacity="0.12" d="M21.5684 11.223C21.726 11.5066 21.8047 11.6484 21.8356 11.7985C21.863 11.9315 21.863 12.0685 21.8356 12.2015C21.8047 12.3516 21.726 12.4934 21.5684 12.777L17.4573 20.177C17.2909 20.4766 17.2077 20.6263 17.0893 20.7354C16.9847 20.8318 16.8606 20.9049 16.7254 20.9495C16.5726 21 16.4013 21 16.0586 21H7.94153C7.59889 21 7.42756 21 7.27477 20.9495C7.13959 20.9049 7.01551 20.8318 6.91082 20.7354C6.79248 20.6263 6.70928 20.4766 6.54288 20.177L2.43177 12.777C2.27421 12.4934 2.19543 12.3516 2.16454 12.2015C2.13721 12.0685 2.13721 11.9315 2.16454 11.7985C2.19543 11.6484 2.27421 11.5066 2.43177 11.223L6.54288 3.82297C6.70928 3.52345 6.79248 3.37369 6.91082 3.26463C7.01551 3.16816 7.13959 3.09515 7.27477 3.05048C7.42757 3 7.59889 3 7.94153 3L16.0586 3C16.4013 3 16.5726 3 16.7254 3.05049C16.8606 3.09515 16.9847 3.16816 17.0893 3.26463C17.2077 3.37369 17.2909 3.52345 17.4573 3.82297L21.5684 11.223Z" fill="currentColor"/>
<path d="M21.5683 11.223C21.7258 11.5066 21.8046 11.6484 21.8355 11.7985C21.8628 11.9315 21.8628 12.0685 21.8355 12.2015C21.8046 12.3516 21.7258 12.4934 21.5683 12.777L17.4572 20.177C17.2908 20.4766 17.2076 20.6263 17.0892 20.7354C16.9845 20.8318 16.8605 20.9049 16.7253 20.9495C16.5725 21 16.4012 21 16.0585 21H7.94141C7.59876 21 7.42744 21 7.27464 20.9495C7.13947 20.9049 7.01539 20.8318 6.9107 20.7354C6.79236 20.6263 6.70916 20.4766 6.54276 20.177L2.43165 12.777C2.27409 12.4934 2.19531 12.3516 2.16442 12.2015C2.13709 12.0685 2.13709 11.9315 2.16442 11.7985C2.19531 11.6484 2.27409 11.5066 2.43164 11.223L6.54276 3.82297C6.70916 3.52345 6.79236 3.37369 6.9107 3.26463C7.01539 3.16816 7.13947 3.09515 7.27464 3.05048C7.42744 3 7.59876 3 7.94141 3L16.0585 3C16.4012 3 16.5725 3 16.7253 3.05049C16.8605 3.09515 16.9845 3.16816 17.0892 3.26463C17.2076 3.37369 17.2908 3.52345 17.4572 3.82297L21.5683 11.223Z" stroke="currentColor" stroke-width="2" stroke-linecap="round" stroke-linejoin="round"/>
</svg>
