<svg width="24" height="24" viewBox="0 0 24 24" fill="none" xmlns="http://www.w3.org/2000/svg">
<path opacity="0.12" d="M11.0603 2.93203C11.3981 2.68689 11.567 2.56432 11.7516 2.51696C11.9146 2.47514 12.0855 2.47514 12.2485 2.51696C12.4332 2.56432 12.602 2.68689 12.9398 2.93203L21.0584 8.82396C21.3968 9.06956 21.566 9.19235 21.6683 9.3535C21.7587 9.49579 21.8116 9.65862 21.8222 9.82684C21.8342 10.0174 21.7695 10.2162 21.6401 10.6138L18.5399 20.1449C18.4107 20.5421 18.3461 20.7407 18.2245 20.8876C18.1171 21.0173 17.9787 21.1178 17.8221 21.1798C17.6448 21.25 17.436 21.25 17.0183 21.25H6.98178C6.56413 21.25 6.3553 21.25 6.17798 21.1798C6.0214 21.1178 5.88301 21.0173 5.77564 20.8876C5.65405 20.7407 5.58945 20.5421 5.46026 20.1449L2.35996 10.6138C2.23062 10.2162 2.16595 10.0174 2.17792 9.82684C2.18849 9.65862 2.24142 9.49579 2.33177 9.3535C2.4341 9.19235 2.60331 9.06956 2.94172 8.82396L11.0603 2.93203Z" fill="currentColor"/>
<path d="M11.0603 2.93203C11.3981 2.68689 11.567 2.56432 11.7516 2.51696C11.9146 2.47514 12.0855 2.47514 12.2485 2.51696C12.4332 2.56432 12.602 2.68689 12.9398 2.93203L21.0584 8.82396C21.3968 9.06956 21.566 9.19235 21.6683 9.3535C21.7587 9.49579 21.8116 9.65862 21.8222 9.82684C21.8342 10.0174 21.7695 10.2162 21.6401 10.6138L18.5399 20.1449C18.4107 20.5421 18.3461 20.7407 18.2245 20.8876C18.1171 21.0173 17.9787 21.1178 17.8221 21.1798C17.6448 21.25 17.436 21.25 17.0183 21.25H6.98178C6.56413 21.25 6.3553 21.25 6.17798 21.1798C6.0214 21.1178 5.88301 21.0173 5.77564 20.8876C5.65405 20.7407 5.58945 20.5421 5.46026 20.1449L2.35996 10.6138C2.23062 10.2162 2.16595 10.0174 2.17792 9.82684C2.18849 9.65862 2.24142 9.49579 2.33177 9.3535C2.4341 9.19235 2.60331 9.06956 2.94172 8.82396L11.0603 2.93203Z" stroke="currentColor" stroke-width="2" stroke-linecap="round" stroke-linejoin="round"/>
</svg>
