<svg width="24" height="24" viewBox="0 0 24 24" fill="none" xmlns="http://www.w3.org/2000/svg">
<g opacity="0.12">
<path d="M4 5.1998V5.8773C4 6.29333 4 6.50135 4.04084 6.70032C4.07706 6.87684 4.13698 7.04766 4.21897 7.20814C4.31138 7.38902 4.44132 7.55145 4.70122 7.87632L8.87625 13.0951C9.78671 12.3649 10.8934 11.9998 12 11.9998L4.52204 2.65234C4.4022 2.78379 4.29972 2.93141 4.21799 3.09182C4 3.51964 4 4.07969 4 5.1998Z" fill="currentColor"/>
<path d="M20 5.1998V5.8773C20 6.29333 20 6.50135 19.9592 6.70032C19.9229 6.87684 19.863 7.04766 19.781 7.20814C19.6886 7.38902 19.5587 7.55145 19.2988 7.87632L15.1238 13.0951C14.2133 12.3649 13.1066 11.9998 12 11.9998L19.478 2.65234C19.5978 2.78379 19.7003 2.93141 19.782 3.09182C20 3.51964 20 4.07969 20 5.1998Z" fill="currentColor"/>
</g>
<path d="M8.87625 13.0953L4.70122 7.87653C4.44132 7.55166 4.31138 7.38922 4.21897 7.20834C4.13698 7.04787 4.07706 6.87705 4.04084 6.70052C4 6.50155 4 6.29354 4 5.8775V5.2C4 4.0799 4 3.51984 4.21799 3.09202C4.40973 2.71569 4.71569 2.40973 5.09202 2.21799C5.51984 2 6.0799 2 7.2 2H16.8C17.9201 2 18.4802 2 18.908 2.21799C19.2843 2.40973 19.5903 2.71569 19.782 3.09202C20 3.51984 20 4.0799 20 5.2V5.8775C20 6.29354 20 6.50155 19.9592 6.70052C19.9229 6.87705 19.863 7.04787 19.781 7.20834C19.6886 7.38922 19.5587 7.55166 19.2988 7.87652L15.1238 13.0953M5.00005 3L12.0001 12L19 3M15.5355 13.4645C17.4882 15.4171 17.4882 18.5829 15.5355 20.5355C13.5829 22.4882 10.4171 22.4882 8.46446 20.5355C6.51185 18.5829 6.51185 15.4171 8.46446 13.4645C10.4171 11.5118 13.5829 11.5118 15.5355 13.4645Z" stroke="currentColor" stroke-width="2" stroke-linecap="round" stroke-linejoin="round"/>
</svg>
