<svg width="24" height="24" viewBox="0 0 24 24" fill="none" xmlns="http://www.w3.org/2000/svg">
<path opacity="0.12" d="M12 21.9999C16.1421 21.9999 19.5 18.6421 19.5 14.4999C19.5 11.2643 17.4511 8.50726 14.5799 7.45544C14.3541 7.3727 14.2411 7.33133 14.1714 7.27054C14.1056 7.2132 14.0643 7.15404 14.0331 7.07256C14 6.98618 14 6.87759 14 6.66042V2.8C14 2.51997 14 2.37996 13.9455 2.273C13.8976 2.17892 13.8211 2.10243 13.727 2.0545C13.62 2 13.48 2 13.2 2H10.8C10.52 2 10.38 2 10.273 2.0545C10.1789 2.10243 10.1024 2.17892 10.0545 2.273C10 2.37996 10 2.51997 10 2.8V6.66042C10 6.87759 10 6.98618 9.9669 7.07256C9.93568 7.15404 9.89435 7.2132 9.82858 7.27054C9.75885 7.33133 9.64593 7.3727 9.42008 7.45544C6.54892 8.50726 4.5 11.2643 4.5 14.4999C4.5 18.6421 7.85786 21.9999 12 21.9999Z" fill="currentColor"/>
<path d="M10 2.00008V6.6605C10 6.87768 10 6.98626 9.9669 7.07264C9.93568 7.15413 9.89435 7.21328 9.82858 7.27063C9.75885 7.33142 9.64593 7.37279 9.42008 7.45553C6.54892 8.50734 4.5 11.2644 4.5 14.5C4.5 18.6421 7.85786 22 12 22C16.1421 22 19.5 18.6421 19.5 14.5C19.5 11.2644 17.4511 8.50734 14.5799 7.45553C14.3541 7.37279 14.2411 7.33142 14.1714 7.27063C14.1056 7.21328 14.0643 7.15413 14.0331 7.07264C14 6.98626 14 6.87768 14 6.6605V2.00008M8.5 2H15.5" stroke="currentColor" stroke-width="2" stroke-linecap="round" stroke-linejoin="round"/>
</svg>
