<svg width="24" height="24" viewBox="0 0 24 24" fill="none" xmlns="http://www.w3.org/2000/svg">
<path opacity="0.4" d="M2 12L11.6422 16.8211C11.7734 16.8867 11.839 16.9195 11.9078 16.9324C11.9687 16.9438 12.0313 16.9438 12.0922 16.9324C12.161 16.9195 12.2266 16.8867 12.3578 16.8211L22 12M2 17L11.6422 21.8211C11.7734 21.8867 11.839 21.9195 11.9078 21.9324C11.9687 21.9438 12.0313 21.9438 12.0922 21.9324C12.161 21.9195 12.2266 21.8867 12.3578 21.8211L22 17" stroke="currentColor" stroke-width="2" stroke-linecap="round" stroke-linejoin="round"/>
<path d="M12.3578 2.17895C12.2266 2.11336 12.161 2.08056 12.0922 2.06766C12.0313 2.05622 11.9687 2.05622 11.9078 2.06766C11.839 2.08056 11.7734 2.11336 11.6422 2.17895L2 7.00006L11.6422 11.8212C11.7734 11.8868 11.839 11.9196 11.9078 11.9325C11.9687 11.9439 12.0313 11.9439 12.0922 11.9325C12.161 11.9196 12.2266 11.8868 12.3578 11.8212L22 7.00006L12.3578 2.17895Z" stroke="currentColor" stroke-width="2" stroke-linecap="round" stroke-linejoin="round"/>
</svg>
