<svg width="24" height="24" viewBox="0 0 24 24" fill="none" xmlns="http://www.w3.org/2000/svg">
<path d="M12.6855 0.964753C12.2346 0.858917 11.7654 0.858917 11.3145 0.964753C10.7994 1.08565 10.3416 1.38414 9.82067 1.72374C7.57225 3.18525 5.32144 4.64315 3.07434 6.1067C2.73287 6.3291 2.56214 6.4403 2.50265 6.5816C2.45069 6.70505 2.45044 6.84436 2.50198 6.96799C2.56098 7.1095 2.73142 7.22135 3.0723 7.44506L10.793 12.5118C11.4927 12.971 11.6396 13.0501 11.7698 13.0809C11.9212 13.1167 12.0789 13.1167 12.2303 13.0809C12.3604 13.0501 12.5074 12.971 13.2071 12.5118L20.9277 7.44509C21.2686 7.22138 21.4391 7.10953 21.4981 6.96802C21.5496 6.84439 21.5494 6.70508 21.4974 6.58163C21.4379 6.44032 21.2672 6.32912 20.9257 6.10672C18.6786 4.64317 16.4278 3.18523 14.1793 1.72375C13.6584 1.38414 13.2006 1.08565 12.6855 0.964753Z" fill="currentColor"/>
<path d="M22.9965 9.95966C22.9962 9.47893 22.996 9.23856 22.8953 9.1051C22.8077 8.98881 22.6736 8.91653 22.5283 8.90714C22.3615 8.89638 22.1602 9.02846 21.7577 9.29262L17.1192 12.3366C16.8236 12.5306 16.6758 12.6277 16.6157 12.7549C16.563 12.8665 16.5534 12.9935 16.5887 13.1117C16.6291 13.2466 16.7607 13.3647 17.0238 13.6008L22.4258 18.4488C22.6241 18.6268 22.9341 18.5174 22.9558 18.2518C23 17.7106 23 17.0463 23 16.2413C23 14.5359 22.9979 11.6904 22.9965 9.95966Z" fill="currentColor"/>
<path d="M21.3424 21.2424C21.5253 21.1103 21.6167 21.0442 21.6713 20.9185C21.7137 20.8209 21.7217 20.6711 21.6898 20.5696C21.6488 20.4387 21.5471 20.3475 21.3439 20.1651L14.8118 14.3029C14.8076 14.2992 14.8055 14.2973 14.8036 14.2957C14.636 14.1483 14.391 14.1298 14.2032 14.2505C14.2011 14.2518 14.1987 14.2533 14.194 14.2564C13.67 14.6013 13.2095 14.9045 12.6907 15.0272C12.2365 15.1346 11.7636 15.1346 11.3094 15.0272C10.7905 14.9045 10.33 14.6013 9.80602 14.2564C9.80124 14.2533 9.79885 14.2517 9.79669 14.2503C9.60893 14.1298 9.364 14.1482 9.19641 14.2955C9.19449 14.2972 9.19236 14.2991 9.1881 14.3029L2.65606 20.1651C2.4528 20.3475 2.35118 20.4387 2.31013 20.5695C2.27828 20.671 2.28621 20.8208 2.32859 20.9184C2.38322 21.0442 2.47465 21.1102 2.6575 21.2423C2.82371 21.3624 2.99965 21.4701 3.18404 21.564C3.66937 21.8113 4.18608 21.9099 4.74817 21.9558C5.28936 22 5.95372 22 6.75868 22H17.2413C18.0463 22 18.7106 22 19.2518 21.9558C19.8139 21.9099 20.3306 21.8113 20.816 21.564C21.0003 21.4701 21.1762 21.3625 21.3424 21.2424Z" fill="currentColor"/>
<path d="M1.04419 18.2518C1.06589 18.5174 1.3758 18.6267 1.57408 18.4488L6.97612 13.6008C7.23931 13.3646 7.3709 13.2465 7.41123 13.1116C7.44656 12.9934 7.43698 12.8664 7.38431 12.7549C7.3242 12.6276 7.17637 12.5306 6.88071 12.3365L2.24229 9.29257C1.83976 9.02841 1.63849 8.89633 1.47169 8.90709C1.32637 8.91648 1.19233 8.98876 1.10466 9.10505C1.00404 9.23851 1.00384 9.47888 1.00346 9.95961C1.00206 11.6904 1 14.5359 1 16.2413C0.999988 17.0463 0.999977 17.7106 1.04419 18.2518Z" fill="currentColor"/>
</svg>
