<svg width="24" height="24" viewBox="0 0 24 24" fill="none" xmlns="http://www.w3.org/2000/svg">
<g opacity="0.12">
<path d="M18.9998 21H20.0102C20.9813 21 21.4669 21 21.7346 20.7975C21.9678 20.6211 22.1121 20.3515 22.1295 20.0596C22.1495 19.7246 21.8802 19.3206 21.3415 18.5125L18.3311 13.9969C17.886 13.3292 17.6634 12.9954 17.3829 12.8791C17.1376 12.7774 16.862 12.7774 16.6167 12.8791C16.3362 12.9954 16.1136 13.3292 15.6685 13.9969L14.9243 15.1132L18.9998 21Z" fill="currentColor"/>
<path d="M8.68451 9.90019L2.73822 18.4893C2.17519 19.3025 1.89368 19.7092 1.90971 20.0474C1.92366 20.3419 2.06688 20.6152 2.30109 20.7943C2.57002 21 3.06459 21 4.05373 21H18.9998L11.3155 9.90019C10.8736 9.26183 10.6526 8.94265 10.3766 8.83045C10.1351 8.7323 9.8649 8.7323 9.62344 8.83045C9.34742 8.94265 9.12645 9.26183 8.68451 9.90019Z" fill="currentColor"/>
</g>
<path d="M19 21H20.0104C20.9816 21 21.4671 21 21.7348 20.7975C21.968 20.6211 22.1123 20.3515 22.1297 20.0596C22.1497 19.7246 21.8804 19.3205 21.3417 18.5125L18.3313 13.9969C17.8862 13.3292 17.6636 12.9954 17.3831 12.8791C17.1378 12.7773 16.8622 12.7773 16.6169 12.8791C16.3364 12.9954 16.1139 13.3292 15.6687 13.9969L14.9245 15.1132M19 21L11.3155 9.90018C10.8736 9.26182 10.6526 8.94264 10.3766 8.83044C10.1351 8.73228 9.8649 8.73228 9.62344 8.83044C9.34742 8.94264 9.12645 9.26182 8.68451 9.90018L2.73822 18.4893C2.17519 19.3025 1.89368 19.7092 1.90971 20.0473C1.92366 20.3419 2.06688 20.6152 2.30109 20.7943C2.57002 21 3.06459 21 4.05373 21H19ZM21 6C21 7.65685 19.6569 9 18 9C16.3432 9 15 7.65685 15 6C15 4.34315 16.3432 3 18 3C19.6569 3 21 4.34315 21 6Z" stroke="currentColor" stroke-width="2" stroke-linecap="round" stroke-linejoin="round"/>
</svg>
